SplineFontDB: 3.2
FontName: GargouilleBold
FullName: GargouilleBold
FamilyName: Gargouille
Weight: Bold
Copyright: 
Version: Version 2;Fontself Maker 3.5.1
ItalicAngle: 0
UnderlinePosition: 0
UnderlineWidth: 0
Ascent: 800
Descent: 200
InvalidEm: 0
sfntRevision: 0x00010000
LayerCount: 2
Layer: 0 0 "Back" 1
Layer: 1 0 "Fore" 0
XUID: [1021 690 1522831698 27935]
StyleMap: 0x0040
FSType: 0
OS2Version: 4
OS2_WeightWidthSlopeOnly: 0
OS2_UseTypoMetrics: 0
CreationTime: 1587336329
ModificationTime: 1693413255
PfmFamily: 81
TTFWeight: 400
TTFWidth: 5
LineGap: 0
VLineGap: 0
Panose: 0 0 0 0 0 0 0 0 0 0
OS2TypoAscent: 749
OS2TypoAOffset: 0
OS2TypoDescent: -16
OS2TypoDOffset: 0
OS2TypoLinegap: 0
OS2WinAscent: 934
OS2WinAOffset: 0
OS2WinDescent: 233
OS2WinDOffset: 0
HheadAscent: 749
HheadAOffset: 0
HheadDescent: -16
HheadDOffset: 0
OS2SubXSize: 650
OS2SubYSize: 699
OS2SubXOff: 0
OS2SubYOff: 140
OS2SupXSize: 650
OS2SupYSize: 699
OS2SupXOff: 0
OS2SupYOff: 479
OS2StrikeYSize: 49
OS2StrikeYPos: 258
OS2CapHeight: 700
OS2XHeight: 507
OS2Vendor: 'XXXX'
OS2CodePages: 00000003.00000000
OS2UnicodeRanges: 80000027.00000008.00000000.00000000
Lookup: 258 0 0 "'kern' Horizontal Kerning in Latin lookup 0" { "'kern' Horizontal Kerning in Latin lookup 0 per glyph data 0"  "'kern' Horizontal Kerning in Latin lookup 0 kerning class 1"  } ['kern' ('DFLT' <'dflt' > 'latn' <'dflt' > ) ]
MarkAttachClasses: 1
DEI: 91125
KernClass2: 28 21 "'kern' Horizontal Kerning in Latin lookup 0 kerning class 1"
 21 parenright zero seven
 8 one four
 3 B R
 1 D
 1 F
 1 G
 3 H I
 1 K
 3 J O
 1 T
 26 A M N V Agrave Acircumflex
 1 Z
 1 b
 1 c
 1 e
 1 f
 1 h
 1 j
 1 l
 9 g m n u v
 5 o p w
 1 q
 1 s
 1 x
 1 y
 1 z
 13 Aacute Atilde
 10 parenright
 5 slash
 3 two
 5 seven
 8 question
 3 B E
 1 D
 5 F P R
 1 H
 1 T
 1 Z
 9 backslash
 12 bracketright
 5 c e r
 7 m n u w
 3 g o
 3 q y
 1 t
 9 braceleft
 10 braceright

StartChar: .notdef
Encoding: 65536 -1 0
Width: 527
GlyphClass: 1
Flags: W
LayerCount: 2
Fore
SplineSet
50 700 m 1
 477 700 l 1
 477 0 l 1
 50 0 l 1
 50 700 l 1
78 680 m 1
 263 371 l 1
 449 680 l 1
 78 680 l 1
251 350 m 1
 71 650 l 1
 71 49 l 1
 251 350 l 1
264 329 m 1
 79 21 l 1
 449 21 l 1
 264 329 l 1
276 350 m 1
 457 47 l 1
 457 652 l 1
 276 350 l 1
EndSplineSet
Validated: 1
EndChar

StartChar: exclam
Encoding: 33 33 5
Width: 123
GlyphClass: 1
Flags: W
LayerCount: 2
Fore
SplineSet
108.028320312 689.760742188 m 1
 107.696289062 215.153320312 l 1
 24.0419921875 166.83984375 l 1
 24.3330078125 689.760742188 l 1
 108.028320312 689.760742188 l 1
24.0009765625 -10.072265625 m 1
 24.1669921875 87.0107421875 l 1
 107.862304688 135.32421875 l 1
 107.696289062 38.4072265625 l 1
 24.0009765625 -10.072265625 l 1
EndSplineSet
Validated: 1
EndChar

StartChar: numbersign
Encoding: 35 35 6
Width: 611
GlyphClass: 1
Flags: W
LayerCount: 2
Fore
SplineSet
594.216796875 699.833984375 m 1
 528.60546875 507.163085938 l 1
 594.048828125 507.163085938 l 1
 594.048828125 432.323242188 l 1
 503.119140625 432.323242188 l 1
 447.239257812 268.216796875 l 1
 594.049804688 268.216796875 l 1
 594.049804688 193.376953125 l 1
 421.751953125 193.376953125 l 1
 355.893554688 0 l 1
 272.28125 -0 l 1
 338.139648438 193.376953125 l 1
 177.525390625 193.376953125 l 1
 111.666992188 0 l 1
 28.0546875 -0 l 1
 93.9140625 193.376953125 l 1
 15 193.376953125 l 1
 15 268.216796875 l 1
 119.401367188 268.216796875 l 1
 175.28125 432.323242188 l 1
 15 432.323242188 l 1
 15 507.163085938 l 1
 200.768554688 507.163085938 l 1
 266.377929688 699.833984375 l 1
 349.990234375 699.833984375 l 1
 284.380859375 507.163085938 l 1
 444.995117188 507.163085938 l 1
 510.604492188 699.833984375 l 1
 594.216796875 699.833984375 l 1
363.625976562 268.216796875 m 1
 419.505859375 432.323242188 l 1
 258.891601562 432.323242188 l 1
 203.01171875 268.216796875 l 1
 363.625976562 268.216796875 l 1
EndSplineSet
Validated: 1
EndChar

StartChar: dollar
Encoding: 36 36 7
Width: 291
GlyphClass: 1
Flags: W
LayerCount: 2
Fore
SplineSet
276.234375 346.008789062 m 1
 275.443359375 346.46484375 l 1
 275.443359375 149.262695312 l 1
 188.545898438 99.5771484375 l 1
 188.545898438 360.767578125 l 1
 156.53125 379.311523438 l 1
 156.53125 118.204101562 l 1
 188.545898438 99.5771484375 l 1
 156.53125 99.5771484375 l 1
 156.53125 -0.0009765625 l 1
 135.7421875 -0.0009765625 l 1
 135.7421875 99.5771484375 l 1
 102.646484375 99.5771484375 l 1
 16.20703125 149.470703125 l 1
 102.646484375 149.470703125 l 1
 135.7421875 130.26171875 l 1
 135.7421875 391.369140625 l 1
 16.9970703125 460.221679688 l 1
 16.9970703125 547.534179688 l 1
 15.9990234375 549.322265625 l 1
 15.9990234375 748.936523438 l 1
 102.896484375 798.622070312 l 1
 102.896484375 510.240234375 l 1
 135.743164062 491.197265625 l 1
 135.743164062 779.538085938 l 1
 102.896484375 798.622070312 l 1
 135.743164062 798.622070312 l 1
 135.743164062 870.509765625 l 1
 156.532226562 870.509765625 l 1
 156.532226562 798.622070312 l 1
 188.796875 798.622070312 l 1
 275.236328125 748.6875 l 1
 188.796875 748.6875 l 1
 156.532226562 767.439453125 l 1
 156.532226562 479.140625 l 1
 275.236328125 410.288085938 l 1
 275.236328125 349.002929688 l 1
 275.444335938 348.877929688 l 1
 275.444335938 347.380859375 l 1
 276.234375 346.008789062 l 1
EndSplineSet
Validated: 5
EndChar

StartChar: percent
Encoding: 37 37 8
Width: 754
GlyphClass: 1
Flags: W
LayerCount: 2
Fore
SplineSet
456.0546875 699.833984375 m 1
 539.625976562 699.833984375 l 1
 301.303710938 0 l 1
 217.732421875 0 l 1
 456.0546875 699.833984375 l 1
266.12890625 699.833984375 m 1
 266.12890625 386.462890625 l 1
 182.43359375 338.149414062 l 1
 98.6962890625 338.149414062 l 1
 182.43359375 386.462890625 l 1
 182.43359375 699.583984375 l 1
 99.1953125 651.520507812 l 1
 98.6962890625 651.520507812 l 1
 98.6962890625 338.150390625 l 1
 15.0009765625 338.275390625 l 1
 15.0009765625 651.520507812 l 1
 15.4580078125 651.520507812 l 1
 99.1953125 699.833984375 l 1
 182.890625 699.833984375 l 1
 182.599609375 699.66796875 l 1
 266.12890625 699.833984375 l 1
655.4609375 363.553710938 m 1
 738.990234375 363.719726562 l 1
 738.990234375 50.349609375 l 1
 655.294921875 1.9951171875 l 1
 571.557617188 1.9951171875 l 1
 655.294921875 50.349609375 l 1
 655.294921875 363.428710938 l 1
 572.014648438 315.365234375 l 1
 571.557617188 315.365234375 l 1
 571.557617188 1.9951171875 l 1
 487.862304688 2.1611328125 l 1
 487.862304688 315.365234375 l 1
 488.319335938 315.365234375 l 1
 572.014648438 363.719726562 l 1
 655.751953125 363.719726562 l 1
 655.4609375 363.553710938 l 1
EndSplineSet
Validated: 5
EndChar

StartChar: quotesingle
Encoding: 39 39 9
AltUni2: 002019.ffffffff.0 002018.ffffffff.0 002019.ffffffff.0 002018.ffffffff.0
Width: 117
GlyphClass: 1
Flags: W
LayerCount: 2
Fore
SplineSet
17.125 454.318359375 m 1
 100.404296875 454.318359375 l 1
 100.23828125 275.16015625 l 1
 17 227.096679688 l 1
 17.125 454.318359375 l 1
EndSplineSet
Validated: 1
EndChar

StartChar: parenleft
Encoding: 40 40 10
Width: 291
GlyphClass: 1
Flags: W
LayerCount: 2
Fore
SplineSet
144.294921875 66.5654296875 m 1
 145.001953125 66.5654296875 l 1
 260.296875 0 l 1
 145.001953125 -0 l 1
 29.70703125 66.5654296875 l 1
 29 66.5654296875 l 1
 29 867.432617188 l 1
 29.70703125 867.432617188 l 1
 145.001953125 933.998046875 l 1
 260.296875 933.998046875 l 1
 145.001953125 867.432617188 l 1
 144.294921875 867.432617188 l 1
 144.294921875 66.5654296875 l 1
EndSplineSet
Validated: 1
EndChar

StartChar: parenright
Encoding: 41 41 11
Width: 291
GlyphClass: 1
Flags: W
LayerCount: 2
Fore
SplineSet
260.588867188 867.432617188 m 1
 261.295898438 867.432617188 l 1
 261.295898438 66.5654296875 l 1
 260.588867188 66.5654296875 l 1
 145.293945312 0 l 1
 29.9990234375 -0 l 1
 145.293945312 66.5654296875 l 1
 146.000976562 66.5654296875 l 1
 146.000976562 867.432617188 l 1
 145.293945312 867.432617188 l 1
 29.9990234375 933.998046875 l 1
 145.293945312 933.998046875 l 1
 260.588867188 867.432617188 l 1
EndSplineSet
Validated: 1
EndChar

StartChar: asterisk
Encoding: 42 42 12
Width: 257
GlyphClass: 1
Flags: W
LayerCount: 2
Fore
SplineSet
241.888671875 469.453125 m 1
 163.84765625 391.454101562 l 1
 241.888671875 313.413085938 l 1
 224.176757812 258.198242188 l 1
 154.243164062 328.172851562 l 1
 154.243164062 243.520507812 l 1
 102.645507812 214 l 1
 102.6875 330.29296875 l 1
 30.55078125 258.197265625 l 1
 15.0009765625 315.408203125 l 1
 90.962890625 391.453125 l 1
 15.0009765625 467.45703125 l 1
 30.55078125 524.66796875 l 1
 102.6875 452.53125 l 1
 102.729492188 568.865234375 l 1
 154.202148438 539.38671875 l 1
 154.202148438 454.693359375 l 1
 224.176757812 524.66796875 l 1
 241.888671875 469.453125 l 1
EndSplineSet
Validated: 1
EndChar

StartChar: plus
Encoding: 43 43 13
Width: 590
GlyphClass: 1
Flags: W
LayerCount: 2
Fore
SplineSet
560.280273438 341.642578125 m 1
 517.080078125 257.532226562 l 1
 341.498046875 257.615234375 l 1
 341.581054688 48.10546875 l 1
 257.427734375 -0 l 1
 257.510742188 257.614257812 l 1
 29.998046875 257.697265625 l 1
 78.0205078125 341.517578125 l 1
 257.552734375 341.559570312 l 1
 257.594726562 578.385742188 l 1
 341.45703125 530.36328125 l 1
 341.499023438 341.600585938 l 1
 560.280273438 341.642578125 l 1
EndSplineSet
Validated: 1
EndChar

StartChar: comma
Encoding: 44 44 14
Width: 185
GlyphClass: 1
Flags: W
LayerCount: 2
Fore
SplineSet
57.654296875 -22.576171875 m 1
 157.731445312 -22.576171875 l 1
 80.23046875 -125.60546875 l 1
 13 -125.60546875 l 1
 57.654296875 -22.576171875 l 1
EndSplineSet
Validated: 1
EndChar

StartChar: hyphen
Encoding: 45 45 15
Width: 384
GlyphClass: 1
Flags: W
LayerCount: 2
Fore
SplineSet
333.171875 0 m 1
 4.9990234375 0.166015625 l 1
 53.021484375 83.986328125 l 1
 376.329101562 84.111328125 l 1
 333.171875 0 l 1
EndSplineSet
Validated: 1
EndChar

StartChar: period
Encoding: 46 46 16
Width: 146
GlyphClass: 1
Flags: W
LayerCount: 2
Fore
SplineSet
123.077148438 0.423828125 m 1
 23 0.423828125 l 1
 23 100.500976562 l 1
 123.077148438 100.500976562 l 1
 123.077148438 0.423828125 l 1
EndSplineSet
Validated: 1
EndChar

StartChar: slash
Encoding: 47 47 17
Width: 382
GlyphClass: 1
Flags: W
LayerCount: 2
Fore
SplineSet
113.612304688 0 m 1
 30 0 l 1
 268.322265625 699.833984375 l 1
 351.934570312 699.833984375 l 1
 113.612304688 0 l 1
EndSplineSet
Validated: 1
EndChar

StartChar: zero
Encoding: 48 48 18
Width: 318
GlyphClass: 1
Flags: W
LayerCount: 2
Fore
SplineSet
201.962890625 699.29296875 m 1
 288.444335938 699.500976562 l 1
 288.444335938 50.474609375 l 1
 201.962890625 0.5400390625 l 1
 119.846679688 0.5400390625 l 1
 119.763671875 -0 l 1
 115.481445312 0.5400390625 l 1
 29 0.748046875 l 1
 29 649.56640625 l 1
 115.481445312 699.500976562 l 1
 197.638671875 699.500976562 l 1
 197.680664062 699.833984375 l 1
 200.299804688 699.500976562 l 1
 201.962890625 699.500976562 l 1
 201.671875 699.334960938 l 1
 201.962890625 699.29296875 l 1
115.481445312 35.71484375 m 1
 197.305664062 696.798828125 l 1
 115.481445312 649.56640625 l 1
 115.481445312 35.71484375 l 1
201.961914062 50.43359375 m 1
 201.961914062 664.077148438 l 1
 120.178710938 3.201171875 l 1
 201.961914062 50.43359375 l 1
EndSplineSet
Validated: 1
EndChar

StartChar: one
Encoding: 49 49 19
Width: 300
GlyphClass: 1
Flags: W
HStem: -0.000976562 21G<195.595 230.004> 679.501 20G<108.868 178.16>
VStem: 143.522 86.4814<50.2666 599.59>
LayerCount: 2
Fore
SplineSet
143.522460938 699.500976562 m 1
 230.00390625 649.565429688 l 1
 230.00390625 -0.0009765625 l 1
 143.522460938 50.2666015625 l 1
 143.522460938 599.58984375 l 1
 57 649.56640625 l 1
 143.522460938 699.500976562 l 1
EndSplineSet
EndChar

StartChar: two
Encoding: 50 50 20
Width: 301
GlyphClass: 1
Flags: W
HStem: 0 21G<107 228.223> 679.667 20G<71.976 193.171 193.468 223.304>
VStem: 31.2119 76.4121<48.4004 313.409> 193 75.8906<408 649>
LayerCount: 2
Fore
SplineSet
193.564453125 49.9755859375 m 1
 280.170898438 49.9765625 l 1
 193.564453125 0 l 1
 107 0 l 1
 107.291015625 0.166015625 l 1
 31.2119140625 48.400390625 l 5
 31 332 l 5
 30.708984375 332.125 l 5
 193 408 l 1
 193.502929688 699.666992188 l 1
 269 649 l 1
 268.890625 387.350585938 l 1
 107.72265625 313.409179688 l 1
 107.624023438 0.373046875 l 1
 193.564453125 49.9755859375 l 1
193.170898438 699.66796875 m 1
 106.606445312 649.650390625 l 1
 20 649.650390625 l 1
 106.606445312 699.66796875 l 1
 193.170898438 699.66796875 l 1
EndSplineSet
EndChar

StartChar: three
Encoding: 51 51 21
Width: 302
GlyphClass: 1
Flags: W
LayerCount: 2
Fore
SplineSet
99.8974609375 473.818359375 m 1
 186.336914062 473.818359375 l 1
 272.818359375 423.883789062 l 1
 272.319335938 0 l 1
 185.879882812 49.8935546875 l 1
 186.336914062 423.883789062 l 1
 99.8974609375 473.818359375 l 1
103.59765625 649.899414062 m 1
 103.596679688 550.0703125 l 1
 17.1572265625 550.0703125 l 1
 17.1572265625 649.8984375 l 1
 103.596679688 699.791992188 l 1
 272.775390625 699.791992188 l 1
 272.775390625 525.374023438 l 1
 272.817382812 525.374023438 l 1
 186.294921875 476.146484375 l 1
 186.336914062 525.374023438 l 1
 186.336914062 697.671875 l 1
 103.59765625 649.899414062 l 1
99.4384765625 150.09375 m 1
 99.4384765625 50.265625 l 1
 185.877929688 0.3310546875 l 1
 99.4384765625 0.3310546875 l 1
 12.9990234375 50.265625 l 1
 12.9990234375 150.09375 l 1
 99.4384765625 150.09375 l 1
EndSplineSet
Validated: 1
EndChar

StartChar: four
Encoding: 52 52 22
Width: 315
GlyphClass: 1
Flags: W
LayerCount: 2
Fore
SplineSet
199.057617188 697.297851562 m 1
 285.2890625 647.48828125 l 1
 285.2890625 0.0009765625 l 1
 199.057617188 50.1015625 l 1
 199.057617188 697.297851562 l 1
98.1904296875 647.530273438 m 1
 98.60546875 398.938476562 l 1
 184.670898438 348.670898438 l 1
 98.439453125 348.670898438 l 1
 12.3740234375 398.938476562 l 1
 12 697.298828125 l 1
 98.1904296875 647.530273438 l 1
EndSplineSet
Validated: 1
EndChar

StartChar: five
Encoding: 53 53 23
Width: 302
GlyphClass: 1
Flags: W
LayerCount: 2
Fore
SplineSet
106.350585938 498.764648438 m 1
 191.252929688 475.98046875 l 1
 277.859375 425.671875 l 1
 277.360351562 0.0419921875 l 1
 190.75390625 50.1015625 l 1
 191.252929688 425.671875 l 1
 104.35546875 475.98046875 l 1
 19.49609375 498.764648438 l 1
 19.49609375 699.791992188 l 1
 192.999023438 699.791992188 l 1
 279.854492188 649.732421875 l 1
 192.999023438 649.732421875 l 1
 149.674804688 674.76171875 l 1
 106.1015625 649.732421875 l 1
 106.350585938 498.764648438 l 1
103.856445312 150.760742188 m 1
 103.856445312 50.3505859375 l 1
 190.75390625 0.291015625 l 1
 103.856445312 0.291015625 l 1
 17.0009765625 50.3505859375 l 1
 17.0009765625 150.760742188 l 1
 103.856445312 150.760742188 l 1
EndSplineSet
Validated: 1
EndChar

StartChar: six
Encoding: 54 54 24
Width: 312
GlyphClass: 1
Flags: W
LayerCount: 2
Fore
SplineSet
288.859375 650.0234375 m 1
 202.252929688 650.0234375 l 1
 115.60546875 700.041015625 l 1
 202.252929688 700.041015625 l 1
 288.859375 650.0234375 l 1
115.60546875 399.975585938 m 1
 202.25390625 449.952148438 l 1
 288.860351562 399.975585938 l 1
 288.860351562 49.767578125 l 1
 278.798828125 43.98828125 l 1
 202.212890625 -0.0009765625 l 1
 115.606445312 -0.0009765625 l 1
 29 50.0166015625 l 1
 29 650.396484375 l 1
 115.564453125 699.749023438 l 1
 115.564453125 50.0166015625 l 1
 116.354492188 49.5595703125 l 1
 197.014648438 352.951171875 l 1
 115.60546875 399.975585938 l 1
202.25390625 50.017578125 m 1
 202.25390625 341.2265625 l 1
 123.838867188 46.1923828125 l 1
 122.133789062 46.275390625 l 1
 158.888671875 25.029296875 l 1
 202.045898438 50.017578125 l 1
 202.25390625 50.017578125 l 1
EndSplineSet
Validated: 1
EndChar

StartChar: seven
Encoding: 55 55 25
Width: 353
GlyphClass: 1
Flags: W
LayerCount: 2
Fore
SplineSet
237.045898438 700 m 1
 323.610351562 700 l 1
 323.610351562 49.9765625 l 1
 237.045898438 -0 l 1
 237.045898438 700 l 1
64 650.0234375 m 1
 150.522460938 700 l 1
 237.044921875 700 l 1
 150.522460938 650.0234375 l 1
 150.522460938 550.112304688 l 1
 64 550.112304688 l 1
 64 650.0234375 l 1
EndSplineSet
Validated: 1
EndChar

StartChar: eight
Encoding: 56 56 26
Width: 316
GlyphClass: 1
Flags: W
LayerCount: 2
Fore
SplineSet
201.211914062 699.791992188 m 1
 287.735351562 649.7734375 l 1
 287.735351562 499.594726562 l 1
 201.170898438 449.868164062 l 1
 287.693359375 399.850585938 l 1
 287.693359375 49.9755859375 l 1
 201.12890625 -0.0009765625 l 1
 114.564453125 -0.0009765625 l 1
 28 49.9755859375 l 1
 28 399.850585938 l 1
 114.564453125 449.827148438 l 1
 28 499.803710938 l 1
 28 649.774414062 l 1
 114.564453125 699.791992188 l 1
 201.211914062 699.791992188 l 1
201.170898438 49.9755859375 m 1
 201.170898438 399.850585938 l 1
 157.888671875 424.838867188 l 1
 114.606445312 399.850585938 l 1
 114.606445312 49.9755859375 l 1
 157.888671875 24.9873046875 l 1
 201.170898438 49.9755859375 l 1
201.170898438 499.844726562 m 1
 201.12890625 507.12109375 l 1
 201.12890625 649.7734375 l 1
 157.846679688 674.76171875 l 1
 114.564453125 649.7734375 l 1
 114.564453125 499.802734375 l 1
 157.8046875 474.856445312 l 1
 197.469726562 497.848632812 l 1
 197.51171875 497.848632812 l 1
 200.962890625 499.844726562 l 1
 201.170898438 499.844726562 l 1
EndSplineSet
Validated: 1
EndChar

StartChar: nine
Encoding: 57 57 27
Width: 315
GlyphClass: 1
Flags: W
LayerCount: 2
Fore
SplineSet
199.211914062 699.791992188 m 1
 285.77734375 649.772460938 l 1
 285.77734375 49.6005859375 l 1
 199.212890625 0.2900390625 l 1
 199.212890625 649.7734375 l 1
 155.930664062 674.76171875 l 1
 112.814453125 649.7734375 l 1
 112.606445312 649.7734375 l 1
 112.606445312 349.95703125 l 1
 199.212890625 299.939453125 l 1
 112.606445312 249.962890625 l 1
 26 299.939453125 l 1
 26 650.064453125 l 1
 35.6455078125 655.594726562 l 1
 112.60546875 699.791992188 l 1
 199.211914062 699.791992188 l 1
112.606445312 149.96875 m 1
 112.606445312 49.974609375 l 1
 199.212890625 -0.001953125 l 1
 112.606445312 -0.001953125 l 1
 26 49.974609375 l 1
 26 149.96875 l 1
 112.606445312 149.96875 l 1
EndSplineSet
Validated: 5
EndChar

StartChar: colon
Encoding: 58 58 28
Width: 206
GlyphClass: 1
Flags: W
LayerCount: 2
Fore
SplineSet
194.405273438 409.684570312 m 1
 92 409.684570312 l 1
 92 512.08984375 l 1
 194.405273438 512.08984375 l 1
 194.405273438 409.684570312 l 1
194.405273438 3.7626953125 m 1
 92 3.7626953125 l 1
 92 106.16796875 l 1
 194.405273438 106.16796875 l 1
 194.405273438 3.7626953125 l 1
EndSplineSet
Validated: 1
EndChar

StartChar: semicolon
Encoding: 59 59 29
Width: 184
GlyphClass: 1
Flags: W
LayerCount: 2
Fore
SplineSet
72.6962890625 5.2177734375 m 1
 72.6962890625 105.294921875 l 1
 172.7734375 105.294921875 l 1
 172.7734375 5.2177734375 l 1
 95.2724609375 -97.8115234375 l 1
 28 -97.8115234375 l 1
 72.6962890625 5.2177734375 l 1
172.7734375 409.684570312 m 1
 70.3681640625 409.684570312 l 1
 70.3681640625 512.08984375 l 1
 172.7734375 512.08984375 l 1
 172.7734375 409.684570312 l 1
EndSplineSet
Validated: 1
EndChar

StartChar: less
Encoding: 60 60 30
Width: 598
GlyphClass: 1
Flags: W
LayerCount: 2
Fore
SplineSet
588.220703125 460.845703125 m 1
 127.583007812 272.083984375 l 1
 588.220703125 83.36328125 l 1
 582.108398438 -0 l 1
 32.328125 233.041992188 l 1
 30.58203125 232.334960938 l 1
 30.5400390625 233.790039062 l 1
 30 234.0390625 l 1
 30.291015625 272.083007812 l 1
 30 310.16796875 l 1
 30.5400390625 310.375976562 l 1
 30.58203125 311.873046875 l 1
 32.328125 311.125 l 1
 582.108398438 544.208984375 l 1
 588.220703125 460.845703125 l 1
EndSplineSet
Validated: 1
EndChar

StartChar: equal
Encoding: 61 61 31
Width: 519
GlyphClass: 1
Flags: W
LayerCount: 2
Fore
SplineSet
510.0078125 433.458984375 m 1
 466.849609375 349.34765625 l 1
 17.853515625 349.513671875 l 1
 65.8759765625 433.333984375 l 1
 510.0078125 433.458984375 l 1
7.9990234375 142.125 m 1
 56.0205078125 225.9453125 l 1
 500.15234375 226.0703125 l 1
 456.995117188 142 l 1
 7.9990234375 142.125 l 1
EndSplineSet
Validated: 1
EndChar

StartChar: greater
Encoding: 62 62 32
Width: 598
GlyphClass: 1
Flags: W
LayerCount: 2
Fore
SplineSet
566.9296875 272.083984375 m 1
 567.220703125 234.0390625 l 1
 566.680664062 233.790039062 l 1
 566.638671875 232.334960938 l 1
 564.892578125 233.041992188 l 1
 15.1123046875 0 l 1
 9 83.36328125 l 1
 469.637695312 272.083984375 l 1
 9 460.846679688 l 1
 15.1123046875 544.209960938 l 1
 564.892578125 311.125976562 l 1
 566.638671875 311.874023438 l 1
 566.680664062 310.376953125 l 1
 567.220703125 310.127929688 l 1
 566.9296875 272.083984375 l 1
EndSplineSet
Validated: 1
EndChar

StartChar: question
Encoding: 63 63 33
Width: 337
GlyphClass: 1
Flags: W
LayerCount: 2
Fore
SplineSet
155.0234375 -38.697265625 m 1
 155.189453125 57.8876953125 l 1
 238.469726562 105.951171875 l 1
 238.303710938 9.4912109375 l 1
 155.0234375 -38.697265625 l 1
320.79296875 610.454101562 m 1
 320.833007812 422.897460938 l 1
 320.875 422.897460938 l 1
 238.80078125 375.499023438 l 1
 238.551757812 375.499023438 l 1
 238.34375 196.340820312 l 1
 155.147460938 148.27734375 l 1
 155.272460938 375.499023438 l 1
 155.521484375 375.499023438 l 1
 237.63671875 422.897460938 l 1
 237.553710938 422.897460938 l 1
 237.553710938 610.828125 l 1
 154.939453125 658.517578125 l 1
 238.219726562 658.517578125 l 1
 321.5 610.454101562 l 1
 320.79296875 610.454101562 l 1
154.938476562 658.392578125 m 1
 217.512695312 622.262695312 l 1
 113.40234375 562.182617188 l 1
 29.998046875 610.329101562 l 1
 113.485351562 658.392578125 l 1
 154.938476562 658.392578125 l 1
EndSplineSet
Validated: 1
EndChar

StartChar: at
Encoding: 64 64 34
Width: 644
GlyphClass: 1
Flags: W
LayerCount: 2
Fore
SplineSet
449.26171875 474.96484375 m 1
 449.26171875 61.765625 l 1
 532.375 61.765625 l 1
 449.26171875 13.78515625 l 1
 449.26171875 11.5400390625 l 1
 364.817382812 11.5400390625 l 1
 364.817382812 12.9951171875 l 1
 363.528320312 12.9951171875 l 1
 364.817382812 13.78515625 l 1
 364.817382812 60.7265625 l 1
 280.831054688 12.2470703125 l 1
 279.916015625 12.2470703125 l 1
 279.916015625 11.4990234375 l 1
 195.471679688 11.4990234375 l 1
 195.471679688 255.684570312 l 1
 279.916015625 255.684570312 l 1
 279.916015625 60.4775390625 l 1
 280.831054688 60.9765625 l 1
 364.817382812 60.9765625 l 1
 364.817382812 523.40234375 l 1
 449.26171875 474.96484375 l 1
280.374023438 474.672851562 m 1
 280.374023438 377.173828125 l 1
 195.9296875 377.173828125 l 1
 195.9296875 474.672851562 l 1
 280.374023438 523.401367188 l 1
 364.818359375 523.401367188 l 1
 280.374023438 474.672851562 l 1
279.958007812 255.80859375 m 1
 195.513671875 255.80859375 l 1
 279.958007812 304.537109375 l 1
 364.40234375 304.537109375 l 1
 279.958007812 255.80859375 l 1
533.622070312 598.033203125 m 1
 618.025390625 549.3046875 l 1
 618.025390625 110.827148438 l 1
 533.623046875 61.765625 l 1
 533.623046875 549.3046875 l 1
 454.666992188 594.874023438 l 1
 190.8984375 594.874023438 l 1
 111.942382812 549.3046875 l 1
 111.443359375 549.3046875 l 1
 111.443359375 -37.271484375 l 1
 111.942382812 -37.271484375 l 1
 196.38671875 -86 l 1
 111.942382812 -86 l 1
 27.5400390625 -37.271484375 l 1
 27 -37.271484375 l 1
 27 549.3046875 l 1
 27.5400390625 549.3046875 l 1
 111.942382812 598.033203125 l 1
 533.622070312 598.033203125 l 1
EndSplineSet
Validated: 5
EndChar

StartChar: A
Encoding: 65 65 35
Width: 318
GlyphClass: 1
Flags: W
HStem: -4.69238 21G<28.6187 117.613 201.083 290.077>
VStem: 25.001 96.2295<-4.69238 294.001 351.697 688.571> 197.465 96.2295<-4.69336 294.001 307.662 644.572>
LayerCount: 2
Fore
SplineSet
197.464847635 644.57201424 m 1
 121.230464865 688.570755468 l 1
 121.230464865 351.697304657 l 1
 197.464847635 307.662302866 l 1
 197.464847635 644.57201424 l 1
25.0009804473 697.23046875 m 2
 25.0009804473 699.993062482 27.237432805 702.229488303 30 702.229488303 c 2
 30 702.229488303 116.231445312 702.229488303 116.330629636 702.228511741 c 2
 202.463867188 702.228511741 l 2
 203.328049631 702.228511741 204.192232073 702.006129578 204.962760937 701.561365252 c 0
 291.873608925 651.394724512 291.873608925 651.394724512 292.230846406 651.037487031 c 0
 293.206503504 650.061829933 293.694332053 648.781891529 293.694332053 647.501953125 c 0
 293.694332053 0.3056640625 293.694332053 0.3056640625 293.694332053 0.3056640625 c 2
 293.694332053 -2.45692966908 291.457879695 -4.6933554902 288.6953125 -4.6933554902 c 2
 202.463867188 -4.6933554902 l 2
 199.701273456 -4.6933554902 197.464847635 -2.45690313251 197.464847635 0.3056640625 c 2
 197.464847635 294.000980447 l 1
 121.230464865 294.000980447 l 1
 121.230464865 0.306640625 l 2
 121.230464865 -2.45595310658 118.994012507 -4.6923789277 116.231445312 -4.6923789277 c 2
 30 -4.6923789277 l 2
 27.2374062684 -4.6923789277 25.0009804473 -2.45592657001 25.0009804473 0.306640625 c 2
 25.0009804473 697.23046875 l 2
EndSplineSet
EndChar

StartChar: B
Encoding: 66 66 36
Width: 340
GlyphClass: 1
Flags: W
HStem: 680.999 20G<8.61872 97.6757>
VStem: 48.001 96.998<50.895 336.359 349.999 662.359> 222.001 95.998<6.64103 292.105 379.178 618.105>
LayerCount: 2
Fore
SplineSet
5.0009804473 696 m 0
 5.0009804473 698.762593732 7.23743280499 700.999019553 10 700.999019553 c 2
 97 700.999019553 l 2
 98.3514500131 700.999019553 98.3514500131 700.999019553 141.351450013 675.999019553 c 1
 227 675.999019553 l 2
 227.869201701 675.999019553 228.738403402 675.774046652 229.51231018 675.324100851 c 0
 275.828318121 648.396189258 315.823055134 625.248012678 316.535533906 624.535533906 c 0
 317.511191004 623.559876808 317.999019553 622.279938404 317.999019553 621 c 2
 317.999019553 394 l 2
 317.999019553 393.430864457 317.854213956 391.010021965 315.474770818 389.654292735 c 2
 237.025078556 344.95621226 l 1
 305.173075421 305.335283851 315.884504264 299.186563548 316.535533906 298.535533906 c 0
 317.511191004 297.559876808 317.999019553 296.279938404 317.999019553 295 c 2
 317.999019553 -2 l 2
 317.999019553 -4.76259373158 315.762567195 -6.9990195527 313 -6.9990195527 c 2
 140 -6.9990195527 l 2
 139.130798299 -6.9990195527 138.261596598 -6.77404665217 137.48768982 -6.32410085109 c 2
 52.6244325038 43.0150022398 l 1
 50.0206569457 43.2097217863 48.0009804473 45.3778306616 48.0009804473 48 c 2
 48.0009804473 668.121660412 l 1
 6.92712084358 692.001811345 6.92712084358 692.001811345 6.46446609407 692.464466094 c 0
 5.48880899622 693.440123192 5.0009804473 694.720061596 5.0009804473 696 c 0
222.000980447 292.104970712 m 1
 144.999019553 336.358971226 l 1
 144.999019553 50.8950292882 l 1
 222.000980447 6.64102877402 l 1
 222.000980447 292.104970712 l 1
144.999019553 349.999019553 m 1
 222.000980447 349.999019553 l 1
 222.000980447 618.104970712 l 1
 144.999019553 662.358971226 l 1
 144.999019553 349.999019553 l 1
EndSplineSet
EndChar

StartChar: C
Encoding: 67 67 37
Width: 271
GlyphClass: 1
Flags: W
HStem: -4.69238 58.1035<156.078 234.276> 646.953 58.1445<156.306 234.419>
VStem: 23.209 93.6103<44.8815 298.421 326.07 666.819>
LayerCount: 2
Fore
SplineSet
283.876949241 651.952148438 m 0
 283.876949241 649.189554706 281.640496883 646.953128885 278.877929688 646.953128885 c 2
 195.556640625 646.953128885 l 2
 194.692059954 646.953128885 193.827479282 647.17571605 193.056681721 647.620890378 c 2
 117.185332854 691.440407291 l 1
 116.819331281 298.420757898 l 1
 116.979601241 8.96467310578 l 1
 192.80732966 52.7437415872 l 2
 193.577963782 53.1886664809 194.442302204 53.4111289277 195.306640625 53.4111289277 c 2
 278.669921875 53.4111289277 l 2
 281.432515607 53.4111289277 283.668941428 51.17467657 283.668941428 48.412109375 c 0
 283.668941428 46.568619088 282.669640902 44.9462998693 281.168295908 44.0799363624 c 2
 197.805014658 -4.0255323876 l 2
 197.034616931 -4.47009674767 196.170628778 -4.6923789277 195.306640625 -4.6923789277 c 2
 111.985351562 -4.6923789277 l 2
 110.934341596 -4.6923789277 109.88333163 -4.3634494912 109.000793986 -3.70559061819 c 0
 43.8340995874 33.5560102409 25.1527934969 44.1462558787 24.4634895316 44.8355598441 c 0
 23.4878324337 45.8112169419 23.0000038848 47.091155346 23.0000043951 48.3733612227 c 2
 23.1250043951 326.069650285 l 2
 23.1250043951 329.329311942 23.1386986912 106.406983589 23.2089883016 652.035805177 c 0
 23.2090618494 652.606726182 23.3545695364 655.020774201 25.7266701438 656.377115302 c 2
 109.211216782 704.112663091 l 2
 110.093256437 704.769322607 111.143307906 705.097652365 112.193359375 705.097652365 c 2
 195.556640625 705.097652365 l 2
 196.421571699 705.097652365 197.286502774 704.874884741 198.057536665 704.429349492 c 0
 258.032022023 669.77361319 281.723854676 656.177291262 282.413463594 655.487682344 c 0
 283.389120692 654.512025246 283.876949241 653.232086842 283.876949241 651.952148438 c 0
EndSplineSet
EndChar

StartChar: D
Encoding: 68 68 38
Width: 339
GlyphClass: 1
Flags: W
HStem: -3.99902 21G<226.246 311.547> 685.002 20G<16.6197 101.951>
VStem: 54.7461 93.4853<54.1875 666.976> 221.68 93.4853<54.1875 624.561>
LayerCount: 2
Fore
SplineSet
13.0019570098 700.002929688 m 0
 13.0019570098 702.76552342 15.2384093675 705.001949241 18.0009765625 705.001949241 c 2
 101.48828125 705.001949241 l 2
 102.414521862 705.001949241 102.414521862 705.001949241 144.647707023 680.636714865 c 1
 226.678710938 680.636714865 l 2
 227.542864124 680.636714865 228.40701731 680.414347759 229.177526429 679.969613548 c 0
 289.315148325 645.258463222 313.010759147 631.675543039 313.701549531 630.984752656 c 0
 314.677206629 630.009095558 315.165035178 628.729157154 315.165035178 627.44921875 c 2
 315.165035178 0.999999902745 l 2
 315.165035178 -1.76258820315 312.928585109 -3.9990195527 310.166015625 -3.9990195527 c 2
 226.678710938 -3.9990195527 l 2
 225.814216104 -3.9990195527 224.94972127 -3.77647658407 224.178981616 -3.33139064681 c 2
 141.888802035 44.1894570098 l 1
 59.7451171875 44.1894570098 l 2
 56.9825234559 44.1894570098 54.7460976348 46.4259093675 54.7460976348 49.1884765625 c 2
 54.7460976348 672.804525927 l 1
 14.9263856058 696.006452833 14.9263856058 696.006452833 14.4654426566 696.467395782 c 0
 13.4897855587 697.44305288 13.0019570098 698.722991284 13.0019570098 700.002929688 c 0
148.231441428 666.975934933 m 1
 148.231441428 54.1874961152 l 1
 221.679691385 54.1874961152 l 1
 221.679691385 624.561115636 l 1
 148.231441428 666.975934933 l 1
EndSplineSet
EndChar

StartChar: E
Encoding: 69 69 39
Width: 259
GlyphClass: 1
Flags: W
HStem: -4.99804 34.9853<176.856 250.373> 342.465 59.7666<137.348 196.682> 642.406 59.7666<139.045 213.022>
VStem: 41.1602 96.1875<52.9391 342.465 402.231 663.613>
LayerCount: 2
Fore
SplineSet
250.355464865 347.463867188 m 0
 250.355464865 344.701273456 248.119012507 342.464847635 245.356445312 342.464847635 c 2
 137.347652365 342.464847635 l 1
 137.347652365 52.9390696581 l 1
 176.856378304 29.9873008027 l 1
 219.037109375 29.9873008027 l 2
 221.342582334 29.9873008027 265.310613118 3.91572813178 265.689830781 3.53651046843 c 0
 266.665487879 2.56085337059 267.153316428 1.28091496654 267.153316428 0.000976562499999 c 0
 267.153316428 -2.76161716908 264.91686407 -4.9980429902 262.154296875 -4.9980429902 c 2
 132.390625 -4.9980429902 l 2
 129.781609021 -4.9980429902 42.8797074791 46.2689512715 42.6236457816 46.5250129691 c 0
 41.6479886837 47.5006700669 41.1601601348 48.780608471 41.1601601348 50.060546875 c 2
 41.1601601348 668.997432515 l 1
 -0.07867038229 693.182407258 -0.07867038229 693.182407258 -0.534557343433 693.638294219 c 0
 -1.51021444128 694.613951317 -1.9980429902 695.893889721 -1.9980429902 697.173828125 c 0
 -1.9980429902 699.936421857 0.238409367494 702.172847678 3.0009765625 702.172847678 c 2
 175.46484375 702.172847678 l 2
 176.328943485 702.172847678 177.19304322 701.95050808 177.963516263 701.505828883 c 0
 228.98172503 672.060624714 264.518640707 651.653989605 265.231822968 650.940807344 c 0
 266.207480066 649.965150246 266.695308615 648.685211842 266.695308615 647.405273438 c 0
 266.695308615 644.642679706 264.458856257 642.406253885 261.696289062 642.406253885 c 2
 175.46484375 642.406253885 l 2
 174.122869173 642.406253885 174.122869173 642.406253885 137.347652365 663.612954072 c 1
 137.347652365 402.231441428 l 1
 159.125 402.231441428 l 2
 159.989099735 402.231441428 160.85319947 402.00910183 161.623672513 401.564422633 c 0
 212.64188128 372.119218464 248.178796957 351.712583355 248.891979218 350.999401094 c 0
 249.867636316 350.023743996 250.355464865 348.743805592 250.355464865 347.463867188 c 0
EndSplineSet
EndChar

StartChar: F
Encoding: 70 70 40
Width: 290
GlyphClass: 1
Flags: W
HStem: 344.749 60.0576<134.928 224.819> 669.928 35.1113<134.887 201.684>
VStem: 38.2822 96.6875<34.1445 344.749 404.807 669.928>
LayerCount: 2
Fore
SplineSet
307.848628928 649.938476562 m 0
 307.848628928 647.17588283 305.61217657 644.939457009 302.849609375 644.939457009 c 2
 216.327148438 644.939457009 l 2
 215.004613604 644.939457009 215.004613604 644.939457009 170.932347978 669.927738259 c 1
 134.886909404 669.927738259 l 1
 134.927933577 404.806636741 l 1
 186.18359375 404.806636741 l 2
 187.048064065 404.806636741 187.912534379 404.584106396 188.683257492 404.139045705 c 0
 237.470181569 375.966616787 275.691572738 354.000588823 276.408580781 353.283580781 c 0
 277.384237879 352.307923683 277.872066428 351.027985279 277.872066428 349.748046875 c 0
 277.872066428 346.985453143 275.63561407 344.749027322 272.873046875 344.749027322 c 2
 134.928441147 344.749027322 l 1
 134.969722678 49.5166015625 l 2
 134.969722678 47.6808765296 133.978803367 46.0641405749 132.487288259 45.1949890033 c 2
 45.7978351341 -5.32161255925 l 2
 45.0228550287 -5.77321722155 44.1520525143 -5.9990195527 43.28125 -5.9990195527 c 0
 40.5186562684 -5.9990195527 38.2822304473 -3.76256719501 38.2822304473 -1 c 2
 38.2822304473 672.022511532 l 1
 -3.0730381977 696.041032885 -3.0730381977 696.041032885 -3.53651046843 696.504505156 c 0
 -4.51216756628 697.480162254 -4.9999961152 698.760100658 -4.9999961152 700.040039062 c 0
 -4.9999961152 702.802632794 -2.76354375751 705.039058615 -0.000976562500002 705.039058615 c 2
 174.125976562 705.039058615 l 2
 177.446865117 705.039058615 144.459627404 704.985713683 216.332170719 704.914056111 c 0
 217.195153382 704.91319571 218.057955122 704.690570021 218.827311776 704.246179045 c 0
 268.090112498 675.791308338 305.669455257 654.189698492 306.385143281 653.474010468 c 0
 307.360800379 652.49835337 307.848628928 651.218414966 307.848628928 649.938476562 c 0
EndSplineSet
EndChar

StartChar: G
Encoding: 71 71 41
Width: 311
GlyphClass: 1
Flags: W
HStem: -4.99902 21G<114.175 201.644> 684.791 20G<114.707 201.646>
VStem: 23.002 96.6045<52.8689 391.4 408.722 665.582> 196.214 96.6465<40.8653 347.194 545.238 646.886>
LayerCount: 2
Fore
SplineSet
201.213867188 545.238285135 m 2
 198.451273456 545.238285135 196.214847635 547.474737493 196.214847635 550.237304688 c 2
 196.214847635 646.886431508 l 1
 119.606441428 691.129870074 l 1
 119.606441428 408.722207579 l 1
 198.714003488 454.408461482 l 2
 199.484777037 454.853599154 200.349322113 455.076167991 201.213867188 455.076167991 c 0
 202.078090906 455.076167991 202.942314623 454.853764585 203.712871343 454.408957772 c 0
 252.945011181 425.989516809 290.6802544 404.311711849 291.396862031 403.595104218 c 0
 292.372519129 402.61944712 292.860347678 401.339508716 292.860347678 400.059570312 c 2
 292.860347678 49.7265625 l 2
 292.860347678 49.15354068 292.714545743 46.7458067923 290.34948932 45.3885122478 c 2
 203.702028383 -4.33805025218 l 2
 202.934211898 -4.77869645253 202.074039543 -4.9990195527 201.213867188 -4.9990195527 c 2
 114.607421875 -4.9990195527 l 2
 113.743439297 -4.9990195527 112.879456718 -4.7767402411 112.109062754 -4.33218161789 c 0
 62.4461369775 24.3259893192 25.1816592097 45.724812041 24.4654426566 46.4410285941 c 0
 23.4897855587 47.4166856919 23.0019570098 48.696624096 23.0019570098 49.9765625 c 2
 23.0019570098 650.440429688 l 2
 23.0019570098 651.009565481 23.1467433869 653.43020429 25.5259426314 654.785987029 c 2
 112.132387944 704.138526091 l 2
 112.89687464 704.574167565 113.752148258 704.791988303 114.706606199 704.791011741 c 2
 201.213867188 704.791011741 l 2
 202.078090906 704.791011741 202.942314623 704.568608335 203.712871343 704.123801522 c 0
 252.945011181 675.704360559 290.6802544 654.026555599 291.396862031 653.309947968 c 0
 292.372519129 652.33429087 292.860347678 651.054352466 292.860347678 649.774414062 c 0
 292.860347678 649.091997344 292.721675803 648.409580626 292.444332053 647.773280482 c 2
 292.444332053 550.237304688 l 2
 292.444332053 547.474710956 290.207879695 545.238285135 287.4453125 545.238285135 c 2
 201.213867188 545.238285135 l 2
196.213871072 347.193841341 m 1
 119.606441428 391.400435685 l 1
 119.606441428 52.8688633276 l 1
 122.594250368 51.1484793054 l 1
 122.594250368 51.1484793054 149.418720425 35.667752021 157.844906777 30.8048983863 c 1
 193.002143436 51.1392302605 193.002143436 51.1392302605 196.213871072 53.0146353769 c 1
 196.213871072 347.193841341 l 1
122.594250723 51.1484791008 m 1
 122.594250723 51.1484791008 122.594250368 51.1484793054 122.594250723 51.1484791008 c 1
EndSplineSet
EndChar

StartChar: H
Encoding: 72 72 42
Width: 336
GlyphClass: 1
Flags: W
HStem: -5.77246 21G<43.873 45.6716> 684.685 20G<305.251 307.05>
VStem: 40.4492 96.6875<34.0016 292.88 350.785 653.073> 213.786 96.6875<-4.50815 0.267578 0.477497 292.88 306.539 664.943>
LayerCount: 2
Fore
SplineSet
-2.9990195527 674.737304688 m 0
 -2.9990195527 677.49989842 -0.762567195006 679.736324241 2 679.736324241 c 2
 88.7724609375 679.736324241 l 2
 91.0765649448 679.736324241 135.291903346 653.49986759 135.673229218 653.118541718 c 0
 136.648886316 652.14288462 137.136714865 650.862946216 137.136714865 649.583007812 c 2
 137.136714865 350.785150262 l 1
 213.786136697 306.538978438 l 1
 213.786136697 649.666992188 l 2
 213.786136697 650.241498467 213.932291407 652.643913506 216.291471465 654.00186776 c 2
 303.188932403 704.020422447 l 2
 303.958145961 704.463185101 304.820381575 704.684566428 305.682617188 704.684566428 c 0
 308.417108224 704.684566428 310.681687607 702.484596648 310.681593181 699.664598271 c 0
 310.473609568 649.663314502 310.473609568 649.663314502 310.473609568 481.295594023 c 0
 310.473609568 288.880663468 310.473628928 0.267578125 310.473628928 0.267578125 c 0
 310.473628928 -2.47565440472 308.262335103 -4.7394702101 305.460139186 -4.73142064427 c 0
 218.770686061 -4.48239720677 218.770686061 -4.48239720677 218.770686061 -4.48239720677 c 2
 216.013937222 -4.47447819186 213.786136697 -2.24049221365 213.786136697 0.5166015625 c 2
 213.786136697 292.879886697 l 1
 137.136714865 292.879886697 l 1
 137.136714865 49.2861328125 l 2
 137.136714865 48.7110330236 136.990368956 46.3102145237 134.632903381 44.9521344087 c 2
 47.7354424436 -5.10743590384 l 2
 46.9658440238 -5.55078333641 46.1030391994 -5.7724570527 45.240234375 -5.7724570527 c 0
 42.5057548293 -5.7724570527 40.2411640405 -3.57249160187 40.2412583085 -0.752506468786 c 2
 40.4492226348 49.2861328125 l 1
 40.4492226348 646.698574029 l 1
 -1.0695988 670.735835676 -1.0695988 670.735835676 -1.53553390593 671.201770782 c 0
 -2.51119100378 672.17742788 -2.9990195527 673.457366284 -2.9990195527 674.737304688 c 0
EndSplineSet
EndChar

StartChar: I
Encoding: 73 73 43
Width: 158
GlyphClass: 1
Flags: W
HStem: -4.99804 21G<27.6327 117.944> 684.792 20G<115.882 117.681>
VStem: 24.334 97.2275<-4.99804 664.985>
LayerCount: 2
Fore
SplineSet
29 -4.9980429902 m 2
 26.265335687 -4.9980429902 24.0009297543 -2.79788696856 24.0010238623 0.0218904585222 c 2
 24.2090316748 50.122476396 l 2
 24.2090316748 50.4895698764 24.25220797 50.8565270297 24.3339882598 51.2161691317 c 2
 24.3339882598 649.69140625 l 2
 24.3339882598 650.266208325 24.4801983982 652.667404263 26.8380158776 654.025529156 c 2
 113.818484627 704.127091656 l 2
 114.588028451 704.570356087 115.450752507 704.791988303 116.313476562 704.791988303 c 0
 119.048140875 704.791988303 121.312546808 702.591832281 121.3124527 699.772054854 c 2
 121.104487056 649.695926381 l 1
 121.561519553 0.000976562500037 l 2
 121.561519553 -2.76161716908 119.325067195 -4.9980429902 116.5625 -4.9980429902 c 2
 29 -4.9980429902 l 2
EndSplineSet
EndChar

StartChar: J
Encoding: 74 74 44
Width: 314
GlyphClass: 1
Flags: W
HStem: -4.99902 21G<110.883 198.063> 684.791 20G<148.725 237.56>
VStem: 20.001 96.3135<52.6987 230.1> 192.839 96.3144<40.7373 676.09>
LayerCount: 2
Fore
SplineSet
145.107425759 699.791992188 m 0
 145.107425759 702.55458592 147.343878117 704.791011741 150.106445312 704.791011741 c 2
 236.421875 704.791011741 l 2
 238.698788632 704.791011741 287.274529317 676.551421308 287.689830781 676.136119844 c 0
 288.665487879 675.160462746 289.153316428 673.880524342 289.153316428 672.600585938 c 2
 289.153316428 49.8095703125 l 2
 289.153316428 47.9481391144 288.134710788 46.3140849611 286.612590126 45.4545163142 c 0
 275.074510482 38.9390167903 275.074510482 38.9390167903 200.130228076 -4.33159887777 c 0
 199.359579389 -4.77654599439 198.495219382 -4.9990195527 197.630859375 -4.9990195527 c 2
 111.315429688 -4.9990195527 l 2
 110.451434 -4.9990195527 109.587438311 -4.77673349532 108.817035498 -4.33216138055 c 0
 58.0150238086 24.9838761157 22.1783098667 45.5601926339 21.4644660941 46.2740364066 c 0
 20.4888089962 47.2496935044 20.0009804473 48.5296319085 20.0009804473 49.8095703125 c 2
 20.0009804473 225.100585938 l 2
 20.0009804473 227.86317967 22.237432805 230.099605491 25 230.099605491 c 2
 111.315429688 230.099605491 l 2
 114.07802342 230.099605491 116.314449241 227.863153133 116.314449241 225.100585938 c 2
 116.314449241 52.6986649496 l 1
 154.471243382 30.6790527715 l 1
 189.660629118 51.0091965906 189.660629118 51.0091965906 192.838871072 52.8788728865 c 1
 192.838871072 669.62525603 l 1
 147.04732421 695.780045478 147.04732421 695.780045478 146.570911406 696.256458282 c 0
 145.595254308 697.23211538 145.107425759 698.512053784 145.107425759 699.791992188 c 0
EndSplineSet
EndChar

StartChar: K
Encoding: 75 75 45
Width: 373
GlyphClass: 1
Flags: W
HStem: 685.164 20G<203.762 292.182>
VStem: 25.8897 95.7717<-4.62398 391.587 404.142 705.064> 200.144 96.6045<45.487 346.237 433.564 645.189>
LayerCount: 2
Fore
SplineSet
200.144535135 700.165039062 m 2
 200.144535135 702.927632794 202.380987493 705.164058615 205.143554688 705.164058615 c 2
 291.75 705.164058615 l 2
 292.614319724 705.164058615 293.478639449 704.941605792 294.249260954 704.496700147 c 0
 343.712551329 675.939883422 381.134034755 654.439962744 381.849987031 653.724010468 c 0
 382.825644129 652.74835337 383.313472678 651.468414966 383.313472678 650.188476562 c 0
 383.313472678 647.42588283 381.07702032 645.189457009 378.314453125 645.189457009 c 2
 296.749019553 645.189457009 l 1
 296.749019553 448.454101562 l 2
 296.749019553 447.885566196 296.604422636 445.463280866 294.223456551 444.107645736 c 2
 215.2146153 399.122897131 l 1
 284.871097422 358.874869094 294.629960261 353.315130989 295.284557344 352.660533906 c 0
 296.260214442 351.684876808 296.748042991 350.404938404 296.748042991 349.125 c 2
 296.748042991 51.8650290947 l 1
 355.037316126 18.2126764629 381.153468458 3.23107591621 381.849010468 2.53553390593 c 0
 382.824667566 1.55987680809 383.312496115 0.279938404043 383.312496115 -1 c 0
 383.312496115 -3.76259373158 381.076043757 -5.9990195527 378.313476562 -5.9990195527 c 2
 291.749023438 -5.9990195527 l 2
 288.997123472 -5.9990195527 201.942457345 45.1056154677 201.607044219 45.4410285941 c 0
 200.631387121 46.4166856919 200.143558572 47.696624096 200.143558622 48.9772672492 c 2
 200.1851467 346.237250801 l 1
 121.661339078 391.586885788 l 1
 120.60446994 0.173898511338 l 2
 120.597074455 -2.5650297094 118.386497636 -4.81903252728 115.591893489 -4.81150126054 c 0
 28.9854481762 -4.57810282304 28.9854481762 -4.57810282304 28.9854481762 -4.57810282304 c 2
 26.2464968674 -4.57072153688 23.9999825753 -2.36014867988 24.0000222477 0.434499926158 c 2
 25.8896706852 700.268484301 l 2
 25.8970661698 703.007412521 28.1076328414 705.253923592 30.9022471362 705.253884073 c 2
 117.508692449 705.020485636 l 2
 120.255380158 705.0130835 122.494118378 702.793787288 122.494118378 700.007882886 c 2
 121.695238535 404.141597678 l 1
 200.148789838 404.141597678 l 1
 200.186527392 448.453261196 l 1
 200.144535135 700.165039062 l 2
EndSplineSet
EndChar

StartChar: L
Encoding: 76 76 46
Width: 264
GlyphClass: 1
Flags: W
HStem: -3.83203 109.867<174.618 248.096>
VStem: 76.4356 96.5625<85.7514 679.17>
LayerCount: 2
Fore
SplineSet
33.1533241973 700.91796875 m 0
 33.1533241973 703.680562482 35.389776555 705.916988303 38.15234375 705.916988303 c 2
 124.716796875 705.916988303 l 2
 127.021938221 705.916988303 171.153451394 679.597303918 171.534557344 679.216197968 c 0
 172.510214442 678.24054087 172.998042991 676.960602466 172.998042991 675.680664062 c 2
 172.998042991 85.7514482191 l 1
 208.108048846 106.035152365 208.108048846 106.035152365 209.452148438 106.035152365 c 0
 210.316597356 106.035152365 211.181046273 105.812633035 211.95175495 105.367594377 c 0
 260.758488318 77.184593707 298.96110101 55.2300839891 299.678112031 54.5130729684 c 0
 300.653769129 53.5374158706 301.141597678 52.2574774665 301.141597678 50.9775390625 c 0
 301.141597678 50.4030331596 300.995458817 48.0007841357 298.636478113 46.6427873695 c 2
 211.822024988 -3.33377513051 l 2
 211.052757047 -3.77662037031 210.190441024 -3.9980429902 209.328125 -3.9980429902 c 0
 166.294921875 -3.9980429902 166.294921875 -3.9980429902 166.294921875 -3.9980429902 c 2
 165.863830515 -3.9980429902 165.432739155 -3.94270444854 165.013273412 -3.8320273652 c 2
 81.5595703125 -3.8320273652 l 2
 80.5364324546 -3.8320273652 79.5132945968 -3.52031259467 78.6455780347 -2.89688305359 c 0
 8.75495682363 47.317530052 8.75495682363 47.317530052 8.46446609407 47.6080207816 c 0
 7.48880899622 48.5836778794 7.0009804473 49.8636162835 7.0009804473 51.1435546875 c 0
 7.0009804473 53.9061484191 9.23743280499 56.1425742402 12 56.1425742402 c 2
 76.4355507598 56.1425742402 l 1
 76.4355507598 672.806526598 l 1
 35.0772010057 696.922043682 35.0772010057 696.922043682 34.6168098441 697.382434844 c 0
 33.6411527462 698.358091942 33.1533241973 699.638030346 33.1533241973 700.91796875 c 0
EndSplineSet
EndChar

StartChar: M
Encoding: 77 77 47
Width: 529
GlyphClass: 1
Flags: W
HStem: -4.95703 20.958G<28.826 30.207 217.007 218.393 404.147 405.534> 685.332 20G<28.6177 30.6709 124.208 218.852 311.348 405.752>
VStem: 25.208 103.839<-4.79981 643.262> 213.389 103.839<-4.78909 643.278> 400.529 103.839<-4.78909 649.647>
LayerCount: 2
Fore
SplineSet
25.0000038848 700.333007812 m 2
 25.0000038848 703.095601544 27.2364562425 705.332027365 29.9990234375 705.332027365 c 0
 31.3427936699 705.332027365 31.3427936699 705.332027365 77.439453125 678.708713293 c 1
 123.53611258 705.332027365 123.53611258 705.332027365 124.879882812 705.332027365 c 2
 218.1796875 705.332027365 l 2
 219.523338209 705.332027365 219.523338209 705.332027365 265.119974768 679.00022587 c 1
 310.675822126 705.332027365 310.675822126 705.332027365 312.020507812 705.332027365 c 2
 405.3203125 705.332027365 l 2
 406.184610766 705.332027365 407.048909032 705.109585588 407.819516059 704.664702033 c 0
 411.672434238 702.44035178 501.921309121 650.468118065 502.696666718 649.692760468 c 0
 503.671911652 648.717515534 504.160152104 647.438246326 504.160152104 646.158848684 c 2
 504.368160178 0.2080078125 l 2
 504.368160178 -2.5504010006 502.138326373 -4.78488593075 499.3803064 -4.79099936518 c 2
 499.3803064 -4.79099936518 405.539486087 -4.99900717768 405.528320312 -4.9990195527 c 0
 402.766273111 -4.9990195527 400.530121314 -2.76344041785 400.529300981 -0.00149615716104 c 2
 400.323872031 691.648849466 l 1
 317.020454918 643.277604553 l 1
 317.227535178 0.2080078125 l 2
 317.227535178 -2.5504010006 314.997701373 -4.78488593075 312.2396814 -4.79099936518 c 2
 312.2396814 -4.79099936518 218.398861087 -4.99900717768 218.387695312 -4.9990195527 c 0
 215.625648111 -4.9990195527 213.389496314 -2.76344041785 213.388675981 -0.00149615716104 c 2
 213.183232781 691.696827322 l 1
 128.839796009 643.26160209 l 1
 129.046871115 0.2080078125 l 2
 129.046871115 -2.55132201468 126.815625828 -4.78612333141 124.056763222 -4.79100385731 c 0
 30.20703125 -4.9570273652 30.20703125 -4.9570273652 30.20703125 -4.9570273652 c 2
 27.4449840703 -4.9570273652 25.2088323013 -2.7214482708 25.2080119195 0.0404959406199 c 2
 25.0000038848 700.333007812 l 2
EndSplineSet
EndChar

StartChar: N
Encoding: 78 78 48
Width: 322
GlyphClass: 1
Flags: W
VStem: 25.001 97.1449<-6.79011 649.497> 199.876 97.1445<-6.79004 651.596>
LayerCount: 2
Fore
SplineSet
25.0009804473 698.415039062 m 2
 25.0009804473 701.177632794 27.237432805 703.414058615 30 703.414058615 c 0
 31.3421865608 703.414058615 31.3421865608 703.414058615 74.3862964842 678.587799531 c 1
 116.78480629 703.414058615 116.78480629 703.414058615 118.14453125 703.414058615 c 2
 204.791992188 703.414058615 l 2
 205.656256707 703.414058615 206.520521226 703.191634208 207.291105479 702.746785395 c 0
 254.387582453 675.558568404 294.753318927 652.362670759 295.474010468 651.641979218 c 0
 296.449504087 650.666485599 296.937496074 649.386812635 296.937496074 648.107088703 c 2
 297.020503928 -1.79296875 l 2
 297.020503928 -4.55097986457 294.791254342 -6.78539155581 292.033507867 -6.79197395344 c 2
 292.033507867 -6.79197395344 204.887023492 -6.99998176594 204.875 -6.9999961152 c 0
 202.112545041 -6.9999961152 199.876307842 -4.7638129052 199.875980483 -2.00157354979 c 2
 199.7939964 689.776262407 l 1
 129.684257549 649.498885711 l 1
 129.684257549 649.498885711 125.129283498 646.90155107 122.145875149 645.200338583 c 1
 122.228511741 -1.79296875 l 2
 122.228511741 -4.55194108831 119.997772942 -6.78672381842 117.239088413 -6.79197916222 c 2
 117.239088413 -6.79197916222 30.0926040374 -6.95799478722 30.0830078125 -6.9580039277 c 0
 27.3205528616 -6.9580039277 25.0843156736 -4.72182073384 25.0839882952 -1.95958139808 c 0
 25.0009804473 698.415039062 25.0009804473 698.415039062 25.0009804473 698.415039062 c 2
EndSplineSet
EndChar

StartChar: O
Encoding: 79 79 49
Width: 318
GlyphClass: 1
Flags: W
HStem: -4.73339 21G<28.9855 202.436> 684.433 20G<115.09 202.243>
VStem: 24.001 96.5205<8.93045 646.612> 197.005 96.5205<53.1293 690.772>
LayerCount: 2
Fore
SplineSet
197.004886697 53.1292693624 m 1
 197.004886697 690.772494231 l 1
 120.521480491 646.611676609 l 1
 120.521480491 8.93045056711 l 1
 197.004886697 53.1292693624 l 1
293.525386741 699.434570312 m 2
 293.525386741 50.2421875 l 2
 293.525386741 48.3993525157 292.526815199 46.7776325628 291.026530526 45.9110475173 c 2
 204.504069588 -4.06551498266 l 2
 203.733220465 -4.51076802935 202.868563358 -4.7333945527 202.00390625 -4.7333945527 c 2
 115.507962822 -4.7333945527 l 1
 28.9855018835 -4.48435025147 l 2
 26.228759764 -4.47641597185 24.0009804473 -2.24243019743 24.0009804473 0.5146484375 c 2
 24.0009804473 649.499023438 l 2
 24.0009804473 651.342430946 25.0001888692 652.964674454 26.501399888 653.831065982 c 2
 113.023860826 703.765636294 l 2
 113.794315601 704.210287633 114.658388269 704.432613303 115.522460938 704.432613303 c 2
 202.00390625 704.432613303 l 2
 202.481321065 704.432613303 202.95873588 704.364742833 203.4203602 704.229001893 c 2
 288.51425698 704.433575308 l 2
 291.310021619 704.433606806 293.525386741 702.180944415 293.525386741 699.434570312 c 2
EndSplineSet
EndChar

StartChar: P
Encoding: 80 80 50
Width: 313
GlyphClass: 1
Flags: W
HStem: -4.99804 21G<42.0669 131.477> 684.792 20G<-1.38128 87.4464>
VStem: 38.4492 96.6455<-4.99804 341.503 355.041 666.403> 211.952 96.6463<355.041 622.023>
LayerCount: 2
Fore
SplineSet
-4.9990195527 699.79296875 m 0
 -4.9990195527 702.555562482 -2.76256719501 704.791988303 -1.7763568394e-15 704.791988303 c 2
 86.771484375 704.791988303 l 2
 88.1213576823 704.791988303 88.1213576823 704.791988303 130.873706164 679.969722678 c 1
 216.91015625 679.969722678 l 2
 217.7743375 679.969722678 218.63851875 679.747341129 219.40904681 679.30257803 c 0
 306.728357981 628.811459831 306.728357981 628.811459831 307.093151094 628.446666718 c 0
 308.068808192 627.47100962 308.556455165 626.191071203 308.556620662 624.91113281 c 0
 308.598628928 300.024414062 308.598628928 300.024414062 308.598628928 300.024414062 c 2
 308.598628928 297.26182033 306.36217657 295.025394509 303.599609375 295.025394509 c 2
 216.952148438 295.025394509 l 2
 216.08792472 295.025394509 215.223701003 295.247797915 214.453144283 295.692604728 c 2
 135.094722678 341.502557029 l 1
 135.094722678 0.000976562500002 l 2
 135.094722678 -2.76161716908 132.85827032 -4.9980429902 130.095703125 -4.9980429902 c 2
 43.4482421875 -4.9980429902 l 2
 40.6856484559 -4.9980429902 38.4492226348 -2.76159063251 38.4492226348 0.000976562499998 c 2
 38.4492226348 671.754238211 l 1
 -3.06959879606 695.791499734 -3.06959879606 695.791499734 -3.53553390593 696.257434844 c 0
 -4.51119100378 697.233091942 -4.9990195527 698.513030346 -4.9990195527 699.79296875 c 0
135.094722678 355.041011741 m 1
 211.952365118 355.041011741 l 1
 211.911577798 622.023423295 l 1
 135.094722678 666.40347458 l 1
 135.094722678 355.041011741 l 1
EndSplineSet
EndChar

StartChar: Q
Encoding: 81 81 51
Width: 322
GlyphClass: 1
Flags: W
HStem: 684.92 20G<116.213 204.53>
VStem: 24.001 97.6435<54.075 650.927> 199.292 97.6435<-164.889 -4.4121 9.24749 691.257>
LayerCount: 2
Fore
SplineSet
199.291996072 691.257273849 m 1
 129.487470323 650.929275957 l 1
 129.487470323 650.929275957 124.710951626 648.186199112 121.644527365 646.42519197 c 1
 121.644527365 54.0750208999 l 1
 199.291996072 9.24749141662 l 1
 199.291996072 691.257273849 l 1
28.9856876537 -4.16306172022 m 2
 26.2289008368 -4.15522897959 24.0009804473 -1.92124185296 24.0009804473 0.8359375 c 2
 24.0009804473 649.321289062 l 2
 24.0009804473 651.164469137 24.9999358432 652.786504648 26.5007788203 653.65297311 c 2
 114.146286632 704.252582486 l 2
 114.916898104 704.697472823 115.781202958 704.919917991 116.645507812 704.919917991 c 2
 204.291015625 704.919917991 l 2
 204.768481613 704.919917991 205.245947602 704.85203297 205.707618017 704.716262929 c 2
 291.924568403 704.920880366 l 2
 294.719888159 704.920911062 296.935542991 702.668476912 296.935542991 699.921875 c 2
 296.935542991 -211.999023438 l 2
 296.935542991 -214.76161717 294.699090633 -216.998042991 291.936523438 -216.998042991 c 0
 291.072218584 -216.998042991 290.20791373 -216.775597823 289.437302258 -216.330707486 c 0
 244.599585397 -190.444943171 201.480257181 -165.659723429 200.755481719 -164.934947968 c 0
 199.779824621 -163.95929087 199.291996072 -162.679352466 199.291996072 -161.399414062 c 2
 199.291996072 -4.41210433069 l 1
 171.738396454 -4.41210433069 144.184796836 -4.41208515274 116.631197218 -4.41208515274 c 0
 116.631197218 -4.41204450428 28.9856876537 -4.16306172022 28.9856876537 -4.16306172022 c 2
EndSplineSet
EndChar

StartChar: R
Encoding: 82 82 52
Width: 347
GlyphClass: 1
Flags: W
HStem: -4.8164 21G<60.191 62.0046 310.771 313.25> 685.099 20G<15.6197 101.168>
VStem: 56.7813 93.3613<33.1413 328.422 342.084 665.278> 223.492 93.3764<45.5466 286.059 369.715 623.053>
LayerCount: 2
Fore
SplineSet
61.572265625 -4.8164023652 m 0
 58.8096718934 -4.8164023652 56.5732460723 -2.57995000751 56.5732460723 0.1826171875 c 2
 56.5732460723 48.37109375 l 2
 56.5732460723 48.8536352388 56.6425820098 49.3361767275 56.7812538848 49.8024135452 c 2
 56.7812538848 671.075460508 l 1
 13.9245768572 696.104941268 13.9245768572 696.104941268 13.4654426566 696.564075469 c 0
 12.4897855587 697.539732567 12.0019570098 698.819670971 12.0019570098 700.099609375 c 0
 12.0019570098 702.862203107 14.2384093675 705.098628928 17.0009765625 705.098628928 c 2
 100.48828125 705.098628928 l 2
 101.848213388 705.098628928 101.848213388 705.098628928 146.4969571 678.950109309 c 1
 146.4969571 678.950109309 227.822117402 679.236293051 227.83984375 679.236324241 c 0
 228.703831903 679.236324241 229.567820056 679.014042061 230.338217783 678.569477701 c 0
 290.961191638 643.58649082 314.04891799 630.35711076 314.738658906 629.667369844 c 0
 315.714316004 628.691712746 316.202144553 627.411774342 316.202144553 626.131835938 c 2
 316.202144553 384.940429688 l 2
 316.202144553 383.102149001 315.208391155 381.483073803 313.712747554 380.614767391 c 2
 238.610628102 337.013703683 l 1
 313.04695634 294.033158064 314.776936136 293.101748862 315.404674531 292.474010468 c 0
 316.380331629 291.49835337 316.868160178 290.218414966 316.868160178 288.938476562 c 2
 316.868160178 0.1826171875 l 2
 316.868160178 -2.57997654408 314.63170782 -4.8164023652 311.869140625 -4.8164023652 c 0
 309.672836404 -4.8164023652 224.124662457 45.0991916056 223.723255156 45.5005989066 c 0
 222.747598058 46.4762560044 222.259769509 47.7561944085 222.259837567 49.0623177918 c 2
 223.491804772 286.059235115 l 1
 150.142574241 328.422101941 l 1
 150.142574241 48.3291015625 l 2
 150.142574241 46.1331888917 148.723738659 44.2450250295 146.716238861 43.5824307102 c 2
 64.0722245294 -4.14864087219 l 2
 63.3014269676 -4.59381520087 62.4368462963 -4.8164023652 61.572265625 -4.8164023652 c 0
150.142574241 342.083980491 m 1
 223.173832009 342.083980491 l 1
 223.173832009 623.052945236 l 1
 150.142574241 665.278143242 l 1
 150.142574241 342.083980491 l 1
EndSplineSet
EndChar

StartChar: S
Encoding: 83 83 53
Width: 307
GlyphClass: 1
Flags: W
HStem: -4.73437 59.9746<78.919 155.818> 645.166 59.9326<165.894 243.048>
VStem: 26.001 96.9785<405.503 665.582> 198.756 96.9785<34.8051 268.013>
LayerCount: 2
Fore
SplineSet
26.2089882598 50.2412109375 m 0
 26.2089882598 53.0038046691 28.4454406175 55.2402304902 31.2080078125 55.2402304902 c 2
 117.73046875 55.2402304902 l 2
 118.599145571 55.2402304902 119.467822393 55.0155292138 120.241376822 54.5661266609 c 2
 198.755863259 8.9525159043 l 1
 198.755863259 258.992340579 l 1
 27.9273435592 358.282838629 27.9273435592 358.282838629 27.4644660941 358.745716094 c 0
 26.4888089962 359.721373192 26.0009804473 361.001311596 26.0009804473 362.28125 c 2
 26.0009804473 650.372070312 l 2
 26.0009804473 650.943004013 26.1462405572 653.357720527 28.5189575654 654.714198162 c 2
 115.420242015 704.395491154 l 2
 116.206095233 704.86424967 117.093281992 705.098628928 117.98046875 705.098628928 c 2
 203.962890625 705.098628928 l 2
 204.826963294 705.098628928 205.691035962 704.876303258 206.461490737 704.431651919 c 0
 256.363242027 675.631933539 293.305333584 654.416124852 294.020885468 653.700572968 c 0
 294.996542566 652.72491587 295.484371115 651.444977466 295.484371115 650.165039062 c 0
 295.484371115 647.40244533 293.247918757 645.166019509 290.485351562 645.166019509 c 2
 203.962890625 645.166019509 l 2
 203.094459431 645.166019509 202.226028237 645.390593731 201.452638767 645.839742173 c 2
 122.979488303 691.413278764 l 1
 122.979488303 414.512601333 l 1
 293.599968367 315.347076007 293.599968367 315.347076007 294.062877656 314.884166718 c 0
 295.038534754 313.90850962 295.526363303 312.628571216 295.526363303 311.348632812 c 2
 295.526363303 249.98570917 l 1
 295.734371115 50.033203125 l 2
 295.734371115 49.4619705491 295.589073633 47.0486766428 293.217959897 45.6919708746 c 2
 206.237491147 -4.07658381294 l 2
 205.471081537 -4.51510868112 204.612982174 -4.7343711152 203.754882812 -4.7343711152 c 0
 117.73046875 -4.7343711152 117.73046875 -4.7343711152 117.73046875 -4.7343711152 c 2
 116.865811642 -4.7343711152 116.001154535 -4.51174459185 115.230305412 -4.06649154515 c 0
 65.9675046876 24.3883791631 28.3881619308 45.9899890074 27.6724739066 46.7056770316 c 0
 26.6968168087 47.6813341294 26.2089882598 48.9612725335 26.2089882598 50.2412109375 c 0
EndSplineSet
EndChar

StartChar: T
Encoding: 84 84 54
Width: 422
GlyphClass: 1
Flags: W
HStem: 596.17 107.081<23.7997 101.408 320.983 397.994>
VStem: 164.048 95.3154<-5.99902 647.499>
LayerCount: 2
Fore
SplineSet
169.046875 -5.9990195527 m 2
 166.284281268 -5.9990195527 164.047855447 -3.76256719501 164.047855447 -1 c 2
 164.047855447 647.499081141 l 1
 158.362679847 650.776553195 l 1
 64.8989597161 596.836884865 l 2
 64.1285127687 596.392245461 63.2644516969 596.169925759 62.400390625 596.169925759 c 0
 61.5359857789 596.169925759 60.6715809329 596.3924224 59.9009019914 596.837415682 c 0
 6.10560819598 627.899045927 -25.8290665301 646.237490906 -26.5355339059 646.943958282 c 0
 -27.5111910038 647.91961538 -27.9990195527 649.199553784 -27.9990195527 650.479492188 c 0
 -27.9990195527 651.054294702 -27.8527923922 653.455668829 -25.4947609056 654.813748161 c 2
 57.4525047194 702.586209098 l 2
 58.221990181 703.029384818 59.084627903 703.250972678 59.947265625 703.250972678 c 2
 362.215820312 703.250972678 l 2
 363.078112599 703.250972678 363.940404886 703.029562248 364.709656774 702.586741387 c 0
 427.660107815 666.349231504 448.055269719 654.700368406 448.741588594 654.014049531 c 0
 449.717245692 653.038392433 450.205074241 651.758454029 450.205074241 650.478515625 c 0
 450.205074241 648.635098733 449.205855377 647.012846642 447.70462917 646.14645829 c 2
 362.262246357 596.835911415 l 2
 361.49179805 596.391269936 360.627734962 596.168949197 359.763671875 596.168949197 c 0
 358.899561933 596.168949197 358.035451991 596.391294048 357.264972058 596.83598375 c 2
 264.383872731 650.44317924 l 1
 259.363277365 647.547566397 l 1
 259.363277365 -1 l 2
 259.363277365 -3.76259373158 257.126825007 -5.9990195527 254.364257812 -5.9990195527 c 2
 169.046875 -5.9990195527 l 2
EndSplineSet
EndChar

StartChar: U
Encoding: 85 85 55
Width: 312
GlyphClass: 1
Flags: W
HStem: -4.99902 21G<28.6187 114.461> 685.165 19.876G<28.6187 115.41 196.675 283.466>
VStem: 25.001 94.0264<53.5205 705.165> 193.058 94.0264<53.5205 705.041>
LayerCount: 2
Fore
SplineSet
25.0009804473 700.166015625 m 2
 25.0009804473 702.928609357 27.237432805 705.165035178 30 705.165035178 c 2
 114.028320312 705.165035178 l 2
 116.790914044 705.165035178 119.027339865 702.92858282 119.027339865 700.166015625 c 2
 119.027339865 53.5205039277 l 1
 193.057621072 53.5205039277 l 1
 193.057621072 700.041992188 l 2
 193.057621072 702.80458592 195.29407343 705.041011741 198.056640625 705.041011741 c 2
 282.084960938 705.041011741 l 2
 284.84755467 705.041011741 287.083980491 702.804559383 287.083980491 700.041992188 c 2
 287.083980491 48.521484375 l 2
 287.083980491 45.7588906434 284.847528133 43.5224648223 282.084960938 43.5224648223 c 2
 199.400186535 43.5224648223 l 1
 116.527930705 -4.33145932346 l 2
 115.75722105 -4.77649947629 114.892770681 -4.9990195527 114.028320312 -4.9990195527 c 2
 30 -4.9990195527 l 2
 27.2374035465 -4.9990195527 25.0009804473 -2.76256587734 25.0009804473 4.31345427922e-06 c 2
 25.0009804473 700.166015625 l 2
EndSplineSet
EndChar

StartChar: V
Encoding: 86 86 56
Width: 310
GlyphClass: 1
Flags: W
VStem: 24 93.9023<366.76 656.469> 191.81 93.8985<195.982 656.552>
LayerCount: 2
Fore
SplineSet
285.708003928 1.9990234375 m 2
 285.708003928 -0.763570294085 283.47155157 -2.9999961152 280.708984375 -2.9999961152 c 0
 279.841120195 -2.9999961152 278.973256016 -2.77571505532 278.200247518 -2.32715293556 c 0
 222.562203114 29.9585453754 193.965155746 46.4559639415 193.270130156 47.1509895316 c 0
 192.740707998 47.6804116892 192.740707998 47.6804116892 24.5852174491 363.368531144 c 0
 24.1950750729 364.100968203 24.0000038848 364.910347383 24.0000039242 365.720356681 c 2
 24.0419961117 701.417622307 l 2
 24.0423416642 704.180065752 26.2787906528 706.416011741 29.041015625 706.416011741 c 0
 29.9056365596 706.416011741 30.7702574941 706.193403844 31.5410822163 705.748188051 c 0
 90.1859852957 671.875848107 115.744896873 657.208983439 116.438854218 656.515026094 c 0
 117.414511316 655.539368996 117.902339865 654.259430592 117.902339865 652.979492188 c 2
 117.902339865 366.759612546 l 1
 191.809534761 195.981751407 l 1
 191.849613275 701.501375932 l 2
 191.849832291 704.263874422 194.086282524 706.499996115 196.848632812 706.499996115 c 0
 197.713283962 706.499996115 198.577935112 706.277372659 199.348780216 705.832125748 c 0
 257.973706105 671.969852985 283.550570079 657.291982108 284.244518281 656.598033906 c 0
 285.220175379 655.622376808 285.708003928 654.342438404 285.708003928 653.0625 c 2
 285.708003928 1.9990234375 l 2
EndSplineSet
EndChar

StartChar: W
Encoding: 87 87 57
Width: 529
GlyphClass: 1
Flags: W
HStem: -4.95703 20.959G<122.617 217.02 309.476 404.161 497.698 499.75> 685.332 20G<122.835 124.222 309.976 311.363 498.156 499.543>
VStem: 24.209 103.836<50.7282 705.122> 211.349 103.796<57.0974 705.122> 399.528 103.84<57.114 705.122>
LayerCount: 2
Fore
SplineSet
498.161132812 705.332027365 m 0
 500.924771808 705.332027365 503.160152143 703.094043391 503.160152143 700.334503971 c 2
 503.368160178 0.000976562499944 l 2
 503.368160178 -2.76161716908 501.13170782 -4.9980429902 498.369140625 -4.9980429902 c 0
 497.026369316 -4.9980429902 497.026369316 -4.9980429902 450.888009725 21.6263364966 c 1
 404.832319973 -4.9570273652 404.832319973 -4.9570273652 403.489257812 -4.9570273652 c 2
 310.147460938 -4.9570273652 l 2
 308.804525972 -4.9570273652 308.804525972 -4.9570273652 263.248046875 21.3352981133 c 1
 217.691567778 -4.9570273652 217.691567778 -4.9570273652 216.348632812 -4.9570273652 c 2
 123.048828125 -4.9570273652 l 2
 122.184529859 -4.9570273652 121.320231593 -4.73458558804 120.549624566 -4.28970203373 c 0
 116.696706383 -2.06535177769 26.447831504 49.9068819342 25.6724739066 50.6822395316 c 0
 24.6972289998 51.6574844384 24.2094005379 52.936753603 24.208988521 54.2161512104 c 2
 24.0009804473 700.125 l 2
 24.0009804473 702.895738456 26.2491876236 705.124007178 28.988834225 705.124007178 c 2
 28.988834225 705.124007178 122.829654537 705.33201499 122.840820312 705.332027365 c 0
 125.602867492 705.332027365 127.839019261 703.09644827 127.839839642 700.334504059 c 2
 128.04526844 8.72615044423 l 1
 211.348685645 57.0973954114 l 1
 211.141605447 700.125 l 2
 211.141605447 702.895738456 213.389812624 705.124007178 216.129459225 705.124007178 c 2
 216.129459225 705.124007178 309.970279537 705.33201499 309.981445312 705.332027365 c 0
 312.743562715 705.332027365 314.979809919 703.096312106 314.980464723 700.334202 c 2
 315.144433654 8.67660195616 l 1
 399.52836779 57.1140244067 l 1
 399.321292947 700.125 l 2
 399.321292947 702.883408813 401.551126752 705.117893743 404.309146725 705.124007178 c 2
 404.309146725 705.124007178 498.149967037 705.33201499 498.161132812 705.332027365 c 0
EndSplineSet
EndChar

StartChar: X
Encoding: 88 88 58
Width: 317
GlyphClass: 1
Flags: W
HStem: 679.652 20G<26.6187 28.4326 287.137 288.946>
VStem: 23.666 96.1885<42.7194 46.2073 46.3882 292.869 354.255 648.375> 196.011 96.1832<42.5942 336.715 398.144 660.967>
LayerCount: 2
Fore
SplineSet
286.9453125 350.483394553 m 2
 289.717167551 350.483394553 291.944316338 348.233615821 291.944316338 345.496957555 c 2
 292.816402365 -3.642578125 l 2
 292.816402365 -6.40517185658 290.579950007 -8.6415976777 287.817382812 -8.6415976777 c 0
 286.953200369 -8.6415976777 286.089017927 -8.41921551489 285.318489063 -7.97445118928 c 0
 234.066933715 21.6089486286 198.845935138 41.8359267376 198.133411406 42.5484504691 c 0
 197.161488135 43.5203737406 196.67366673 44.794253814 196.669947193 46.0692894719 c 2
 195.822076204 336.714533166 l 1
 119.854488303 292.868917395 l 1
 119.854488303 -3.517578125 l 2
 119.854488303 -6.28017185658 117.618035945 -8.5165976777 114.85546875 -8.5165976777 c 0
 113.99095521 -8.5165976777 113.126441671 -8.29404507828 112.355689397 -7.84893987943 c 0
 61.2943287701 21.63871502 25.9247785489 41.9611848892 25.2125129691 42.6734504691 c 0
 24.2372816191 43.648681819 23.7494531631 44.9279289745 23.749027601 46.2073087934 c 2
 23.749027601 46.2073087934 23.6660195098 295.7578125 23.6660195098 295.840820312 c 0
 23.6660195098 298.036894845 25.0850735351 299.925217209 27.0928827231 300.587665348 c 2
 96.195509308 340.485355447 l 1
 28.873046875 340.485355447 l 2
 26.1153667672 340.485355447 23.8809381271 342.714149753 23.8740430684 345.47177987 c 2
 23.0009804473 694.653320312 l 2
 23.0009804473 697.415914044 25.237432805 699.652339865 28 699.652339865 c 0
 28.8651005907 699.652339865 29.7302011815 699.429484912 30.5013493703 698.983775007 c 0
 80.9399987795 669.831134889 116.930554047 649.132701265 117.642955781 648.420299531 c 0
 118.614699463 647.448555849 119.102520163 646.174966945 119.106417882 644.900167323 c 2
 119.995069724 354.255059419 l 1
 196.011130099 398.144349441 l 1
 196.462902893 645.76700283 l 2
 196.466259846 647.606993037 197.46475856 649.224447765 198.962134709 650.089174254 c 2
 285.069556585 699.815736754 l 2
 285.840308859 700.260841953 286.704822398 700.483394553 287.569335938 700.483394553 c 0
 290.323655227 700.483394553 292.568360029 698.257747142 292.568351582 695.478099556 c 2
 292.194328144 395.246654244 l 2
 292.192034632 393.405634695 291.193371597 391.786712904 289.694869738 390.921439671 c 2
 219.663250248 350.483394553 l 1
 286.9453125 350.483394553 l 2
EndSplineSet
EndChar

StartChar: Y
Encoding: 89 89 59
Width: 281
GlyphClass: 1
Flags: W
HStem: 684.891 20G<269.466 271.271>
VStem: 4.37501 96.6403<402.799 655.11> 90.8145 96.5625<33.722 343.978> 177.447 96.5771<358.625 664.365>
LayerCount: 2
Fore
SplineSet
4.0009804473 701.637695312 m 2xc0
 4.0009804473 704.400289044 6.23743280499 706.636714865 9 706.636714865 c 0
 9.86489018677 706.636714865 10.7297803735 706.413968302 11.5007866932 705.968475176 c 0
 60.3344457193 677.752027578 98.383901736 655.871736389 99.0999870309 655.155651094 c 0
 100.073320149 654.182317976 100.56114593 652.906151399 100.563464374 651.629263483 c 2
 101.015264976 402.799116637 l 1
 177.447271668 358.624713457 l 1
 178.335964833 649.889393089 l 2
 178.337733855 650.469181072 178.492512608 652.851758709 180.834153261 654.204791177 c 2
 267.397629823 704.222369301 l 2
 268.168641434 704.66787051 269.033539467 704.890621115 269.8984375 704.890621115 c 0
 272.644155606 704.890621115 274.897475201 702.676080242 274.897441463 699.879069103 c 2
 274.024394588 348.964030041 l 2xd0
 274.017533887 346.206419677 271.783139534 343.977542947 269.025390625 343.977542947 c 2
 188.235468667 343.977542947 l 1
 187.376927908 48.9794803562 l 2
 187.375241349 48.3999720809 187.220899554 46.0166914367 184.878716381 44.6633607614 c 2
 98.3142632557 -5.35421736364 l 2
 97.5432569361 -5.79971048968 96.6783667493 -6.0224570527 95.8134765625 -6.0224570527 c 0
 93.0677584563 -6.0224570527 90.814438862 -3.80791617966 90.8144725996 -1.01090504075 c 2xa0
 91.6793581361 346.623741498 l 1
 35.6620289857 378.959958935 6.5400487842 395.672086529 5.83848953157 396.373645782 c 0
 4.86441904763 397.347716266 4.37659178879 398.625079216 4.37500775503 399.90293538 c 2
 4.0009804473 701.637695312 l 2xc0
EndSplineSet
EndChar

StartChar: Z
Encoding: 90 90 60
Width: 332
GlyphClass: 1
Flags: W
HStem: -4.99902 106.708<209.381 287.296> 598.083 106.583<42.9891 120.893>
VStem: 35.3281 93.6103<50.7831 50.7998 51.0103 287.45> 201.348 93.6093<389.054 649.006>
LayerCount: 2
Fore
SplineSet
248.46484375 -4.8740195527 m 2
 211.618512882 -4.8740195527 l 2
 211.252041019 -4.95735288604 210.877973634 -4.9990195527 210.50390625 -4.9990195527 c 2
 123.274414062 -4.9990195527 l 2
 122.409763303 -4.9990195527 121.545112544 -4.77639629854 120.774267704 -4.33114979023 c 0
 61.290659059 30.0270863635 36.8591787622 44.0443628009 36.1675910941 44.7359504691 c 0
 35.1919339962 45.7116075669 34.7041054473 46.991545971 34.7041054473 48.271484375 c 0
 34.7041054473 49.1605702546 34.9394892086 50.0496561342 35.4102567311 50.8367563329 c 2
 35.4102567311 50.8367563329 35.3281288937 290.335911451 35.3281288848 290.418945312 c 0
 35.3281288848 292.614668546 36.7467088417 294.502646935 38.7538466006 295.165412254 c 2
 113.220098042 338.189242552 l 1
 79.0722725241 358.276581539 79.0722725241 358.276581539 78.6187629691 358.730091094 c 0
 77.6431058712 359.705748192 77.1552773223 360.985686596 77.1552773223 362.265625 c 0
 77.1552773223 362.851530704 77.3043618699 365.215128352 79.6207167377 366.577288798 c 0
 122.574721967 391.836910178 122.574721967 391.836910178 123.939453125 391.836910178 c 0
 125.301605007 391.836910178 125.301605007 391.836910178 165.412589121 368.301189265 c 1
 201.347660135 389.053694858 l 1
 201.347660135 649.006271622 l 1
 186.332380525 657.676339467 l 1
 152.242555806 638.078458292 118.248643082 618.384665123 84.1953484891 598.750253822 c 0
 83.4247778253 598.305425739 82.5605334439 598.083011697 81.6962890625 598.083011697 c 0
 80.8320648065 598.083011697 79.9678405504 598.305415381 79.197283468 598.750222747 c 0
 19.7203026574 633.083563917 -4.84205274034 647.167469303 -5.53455734343 647.859973906 c 0
 -6.51021444128 648.835631004 -6.9980429902 650.115569408 -6.9980429902 651.395507812 c 0
 -6.9980429902 651.970310602 -6.85180505829 654.371797482 -4.49363815504 655.729847977 c 2
 79.326674345 704.001332353 l 2
 80.0946273337 704.443590674 80.9553531962 704.66514965 81.816259377 704.66600923 c 0
 207.01171875 704.791011741 207.01171875 704.791011741 207.01171875 704.791011741 c 2
 207.882289063 704.791011741 208.752859375 704.565329815 209.527683912 704.113965964 c 0
 266.073514922 671.173935241 292.724372334 655.743179851 293.411510468 655.056041718 c 0
 294.386766161 654.080786025 294.874594627 652.801499349 294.874995867 651.522087589 c 2
 294.956997509 390.047793986 l 2
 295.733710122 389.121914505 296.122066428 387.979902565 296.122066428 386.837890625 c 0
 296.122066428 384.994715187 295.12311619 383.372683916 293.622280716 382.506213886 c 2
 216.790961379 338.149896087 l 1
 251.75384461 317.610191952 251.75384461 317.610191952 252.208385468 317.155651094 c 0
 253.184042566 316.179993996 253.671871115 314.900055592 253.671871115 313.620117188 c 0
 253.671871115 311.777256762 252.673271277 310.155513547 251.172945448 309.28893709 c 0
 207.690526165 284.173832009 207.690526165 284.173832009 206.346679688 284.173832009 c 0
 204.981126636 284.173832009 204.981126636 284.173832009 164.496645035 307.9979631 c 1
 128.938472678 287.449799438 l 1
 128.938472678 50.7830660636 l 1
 143.943465083 42.0971197266 l 1
 246.090485915 101.042129772 l 2
 246.860885469 101.486696918 247.724876329 101.70898049 248.588867188 101.70898049 c 0
 249.453091444 101.70898049 250.3173157 101.486576807 251.087872782 101.04176944 c 0
 310.564853587 66.7084282739 335.127208991 52.624522884 335.819713594 51.9320182809 c 0
 336.795370692 50.9563611831 337.283199241 49.676422779 337.283199241 48.396484375 c 0
 337.283199241 47.8216816261 337.136962904 45.4202114456 334.778816058 44.0621566797 c 2
 250.95948012 -4.20932769529 l 2
 250.19002612 -4.65245560023 249.327434935 -4.8740195527 248.46484375 -4.8740195527 c 2
209.961463438 334.207084956 m 1
 209.961463438 334.207084956 209.963820974 334.208446011 209.961463438 334.207084956 c 1
EndSplineSet
EndChar

StartChar: bracketleft
Encoding: 91 91 61
Width: 289
GlyphClass: 1
Flags: W
LayerCount: 2
Fore
SplineSet
209.19921875 83.23828125 m 1
 257.221679688 0.0009765625 l 1
 145.294921875 0.04296875 l 1
 145.294921875 0.0009765625 l 1
 30 0.0009765625 l 1
 30 897.993164062 l 1
 145.294921875 897.993164062 l 1
 145.294921875 897.951171875 l 1
 258.884765625 897.993164062 l 1
 210.862304688 814.754882812 l 1
 145.294921875 814.712890625 l 1
 145.294921875 83.2802734375 l 1
 209.19921875 83.23828125 l 1
EndSplineSet
Validated: 1
EndChar

StartChar: backslash
Encoding: 92 92 62
Width: 382
GlyphClass: 1
Flags: W
LayerCount: 2
Fore
SplineSet
351.935546875 0 m 1
 268.323242188 0 l 1
 30.0009765625 699.833984375 l 1
 113.61328125 699.833984375 l 1
 351.935546875 0 l 1
EndSplineSet
Validated: 1
EndChar

StartChar: bracketright
Encoding: 93 93 63
Width: 289
GlyphClass: 1
Flags: W
LayerCount: 2
Fore
SplineSet
143.631835938 897.9921875 m 1
 258.884765625 897.991210938 l 1
 258.884765625 -0.0009765625 l 1
 143.631835938 -0.0009765625 l 1
 143.631835938 0.08203125 l 1
 30 -0.0009765625 l 1
 78.0634765625 83.2373046875 l 1
 143.630859375 83.279296875 l 1
 143.630859375 814.711914062 l 1
 79.7265625 814.75390625 l 1
 31.6630859375 897.9921875 l 1
 143.631835938 897.950195312 l 1
 143.631835938 897.9921875 l 1
EndSplineSet
Validated: 1
EndChar

StartChar: underscore
Encoding: 95 95 64
Width: 600
GlyphClass: 1
Flags: W
LayerCount: 2
Fore
SplineSet
589.009765625 0 m 1
 10 0 l 1
 10 74.83984375 l 1
 589.009765625 74.83984375 l 1
 589.009765625 0 l 1
EndSplineSet
Validated: 1
EndChar

StartChar: grave
Encoding: 96 96 65
Width: 311
GlyphClass: 1
Flags: W
LayerCount: 2
Fore
SplineSet
30 758.51171875 m 1
 155.60546875 758.51171875 l 1
 281.2109375 686 l 1
 155.60546875 686 l 1
 30 758.51171875 l 1
EndSplineSet
Validated: 1
EndChar

StartChar: a
Encoding: 97 97 66
Width: 348
GlyphClass: 1
Flags: W
HStem: -4.91601 20.917G<19.6187 105.294 187.342 273.018> 492.079 20G<188.674 189.154>
VStem: 16.001 93.6523<54.0186 242.375 357.224 455.918> 183.725 93.6523<54.0186 281.87 295.293 462.589>
LayerCount: 2
Fore
SplineSet
21 -4.9990195527 m 2
 18.2374062684 -4.9990195527 16.0009804473 -2.76256719501 16.0009804473 -1.7763568394e-15 c 2
 16.0009804473 241.856445312 l 2
 16.0009804473 242.41041182 16.1356160547 244.964433949 18.5427583468 246.354137677 c 2
 102.155063034 294.625622051 l 2
 102.9256777 295.07051726 103.789987287 295.292964865 104.654296875 295.292964865 c 2
 183.724613259 295.292964865 l 1
 183.724613259 498.420667605 l 1
 110.068355491 455.918404974 l 1
 110.068355491 362.22265625 l 2
 110.068355491 359.460062518 107.831903133 357.223636697 105.069335938 357.223636697 c 2
 21.45703125 357.223636697 l 2
 18.6944375184 357.223636697 16.4580116973 359.460089055 16.4580116973 362.22265625 c 2
 16.4580116973 458.807617188 l 2
 16.4580116973 460.650792626 17.456961935 462.272823897 18.9577974093 463.139293927 c 2
 102.570102097 511.410778301 l 2
 103.340716763 511.85567351 104.20502635 512.078121115 105.069335938 512.078121115 c 2
 105.069335938 512.078121115 188.624448438 512.078121115 188.723632812 512.079097678 c 0
 189.583395926 512.079097678 190.443159039 511.858984172 191.21069804 511.418757162 c 0
 254.363267662 475.197188081 275.222290697 463.326316178 275.913463594 462.635143281 c 0
 276.889120692 461.659486183 277.376949241 460.379547779 277.376949241 459.099609375 c 2
 277.376949241 53.6034533537 l 1
 303.58139723 53.6034533537 329.78584522 53.6025351774 355.990293209 53.6025351774 c 0
 358.752872912 53.6025029114 360.989253928 51.3660508644 360.989253928 48.603515625 c 0
 360.989253928 46.7603401868 359.99030369 45.1383089162 358.489468216 44.2718388863 c 0
 276.034508572 -3.33148111528 276.034508572 -3.33148111528 275.913463594 -3.45252609343 c 0
 274.937806496 -4.42818319128 273.657868092 -4.9160117402 272.377929688 -4.9160117402 c 2
 188.723632812 -4.9160117402 l 2
 185.96103908 -4.9160117402 183.724613259 -2.67955938251 183.724613259 0.0830078125 c 2
 183.724613259 40.1106983378 l 1
 108.298957749 -3.42640693772 108.298957749 -3.42640693772 108.189830781 -3.53553390593 c 0
 107.214173683 -4.51119100378 105.934235279 -4.9990195527 104.654296875 -4.9990195527 c 2
 21 -4.9990195527 l 2
183.724613259 54.0185508027 m 1
 183.724613259 281.870112726 l 1
 115.364520589 242.37672425 l 1
 115.364520589 242.37672425 112.079002842 240.501716715 109.653316428 239.117361124 c 1
 109.653316428 54.0185508027 l 1
 183.724613259 54.0185508027 l 1
EndSplineSet
EndChar

StartChar: b
Encoding: 98 98 67
Width: 305
GlyphClass: 1
Flags: W
HStem: -3.99902 21G<25.6197 111.87> 685.209 20G<110.058 111.87>
VStem: 22.002 93.4853<-3.99902 40.9416 54.6865 498.819 512.538 667.128> 189.643 93.4853<54.6865 455.44>
LayerCount: 2
Fore
SplineSet
283.127925803 1.49903420622 m 2
 283.127925803 -1.26821103748 280.889133894 -3.4999961152 278.129882812 -3.4999961152 c 2
 193.768554688 -3.4999961152 l 2
 192.903873897 -3.4999961152 192.039193105 -3.27735739585 191.268328008 -2.83207995716 c 2
 115.487300803 40.9415735813 l 1
 115.487300803 1 l 2
 115.487300803 -1.76259373158 113.250848445 -3.9990195527 110.48828125 -3.9990195527 c 2
 27.0009765625 -3.9990195527 l 2
 24.2383828309 -3.9990195527 22.0019570098 -1.76256719501 22.0019570098 1 c 2
 22.0019570098 652.3125 l 2
 22.0019570098 652.8852238 22.1476511719 655.293633108 24.5134162282 656.650895028 c 2
 108.000720916 704.548355966 l 2
 108.768385282 704.988772316 109.628333266 705.208980491 110.48828125 705.208980491 c 0
 113.250874982 705.208980491 115.487300803 702.972528133 115.487300803 700.209960938 c 2
 115.487300803 512.538082053 l 1
 193.975585938 512.538082053 l 2
 194.849434552 512.538082053 195.723283166 512.310697229 196.500300279 511.85592758 c 0
 264.26930993 472.192333078 264.26930993 472.192333078 280.648672481 462.631280692 c 0
 282.138871913 461.761412863 283.127925803 460.145435362 283.127925803 458.311534207 c 2
 283.127925803 1.49903420622 l 2
189.642588503 432.151091347 m 0
 189.642588503 432.157515982 189.616092441 448.653914217 189.605194734 455.439990971 c 1
 175.735051284 463.557158358 l 1
 175.735051284 463.557158358 133.139812287 488.487139372 115.487300803 498.818734791 c 1
 115.487300803 54.6865195527 l 1
 189.642582103 54.6865195527 l 1
 189.642582103 180.508043484 189.642588503 306.329567416 189.642588503 432.151091347 c 0
EndSplineSet
EndChar

StartChar: c
Encoding: 99 99 68
Width: 271
GlyphClass: 1
Flags: W
HStem: -4.69921 58.2285<151.71 230.06> 453.652 58.2285<151.71 229.837>
VStem: 19.001 93.5273<45.5387 473.923>
LayerCount: 2
Fore
SplineSet
279.544917991 458.651367188 m 0
 279.544917991 455.888773456 277.308465633 453.652347635 274.545898438 453.652347635 c 2
 191.016601562 453.652347635 l 2
 190.151842733 453.652347635 189.287083905 453.875026543 188.516166173 454.320384357 c 2
 112.528316428 498.218431207 l 1
 112.528316428 8.96320941824 l 1
 188.516166173 52.8612562682 l 2
 189.287083905 53.3066140829 190.151842733 53.5292929902 191.016601562 53.5292929902 c 2
 274.545898438 53.5292929902 l 2
 277.30849217 53.5292929902 279.544917991 51.2928406325 279.544917991 48.5302734375 c 0
 279.544917991 46.6871955425 278.546076261 45.0652534723 277.045398613 44.1987504713 c 2
 193.516101737 -4.03171827874 l 2
 192.745419884 -4.47671600305 191.881010723 -4.6992148652 191.016601562 -4.6992148652 c 2
 107.529296875 -4.6992148652 l 2
 106.657728181 -4.6992148652 105.786159487 -4.47301501278 105.010666354 -4.02061530794 c 0
 51.5880220982 27.1445716712 21.1572733157 44.7999791849 20.4644660941 45.4927864066 c 0
 19.4888089962 46.4684435044 19.0009804473 47.7483819085 19.0009804473 49.0283203125 c 2
 19.0009804473 458.983398438 l 2
 19.0009804473 460.821285371 19.9942968906 462.439999975 21.489303812 463.30843725 c 2
 105.018600687 511.829921624 l 2
 105.792101857 512.279242118 106.660699366 512.503902365 107.529296875 512.503902365 c 0
 108.364429014 512.503902365 109.199561152 512.296220073 109.950170534 511.880855491 c 2
 191.016601562 511.880855491 l 2
 191.881010723 511.880855491 192.745419884 511.658356629 193.516101737 511.213358904 c 0
 253.322360808 476.680757565 277.390241751 462.878091687 278.081432344 462.186901094 c 0
 279.057089442 461.211243996 279.544917991 459.931305592 279.544917991 458.651367188 c 0
EndSplineSet
EndChar

StartChar: d
Encoding: 100 100 69
Width: 354
GlyphClass: 1
Flags: W
HStem: -4.54296 21G<24.6197 111.001 192.675 278.392>
VStem: 21.002 93.6934<53.7695 456.671> 189.058 93.6934<53.7695 498.403 511.704 656.34>
LayerCount: 2
Fore
SplineSet
114.737300803 453.154296875 m 2
 114.737300803 452.937486985 114.723303407 452.720677096 114.695308615 452.505346128 c 2
 114.695308615 53.7695273652 l 1
 189.057621072 53.7695273652 l 1
 189.057621072 498.40294119 l 1
 116.795846469 456.671468069 l 1
 116.795846469 456.671468069 115.803600208 456.10321738 114.737300803 455.492533539 c 1
 114.737300803 453.154296875 l 2
26.0009765625 -4.5429648652 m 2
 23.2383828309 -4.5429648652 21.0019570098 -2.30651250751 21.0019570098 0.4560546875 c 2
 21.0019570098 458.266601562 l 2
 21.0019570098 458.751835991 21.1194052893 461.323823683 23.5439631555 462.723410065 c 2
 107.239275656 511.036886628 l 2
 108.009832738 511.481693994 108.874056994 511.704097678 109.73828125 511.704097678 c 2
 189.057621072 511.704097678 l 1
 189.057621072 700.873046875 l 2
 189.057621072 703.635640607 191.29407343 705.872066428 194.056640625 705.872066428 c 0
 194.916670382 705.872066428 195.77670014 705.651816371 196.544419951 705.211316257 c 0
 259.385545198 669.154512211 280.595920432 657.077686443 281.287487031 656.386119844 c 0
 282.263144129 655.410462746 282.750972678 654.130524342 282.750972678 652.850585938 c 2
 282.750972678 53.5614612242 l 1
 308.983089919 53.5614612242 335.21520716 53.5605429899 361.447324401 53.5605429899 c 0
 364.209904118 53.5605107559 366.446285178 51.3240587086 366.446285178 48.5615234375 c 0
 366.446285178 46.7182644115 365.44724195 45.0961566989 363.946271219 44.2297149345 c 0
 281.408338009 -3.41565949067 281.408338009 -3.41565949067 281.287487031 -3.53651046843 c 0
 280.311829933 -4.51216756628 279.031891529 -4.9999961152 277.751953125 -4.9999961152 c 2
 194.056640625 -4.9999961152 l 2
 191.294046893 -4.9999961152 189.057621072 -2.76354375751 189.057621072 -0.000976562500002 c 2
 189.057621072 39.9848981647 l 1
 113.068151429 -3.87586354814 l 2
 112.29764231 -4.32059775952 111.433489124 -4.5429648652 110.569335938 -4.5429648652 c 2
 26.0009765625 -4.5429648652 l 2
EndSplineSet
EndChar

StartChar: e
Encoding: 101 101 70
AltUni2: 0000eb.ffffffff.0 0000eb.ffffffff.0
Width: 293
GlyphClass: 1
Flags: W
HStem: -4.99902 58.3115<152.153 230.425> 492.163 20G<107.474 108.093>
VStem: 19.002 93.6975<44.6159 257.259 270.639 473.984> 187.931 93.6523<270.639 455.823>
LayerCount: 2
Fore
SplineSet
281.583003928 216.578125 m 2
 281.583003928 213.815531268 279.34655157 211.579105447 276.583984375 211.579105447 c 2
 192.9296875 211.579105447 l 2
 191.649749096 211.579105447 190.369810692 212.066933996 189.343910536 213.093545056 c 2
 112.871616418 257.259147153 l 1
 113.143811764 8.68268516136 l 1
 188.798517124 52.6383079765 l 2
 189.572108028 53.0877667356 190.44083917 53.3124961152 191.309570312 53.3124961152 c 2
 275.004882812 53.3124961152 l 2
 277.767476544 53.3124961152 280.003902365 51.0760437575 280.003902365 48.3134765625 c 0
 280.003902365 46.4702175365 279.004859137 44.8481098239 277.503888406 43.9816680595 c 2
 193.808575906 -4.33180850298 l 2
 193.038018824 -4.77661586946 192.173794568 -4.9990195527 191.309570312 -4.9990195527 c 2
 108.154296875 -4.9990195527 l 2
 107.296505711 -4.9990195527 106.438714546 -4.77991459251 105.672514375 -4.34170467212 c 0
 42.2038571037 31.9576806429 21.2018928792 43.8754768089 20.5074348441 44.5699348441 c 0
 19.5320248219 45.5453448662 19.0441963043 46.8248821015 19.0439492912 48.104496354 c 2
 19.0019611815 265.646130934 l 1
 19.2509846187 459.148084273 l 2
 19.2517238016 459.722461283 19.4009183107 462.124345358 21.7613105147 463.479348588 c 2
 105.41560739 511.501809526 l 2
 106.183557597 511.942657877 107.043927236 512.163082053 107.904296875 512.163082053 c 0
 108.282246372 512.163082053 108.660195868 512.123154046 109.030310899 512.038082053 c 2
 192.887695312 512.038082053 l 2
 193.751819294 512.038082053 194.615943276 511.815729976 195.386432685 511.371025824 c 0
 279.667299843 462.671346095 279.667299843 462.671346095 280.077526094 462.261119844 c 0
 281.053183192 461.285462746 281.540768129 460.005524319 281.540990204 458.725585934 c 0
 281.583003928 216.578125 281.583003928 216.578125 281.583003928 216.578125 c 2
187.930673237 270.638667991 m 1
 187.930673237 331.670967049 187.930849396 392.703266108 187.930849396 453.735565166 c 0
 187.930849396 453.754605737 187.922431546 454.737866516 187.913207955 455.822759854 c 2
 112.896392564 499.126536898 l 1
 112.699510305 270.638667991 l 1
 187.930673237 270.638667991 l 1
EndSplineSet
EndChar

StartChar: f
Encoding: 102 102 71
Width: 265
GlyphClass: 1
Flags: W
HStem: -4.65722 21G<156.667 158.482> 646.904 58.2285<201.325 279.565>
VStem: 68.5723 93.5273<45.2897 405.589 463.857 667.011>
LayerCount: 2
Fore
SplineSet
329.241207053 651.903320312 m 0
 329.241207053 649.14072658 327.004754695 646.904300759 324.2421875 646.904300759 c 2
 240.670898438 646.904300759 l 2
 239.806838689 646.904300759 238.942778941 647.12661978 238.172332887 647.571257822 c 2
 162.099605491 691.474174034 l 1
 162.099605491 461.747154469 l 1
 227.933726637 423.720808508 243.536226701 414.794606736 244.207408906 414.123424531 c 0
 245.183066004 413.147767433 245.670894553 411.867829029 245.670894553 410.587890625 c 0
 245.670894553 407.825296893 243.434442195 405.588871072 240.671875 405.588871072 c 2
 162.099605491 405.588871072 l 1
 162.099605491 0.341796875 l 2
 162.099605491 -2.42079685658 159.863153133 -4.6572226777 157.100585938 -4.6572226777 c 0
 156.233195722 -4.6572226777 155.365805506 -4.43318652262 154.593115648 -3.98511421245 c 0
 97.3287182867 29.2217287866 70.7276160372 44.5519020885 70.0357551566 45.2437629691 c 0
 69.0600980587 46.2194200669 68.5722695098 47.499358471 68.5722695098 48.779296875 c 2
 68.5722695098 407.699134593 l 1
 2.73814837132 445.72548055 -12.8643517013 454.651682327 -13.5355339059 455.322864532 c 0
 -14.5111910038 456.29852163 -14.9990195527 457.578460034 -14.9990195527 458.858398438 c 0
 -14.9990195527 461.62099217 -12.762567195 463.857417991 -10 463.857417991 c 2
 68.5722695098 463.857417991 l 1
 68.5722695098 652.194335938 l 2
 68.5722695098 652.767357668 68.7180646421 655.175020071 71.0830352947 656.532333062 c 2
 154.551376219 704.436802114 l 2
 155.334256699 704.900806448 156.216933037 705.132808615 157.10058644 705.132808615 c 0
 240.670898438 705.132808615 240.670898438 705.132808615 240.670898438 705.132808615 c 2
 241.534958187 705.132808615 242.399017935 704.910489594 243.169463989 704.465851552 c 0
 303.143107462 669.85400136 327.086266285 656.130309339 327.777721406 655.438854218 c 0
 328.753378504 654.46319712 329.241207053 653.183258716 329.241207053 651.903320312 c 0
EndSplineSet
EndChar

StartChar: g
Encoding: 103 103 72
Width: 303
GlyphClass: 1
Flags: W
HStem: -232.999 58.3115<71.0229 147.723> -4.11425 21G<24.8697 110.338> 492.923 20G<192.707 193.228>
VStem: 21.252 93.6533<54.1553 468.766> 187.979 93.6943<-184.064 40.2035 54.1553 463.391>
LayerCount: 2
Fore
SplineSet
21.0039101348 -179.686523438 m 0
 21.0039101348 -176.923929706 23.2403624925 -174.687503885 26.0029296875 -174.687503885 c 2
 109.657226562 -174.687503885 l 2
 110.525957704 -174.687503885 111.394688846 -174.912233265 112.16827975 -175.361692024 c 2
 188.019230409 -219.431333977 l 1
 187.979833769 40.2035124705 l 1
 112.405312215 -3.44644630341 l 2
 111.634494508 -3.89165138627 110.769883973 -4.1142539277 109.905273438 -4.1142539277 c 2
 26.2509765625 -4.1142539277 l 2
 23.4883828309 -4.1142539277 21.2519570098 -1.87780157001 21.2519570098 0.884765625 c 2
 21.2519570098 459.360351562 l 2
 21.2519570098 459.852010677 21.3711202203 462.418442034 23.7920750095 463.81663372 c 2
 107.446371884 512.130110283 l 2
 108.217158922 512.575268546 109.081723992 512.797847678 109.946289062 512.797847678 c 2
 191.778948056 512.797847678 l 2
 192.145419891 512.881181005 192.519487246 512.922847671 192.8935546 512.922847671 c 0
 193.563111716 512.922847671 195.79427265 512.795329647 197.27829135 511.185272323 c 0
 264.344778494 472.674766946 279.406523234 464.112786766 280.082408906 463.436901094 c 0
 281.057811963 462.461498037 281.545894453 461.18197211 281.545894453 459.902366997 c 2
 281.672847678 -179.728515625 l 2
 281.672847678 -180.303022257 281.52667793 -182.70559482 279.167308717 -184.063508725 c 2
 279.167308717 -184.063508725 195.513011842 -232.2099931 195.498305748 -232.218421738 c 0
 194.682058633 -232.738821207 192.8125 -232.999019553 192.8125 -232.999019553 c 1
 109.657226562 -232.999019553 l 2
 108.792661492 -232.999019553 107.928096422 -232.776440421 107.157309384 -232.331282159 c 0
 47.8453779968 -198.076429581 23.1596420321 -183.914303594 22.4673957816 -183.222057344 c 0
 21.4917386837 -182.246400246 21.0039101348 -180.966461842 21.0039101348 -179.686523438 c 0
187.898056843 498.723332222 m 1
 119.578832662 459.282924739 119.578832662 459.282924739 114.905269553 456.510946015 c 1
 114.905269553 54.1552695527 l 1
 187.978590416 54.1552695527 l 1
 187.898056843 498.723332222 l 1
EndSplineSet
EndChar

StartChar: h
Encoding: 104 104 73
Width: 355
GlyphClass: 1
Flags: W
HStem: -4.99804 21G<278.369 364.701>
VStem: 22.8906 92.5499<-3.61895 378.811 391.256 657.489> 191.095 93.6103<44.7829 335.098>
LayerCount: 2
Fore
SplineSet
368.318355491 0.000976562499999 m 0
 368.318355491 -2.76161716908 366.081903133 -4.9980429902 363.319335938 -4.9980429902 c 2
 279.70703125 -4.9980429902 l 2
 277.031640872 -4.9980429902 192.985019945 44.3101231802 192.558216094 44.7369270316 c 0
 191.582558996 45.7125841294 191.094730447 46.9925225335 191.094730447 48.2724609375 c 2
 191.094730447 335.097572093 l 1
 115.414053127 378.811372297 l 1
 114.611312859 1.18167477154 l 2
 114.605488348 -1.55832542295 112.394533394 -3.81416152514 109.598713973 -3.80661840637 c 0
 25.9864092855 -3.58103246887 25.9864092855 -3.58103246887 25.9864092855 -3.58103246887 c 2
 23.2474599822 -3.57364278563 20.993451577 -1.36305907504 21.0009988168 1.43157266849 c 0
 22.8906472543 701.140557043 22.8906472543 701.140557043 22.8906472543 701.140557043 c 2
 22.8980932835 703.897711998 25.1322827095 706.125972678 27.8896484375 706.125972678 c 0
 28.7415123852 706.125972678 29.5933763329 705.909885225 30.3555348413 705.47771032 c 0
 100.220590273 665.861379376 113.850525712 658.2205421 114.535533906 657.535533906 c 0
 115.513911807 656.557156005 115.999008171 655.272797339 115.999008171 653.989291959 c 2
 115.440506787 391.255855491 l 1
 196.09375 391.255855491 l 2
 196.958059588 391.255855491 197.822369175 391.033407886 198.592983841 390.588512677 c 0
 258.2411496 356.152127838 282.549742573 342.212731489 283.241588594 341.520885468 c 0
 284.217245692 340.54522837 284.705074241 339.265289966 284.705074241 337.985351562 c 2
 284.705074241 51.1609654299 l 1
 350.682701558 13.0708682761 366.1834282 4.20795211251 366.854869844 3.53651046843 c 0
 367.830526942 2.56085337059 368.318355491 1.28091496654 368.318355491 0.000976562499999 c 0
EndSplineSet
EndChar

StartChar: i
Encoding: 105 105 74
AltUni2: 0000ef.ffffffff.0 0000ef.ffffffff.0
Width: 150
GlyphClass: 1
Flags: W
HStem: 492.118 20G<122.358 124.17> 684.789 20G<122.358 124.168>
VStem: 20.084 107.539<-5.87071 465.711 571.859 658.347>
LayerCount: 2
Fore
SplineSet
122.790039062 704.789058615 m 0
 125.545423451 704.789058615 127.789050081 702.562847363 127.789050081 699.78076708 c 2
 127.581042269 586.77295458 l 2
 127.577658886 584.934808529 126.581181998 583.319048422 125.086764415 582.453729419 c 2
 27.5037566022 525.949823169 l 2
 26.731755775 525.502808229 25.8653896063 525.279300759 24.9990234375 525.279300759 c 0
 22.2487139638 525.279300759 19.9999939943 527.499741516 20.000012393 530.287578693 c 2
 20.2080202055 643.461406819 l 2
 20.2114023249 645.301565584 21.210111351 646.919161592 22.7077720484 647.783810535 c 0
 120.29077986 704.121701159 120.29077986 704.121701159 120.29077986 704.121701159 c 2
 121.061400924 704.56660613 121.925719993 704.789058615 122.790039062 704.789058615 c 0
122.790039062 512.118160178 m 0
 125.55050671 512.118160178 127.789058926 509.884499187 127.789058346 507.117494793 c 2
 127.623042722 -1.00164583225 l 2
 127.622143162 -3.75490351992 125.397242311 -5.99902435429 122.617568017 -5.99901541635 c 2
 25.076552392 -5.87401541635 l 2
 22.3176029179 -5.87047978899 20.0839884497 -3.63661409251 20.0839884497 -0.873616887417 c 2
 20.2080118872 450.824625301 l 2
 20.2085179842 452.667850555 21.2079889426 454.289675695 22.7091585428 455.155704456 c 2
 120.292166355 511.451602893 l 2
 121.062437565 511.895974416 121.926238314 512.118160178 122.790039062 512.118160178 c 0
EndSplineSet
EndChar

StartChar: j
Encoding: 106 106 75
Width: 218
GlyphClass: 1
Flags: W
VStem: -128 108.143<-144.674 -19.7295> 84.1724 116.768<-162.757 426.305>
LayerCount: 2
Fore
SplineSet
-25.6259765625 -19.7294960723 m 2
 -22.8401716819 -19.7294960723 -20.6270607522 -21.999487507 -20.6270607522 -24.6961866558 c 2
 -19.8570435362 -144.674017625 l 1
 84.172393503 -200.634551251 l 1
 84.2959024023 492.206952668 l 2
 84.2963948005 494.96913348 86.5326436408 497.205074241 89.294921875 497.205074241 c 0
 90.3960366664 497.205074241 91.4971514578 496.844035118 92.4045322464 496.121956871 c 0
 199.10807384 411.209087722 199.10807384 411.209087722 199.310924531 411.006237031 c 0
 200.286199036 410.030962526 200.774409953 408.75164531 200.774409953 407.472208866 c 2
 200.940425803 -147.922851562 l 2
 200.940425803 -148.494084189 200.795093947 -150.907740746 198.42354548 -152.264352191 c 2
 91.702970307 -213.312378726 l 2
 90.9236266522 -213.770790318 90.0462859823 -213.999996115 89.1689453125 -213.999996115 c 2
 -16.396484375 -213.999996115 l 2
 -17.2607670912 -213.999996115 -18.1250498074 -213.777562342 -18.8956463404 -213.332694795 c 2
 -124.237601034 -152.518488023 l 2
 -126.423632602 -151.96339498 -127.999996115 -149.988141302 -127.999996115 -147.673828125 c 2
 -127.999996115 -24.728515625 l 2
 -127.999996115 -21.9659218934 -125.763543757 -19.7294960723 -123.000976562 -19.7294960723 c 2
 -25.6259765625 -19.7294960723 l 2
EndSplineSet
EndChar

StartChar: k
Encoding: 107 107 76
Width: 355
GlyphClass: 1
Flags: W
HStem: 492.506 20G<193.424 279.141> 685.133 20G<110.512 112.326>
VStem: 22 93.9434<-5.802 281.808 295.511 666.624> 189.891 93.9014<43.9186 239.145 325.773 454.07>
LayerCount: 2
Fore
SplineSet
367.653316428 459.069335938 m 0
 367.653316428 456.306742206 365.41686407 454.070316385 362.654296875 454.070316385 c 2
 283.708003928 454.070316385 l 1
 283.708003928 341.222192927 l 2
 283.735998719 341.006861962 283.749996115 340.790052075 283.749996115 340.573242188 c 0
 283.749996115 340.004707048 283.605385482 337.582276164 281.224245155 336.226679351 c 2
 202.879569801 291.624607391 l 1
 273.831193949 250.650310641 281.637414348 246.218809714 282.286510468 245.569713594 c 0
 283.261946478 244.594277584 283.749775002 243.314698154 283.74999604 242.035049805 c 2
 283.791988303 -1.0703125 l 2
 283.791988303 -3.83290623158 281.555535945 -6.0693320527 278.79296875 -6.0693320527 c 0
 276.060454164 -6.0693320527 191.67004193 43.5567418215 191.354114532 43.8726692191 c 0
 190.37900333 44.8477804216 189.891174933 46.1268325253 189.890629343 47.4060546887 c 2
 189.808852586 239.14465045 l 1
 115.943355491 281.808157361 l 1
 115.943355491 -1.029296875 l 2
 115.943355491 -3.77185256875 113.732938239 -6.02834225144 110.929392729 -6.02829426327 c 2
 26.9840802283 -5.77927082577 l 2
 24.2274452304 -5.77109327895 22.0000038848 -3.53711077624 22.0000038848 -0.7802734375 c 2
 22.0000038848 651.696289062 l 2
 22.0000038848 653.539833243 22.999364378 655.162201756 24.5007966027 656.028547013 c 2
 108.446109103 704.466047013 l 2
 109.216469685 704.910554748 110.080402811 705.132808615 110.944335938 705.132808615 c 0
 113.70692967 705.132808615 115.943355491 702.896356257 115.943355491 700.133789062 c 2
 115.943355491 295.510738303 l 1
 189.767067341 295.510738303 l 1
 189.806644509 340.573242188 l 1
 189.806644509 507.506835938 l 2
 189.806644509 510.26942967 192.043096867 512.505855491 194.805664062 512.505855491 c 2
 278.708984375 512.505855491 l 2
 279.572917502 512.505855491 280.436850628 512.283601624 281.20721121 511.839093889 c 0
 340.189629302 477.805497596 365.4953506 463.299350025 366.189830781 462.604869844 c 0
 367.165487879 461.629212746 367.653316428 460.349274342 367.653316428 459.069335938 c 0
EndSplineSet
EndChar

StartChar: l
Encoding: 108 108 77
Width: 134
GlyphClass: 1
Flags: W
HStem: 680.175 20G<23.5131 30.999>
VStem: 23.5198 81.4811
LayerCount: 2
Fore
SplineSet
105.000980447 652 m 1
 107.513086765 647.66123379 l 1
 105.000980447 649.101950828 l 1
 105.000980447 652 l 1
105.000980447 50.9032839008 m 1
 105.000980447 649.101950828 l 1
 30.9990195527 691.542784312 l 1
 30.9990195527 8.61644910384 l 1
 105.000980447 50.9032839008 l 1
105.000980447 50.9032839008 m 1
 107.519831978 52.3426276329 l 1
 105.000980447 48 l 1
 105.000980447 50.9032839008 l 1
30.9990195527 8.61644910384 m 1
 30.9990195527 1.7763568394e-15 l 1
 23.5198319785 4.34262763287 l 1
 30.9990195527 8.61644910384 l 1
30.9990195527 691.542784312 m 1
 23.5130867653 695.836038478 l 1
 30.9990195527 700.174804688 l 1
 30.9990195527 691.542784312 l 1
EndSplineSet
EndChar

StartChar: m
Encoding: 109 109 78
Width: 469
GlyphClass: 1
Flags: W
HStem: 492.878 20G<25.6197 27.6724 110.441 194.44 359.572 360.053>
VStem: 22.002 93.1533<-0.855534 456.961> 188.77 93.1533<-0.831109 457.472> 354.622 93.1533<-0.831109 463.346>
LayerCount: 2
Fore
SplineSet
22.0019570098 507.87890625 m 2
 22.0019570098 510.641499982 24.2384093675 512.877925803 27.0009765625 512.877925803 c 0
 28.3437943697 512.877925803 28.3437943697 512.877925803 69.0789810071 489.37052942 c 1
 73.5397204271 491.97211102 l 2
 73.5431279504 491.97211102 73.812972874 492.127969577 73.812972874 492.127969577 c 2
 109.769417533 512.878902365 109.769417533 512.878902365 111.112304688 512.878902365 c 2
 193.768554688 512.878902365 l 2
 195.1115585 512.878902365 195.1115585 512.878902365 235.345783325 489.622906153 c 1
 275.579208979 512.876949241 275.579208979 512.876949241 276.923828125 512.876949241 c 2
 276.923828125 512.876949241 359.521909426 512.876949241 359.62109375 512.877925803 c 0
 360.485618119 512.877925803 361.350142488 512.655367627 362.120902069 512.210251277 c 0
 422.89311056 477.114088548 445.623738758 464.080141554 446.311901094 463.391979218 c 0
 447.287558192 462.41632212 447.775386741 461.136383716 447.775386741 459.856445312 c 2
 447.775386741 4.166015625 l 2
 447.775386741 1.40734857168 445.545053453 -0.827486413698 442.786424002 -0.832993888733 c 0
 442.786424002 -0.832993888733 359.631150564 -0.999009513733 359.62109375 -0.999019552702 c 0
 356.858500018 -0.999019552702 354.622074197 1.23743280499 354.622074197 4 c 2
 354.622074197 499.237954416 l 1
 281.922847678 457.472461795 l 1
 281.922847678 4.166015625 l 2
 281.922847678 1.40734857168 279.69251439 -0.827486413698 276.933884939 -0.832993888733 c 0
 276.933884939 -0.832993888733 193.778611502 -0.999009513733 193.768554688 -0.999019552702 c 0
 191.005960956 -0.999019552702 188.769535135 1.23743280499 188.769535135 4 c 2
 188.769535135 499.24159381 l 1
 115.155269553 456.961474795 l 1
 115.155269553 4.1669921875 l 2
 115.155269553 1.40735055414 112.923420814 -0.827873601159 110.163822196 -0.832021673898 c 0
 27.0009765625 -0.957027365202 27.0009765625 -0.957027365202 27.0009765625 -0.957027365202 c 2
 24.2383828309 -0.957027365202 22.0019570098 1.27942499249 22.0019570098 4.0419921875 c 2
 22.0019570098 507.87890625 l 2
73.5434535403 491.974288237 m 1
 73.5434535403 491.974288237 73.5397204271 491.97211102 73.5434535403 491.974288237 c 1
EndSplineSet
EndChar

StartChar: n
Encoding: 110 110 79
Width: 306
GlyphClass: 1
Flags: W
HStem: 492.117 20G<25.6187 27.6713 111.308 195.946>
VStem: 22.001 94.0264<-6.78807 455.702> 190.515 94.0264<-6.82916 462.087>
LayerCount: 2
Fore
SplineSet
195.513671875 -6.9970664277 m 0
 192.751078143 -6.9970664277 190.514652322 -4.76061407001 190.514652322 -1.998046875 c 2
 190.514652322 498.481065085 l 1
 116.027339865 455.701637638 l 1
 116.027339865 -1.791015625 l 2
 116.027339865 -4.54872495485 113.798489062 -6.78319320057 111.040789975 -6.79001974372 c 1
 111.040789975 -6.79001974372 27.0124696625 -6.99802755622 27 -6.9980429902 c 0
 24.2374062684 -6.9980429902 22.0009804473 -4.76159063251 22.0009804473 -1.9990234375 c 2
 22.0009804473 507.118164062 l 2
 22.0009804473 509.880757794 24.237432805 512.117183615 27 512.117183615 c 0
 28.3426830825 512.117183615 28.3426830825 512.117183615 69.6483643659 488.283345953 c 1
 110.63259503 512.118160178 110.63259503 512.118160178 111.984375 512.118160178 c 2
 195.513671875 512.118160178 l 2
 196.378122244 512.118160178 197.242572613 511.895640101 198.013282268 511.450599948 c 0
 256.300705182 477.79299178 282.382251598 462.828464652 283.077526094 462.133190156 c 0
 284.053183192 461.157533058 284.541011741 459.877594654 284.541011741 458.59765625 c 2
 284.541011741 -1.83203125 l 2
 284.541011741 -4.59072262909 282.310631391 -6.82559060494 279.551944513 -6.83104097126 c 2
 279.551944513 -6.83104097126 195.5236242 -6.99705659626 195.513671875 -6.9970664277 c 0
EndSplineSet
EndChar

StartChar: o
Encoding: 111 111 80
AltUni2: 0000f6.ffffffff.0 0000f6.ffffffff.0
Width: 303
GlyphClass: 1
Flags: W
HStem: -4.74023 21G<151.562 193.866> 492.463 20.041G<109.721 194.105 195.163 278.51>
VStem: 21.002 93.6934<8.92037 455.998> 188.435 93.6934<51.5014 498.555>
LayerCount: 2
Fore
SplineSet
277.12890625 512.462886741 m 2
 279.891499982 512.462886741 282.127925803 510.226434383 282.127925803 507.463867188 c 2
 282.127925803 48.61328125 l 2
 282.127925803 46.7706002941 281.129525564 45.1490211716 279.629490032 44.2823841489 c 2
 195.934177532 -4.0721080386 l 2
 195.163222379 -4.51752300633 194.298408064 -4.7402304902 193.43359375 -4.7402304902 c 0
 109.691292845 -4.74023048971 109.691292845 -4.74023048971 25.9909846394 -4.57420495537 c 0
 23.232368272 -4.56873304294 21.0019570098 -2.33392622167 21.0019570098 0.4248046875 c 2
 21.0019570098 459.150390625 l 2
 21.0019570098 461.51420982 22.6463687324 463.523877322 24.9046184759 464.028523945 c 2
 107.65273653 511.835779913 l 2
 108.423691683 512.281194881 109.288505998 512.503902365 110.153320312 512.503902365 c 2
 193.890625 512.503902365 l 2
 194.318659932 512.503902365 194.746694863 512.449345739 195.163349705 512.340232489 c 2
 277.12890625 512.462886741 l 2
114.695308615 455.997647048 m 1
 114.695308615 8.92036677843 l 1
 188.434574197 51.5014452453 l 1
 188.434574197 498.554729497 l 1
 114.695308615 455.997647048 l 1
EndSplineSet
EndChar

StartChar: p
Encoding: 112 112 81
Width: 301
GlyphClass: 1
Flags: W
HStem: -233.999 21G<106.889 108.699> 492.546 20G<190.165 276.714>
VStem: 17.001 95.3154<-183.719 -4.57421 8.74577 425.001> 186.514 93.8184<49.333 454.151>
LayerCount: 2
Fore
SplineSet
112.316402365 -229 m 2
 112.316402365 -231.762593732 110.079950007 -233.999019553 107.317382812 -233.999019553 c 0
 106.459942626 -233.999019553 105.602502439 -233.780093856 104.836540864 -233.342242462 c 0
 44.4303917177 -198.811898566 19.1686690365 -184.469229036 18.4644660941 -183.765026094 c 0
 17.4888089962 -182.789368996 16.9993563104 -181.509429562 17.0009844826 -180.223116085 c 0
 17.7490313576 410.760282353 17.7490313576 410.760282353 17.7490313576 410.760282353 c 2
 17.7513616892 412.601326474 18.7500859035 414.220252419 20.24864595 415.085486523 c 0
 21.9266244525 416.054312716 173.730980334 503.583024501 188.098233659 511.878442763 c 0
 188.86889594 512.323410623 189.733276095 512.545894553 190.59765625 512.545894553 c 2
 275.333007812 512.545894553 l 2
 278.095601544 512.545894553 280.332027365 510.309442195 280.332027365 507.546875 c 2
 280.332027365 48.9462890625 l 2
 280.332027365 48.4610614504 280.214607107 45.8893969668 277.790438216 44.4897212998 c 2
 193.970125716 -3.90676307523 l 2
 193.199463435 -4.35173093521 192.33508328 -4.5742148652 191.470703125 -4.5742148652 c 2
 112.072445577 -4.5742148652 l 1
 112.316402365 -229 l 2
186.513675759 454.151371072 m 1
 111.5737926 454.151371072 l 1
 112.057966222 8.74577050221 l 1
 182.326578862 49.3320648675 l 1
 182.326578862 49.3320648675 184.595807407 50.6368994097 186.486083087 51.7238376284 c 1
 186.513675759 57.26171875 l 1
 186.513675759 454.151371072 l 1
EndSplineSet
EndChar

StartChar: q
Encoding: 113 113 82
Width: 303
GlyphClass: 1
Flags: W
HStem: 492.875 20G<24.6187 111.417>
VStem: 21.001 94.1094<50.6307 454.314> 189.557 95.5644<-197.109 -119.61 -119.565 -71.0443 -71.0252 -4.28613 8.90734 414.241>
LayerCount: 2
Fore
SplineSet
21.0009804473 507.875976562 m 2
 21.0009804473 510.638570294 23.237432805 512.874996115 26 512.874996115 c 2
 110.984375 512.874996115 l 2
 111.848726349 512.874996115 112.713077697 512.652527013 113.483720542 512.207588811 c 0
 282.671923315 414.525121058 282.671923315 414.525121058 282.910533906 414.286510468 c 0
 283.884534387 413.312509987 284.372361529 412.035260632 284.374015333 410.757496375 c 0
 284.589748527 233.977844053 284.858849306 57.2515593169 285.038077609 -119.564597896 c 2
 285.038077609 -119.564597896 285.121085421 -182.055808834 285.121089865 -182.0625 c 0
 285.121089865 -182.633433726 284.975880787 -185.047611499 282.603809501 -186.404229443 c 2
 197.037403251 -235.340752881 l 2
 196.271214065 -235.778946287 195.413439063 -235.998042991 194.555664062 -235.998042991 c 0
 191.800569401 -235.998042991 189.556640852 -233.77136223 189.55664766 -230.993389363 c 0
 189.61429095 -177.67899771 189.682826815 -124.375498632 189.723639731 -71.0442766038 c 2
 189.723639731 -71.0442766038 189.752300313 -44.927986681 189.796901506 -4.2861289277 c 1
 110.153320312 -4.2861289277 l 2
 109.311793132 -4.2861289277 108.470265952 -4.07525379553 107.715218139 -3.6535035312 c 0
 33.5150386774 37.7928059303 23.1973505562 43.4688863194 22.5064582816 44.1597785941 c 0
 22.1049652336 44.5612716421 21.0009833492 45.8447598374 21.0009804473 47.8203125 c 2
 21.0009804473 507.875976562 l 2
115.110347594 454.314457009 m 1
 115.110347594 327.979770144 115.110341851 201.645083278 115.110341851 75.3103964126 c 0
 115.110341851 75.3042838298 115.136000594 57.7354028521 115.146808497 50.6306959804 c 1
 189.81138028 8.90733621115 l 1
 189.961651147 145.838369235 190.256389292 414.412131464 190.300178891 454.314457009 c 1
 115.110347594 454.314457009 l 1
EndSplineSet
EndChar

StartChar: r
Encoding: 114 114 83
Width: 265
GlyphClass: 1
Flags: W
HStem: 405.547 58.4775<153.579 230.216> 492.504 20G<107.514 109.325>
VStem: 19 93.981<43.9596 450.319>
LayerCount: 2
Fore
SplineSet
113.483394553 -1.23828125 m 2
 113.483394553 -4.00087498158 111.246942195 -6.2373008027 108.484375 -6.2373008027 c 0
 107.616859453 -6.2373008027 106.749343906 -6.01319990007 105.976569773 -5.56499809479 c 0
 50.1566358532 26.8100440818 21.6988183823 43.2183950558 21.0035285941 43.9136848441 c 0
 20.0295497466 44.8876636916 19.541722641 46.164877943 19.5400472775 47.4426137966 c 2
 19.0000038848 459.31640625 l 2
 19.0000038848 459.88942759 19.1457699576 462.296784613 21.5103741957 463.654176378 c 2
 105.455686696 511.84265294 l 2
 106.223626718 512.28348589 107.083981328 512.503902365 107.944335938 512.503902365 c 0
 110.705120758 512.503902365 112.940962096 510.270211138 112.943353601 507.509246086 c 2
 112.981019494 464.024410178 l 1
 191.889648438 464.024410178 l 2
 192.754184008 464.024410178 193.618719578 463.801846235 194.389486715 463.356718351 c 0
 252.856403007 429.591326012 278.675878923 414.776048265 279.370494844 414.081432344 c 0
 280.346151942 413.105775246 280.833980491 411.825836842 280.833980491 410.545898438 c 0
 280.833980491 407.78326773 278.597510222 405.546878886 275.834902338 405.546878886 c 2
 191.888613275 405.546878886 l 2
 191.024351855 405.54688894 190.160092553 405.770298367 189.389514626 406.215154044 c 2
 112.993770538 450.318520162 l 1
 113.483394553 -1.23828125 l 2
EndSplineSet
EndChar

StartChar: s
Encoding: 115 115 84
Width: 291
GlyphClass: 1
Flags: W
HStem: -4.99902 58.2695<44.8136 122.812> 453.851 58.3115<169.208 246.98>
VStem: 36.5381 93.4067<304.445 473.773> 161.824 93.64<33.3799 201.088>
LayerCount: 2
Fore
SplineSet
296.999019553 458.849609375 m 0
 296.999019553 456.087015643 294.762567195 453.850589822 292 453.850589822 c 2
 208.345703125 453.850589822 l 2
 207.476619762 453.850589822 206.6075364 454.075501469 205.833709043 454.525324761 c 2
 130.218356431 498.480280111 l 1
 129.944776791 317.040978072 l 1
 253.536157319 245.482176118 253.536157319 245.482176118 254.000377656 245.017955781 c 0
 254.976034754 244.042298683 255.463863303 242.762360279 255.463863303 241.482421875 c 2
 255.463863303 48.271484375 l 2
 255.463863303 46.4279670473 254.464532689 44.8056230963 252.963143929 43.9392687451 c 2
 169.308847054 -4.33221562987 l 2
 168.538467964 -4.77675157842 167.674507419 -4.9990195527 166.809570312 -4.9990195527 c 2
 83.654296875 -4.9990195527 l 2
 82.7903363306 -4.9990195527 81.9263757862 -4.77675157842 81.155996696 -4.33221562987 c 0
 21.3399899184 30.1837332742 -2.84342335551 44.0438399186 -3.53553390593 44.7359504691 c 0
 -4.51119100378 45.7116075669 -4.9990195527 46.991545971 -4.9990195527 48.271484375 c 0
 -4.9990195527 51.0340781066 -2.76256719501 53.2705039277 -1.7763568394e-15 53.2705039277 c 2
 83.654296875 53.2705039277 l 2
 84.5224218638 53.2705039277 85.3905468525 53.0460880464 86.1637306157 52.5972562839 c 2
 161.823819342 8.67671294591 l 1
 162.061302855 176.24303492 l 2
 162.061302855 176.31264243 161.90196945 185.482084218 161.819208632 190.258870228 c 1
 78.7654363183 238.44870515 39.0139563323 261.131772731 38.0015754691 262.144153594 c 0
 37.0259183712 263.119810692 36.5380898223 264.399749096 36.5380898223 265.6796875 c 2
 36.5380898223 458.890625 l 2
 36.5380898223 460.734475971 37.5377917172 462.35712511 39.0397205765 463.2233664 c 2
 122.656108526 511.449330839 l 2
 123.445930371 511.92451394 124.339176123 512.162105491 125.232421875 512.162105491 c 2
 208.345703125 512.162105491 l 2
 209.210268195 512.162105491 210.074833265 511.939526359 210.845620303 511.494368096 c 0
 270.15755168 477.239515524 294.843287655 463.077389531 295.535533906 462.385143281 c 0
 296.511191004 461.409486183 296.999019553 460.129547779 296.999019553 458.849609375 c 0
EndSplineSet
EndChar

StartChar: t
Encoding: 116 116 85
Width: 232
GlyphClass: 1
Flags: W
HStem: -4.65722 21G<69.0646 70.8742> 685.134 20G<69.1892 70.9996>
VStem: 65.4463 94.1094<33.5825 454.193 512.505 655.602>
LayerCount: 2
Fore
SplineSet
-17.9999961152 507.505859375 m 0
 -17.9999961152 510.268453107 -15.7635437575 512.504878928 -13.0009765625 512.504878928 c 2
 65.5303904026 512.504878928 l 1
 65.571293067 700.135863744 l 2
 65.5718951989 702.897996807 67.8081429592 705.133785178 70.5703125 705.133785178 c 0
 71.4289609545 705.133785178 72.2876094091 704.914242045 73.0543919836 704.475155778 c 0
 136.516016974 668.134830785 157.275530946 656.340458742 157.968151094 655.647838594 c 0
 158.943436727 654.672552961 159.431265205 653.393217678 159.431636529 652.113766632 c 2
 159.47279076 510.31063991 l 1
 225.558895758 472.152006459 240.868651686 463.397728626 241.539440156 462.726940156 c 0
 242.515097254 461.751283058 243.002925803 460.471344654 243.002925803 459.19140625 c 0
 243.002925803 456.428775358 240.766455444 454.192386698 238.003847358 454.192386698 c 0
 211.82711915 454.192386698 185.650390943 454.193304803 159.473662735 454.193304803 c 1
 159.555660178 48.447265625 l 2
 159.555660178 47.8763318987 159.410454272 45.4621876139 157.038423125 44.1055609529 c 2
 72.927095 -3.99990779712 l 2
 72.1608948286 -4.43811771751 71.3031036643 -4.6572226777 70.4453125 -4.6572226777 c 0
 67.6839247357 -4.6572226777 65.4462928518 -2.42234470742 65.4462930297 0.342707986019 c 2
 65.5287783255 456.387411337 l 1
 -0.560273608968 494.547746373 -15.8657331081 503.299548109 -16.5365104684 503.970325469 c 0
 -17.5121675663 504.945982567 -17.9999961152 506.225920971 -17.9999961152 507.505859375 c 0
EndSplineSet
EndChar

StartChar: u
Encoding: 117 117 86
AltUni2: 0000fc.ffffffff.0 0000fc.ffffffff.0
Width: 348
GlyphClass: 1
Flags: W
HStem: -4.99902 21G<190.286 279.232> 490.999 20G<23.6176 31.666 190.286 192.184>
VStem: 31.666 73.0062<44.2354 440.537> 186.668 97.3184<53.999 446.49>
LayerCount: 2
Fore
SplineSet
357 53.9990195527 m 2
 359.762593732 53.9990195527 361.999019553 51.762567195 361.999019553 49 c 0
 361.999019553 48.3821288405 361.84183157 46.1318632449 359.652275932 44.7603911496 c 2
 281.423760307 -4.23960885037 l 2
 280.615494022 -4.74588265192 279.693489198 -4.9990195527 278.771484375 -4.9990195527 c 2
 191.666992188 -4.9990195527 l 2
 188.904398456 -4.9990195527 186.667972635 -2.76256719501 186.667972635 -1.7763568394e-15 c 2
 186.667972635 44.0131203339 l 1
 172.30671341 44.0655889513 l 1
 186.667972635 52.8253966715 l 1
 186.667972635 506 l 2
 186.667972635 508.762593732 188.904424993 510.999019553 191.666992188 510.999019553 c 0
 192.701870234 510.999019553 193.73674828 510.680110079 194.61079317 510.042291133 c 0
 281.258214261 446.812853551 281.258214261 446.812853551 281.535533906 446.535533906 c 0
 282.507942438 445.563125374 282.995765578 444.288458444 282.999003328 443.012785109 c 2
 283.986347911 53.9990195527 l 1
 357 53.9990195527 l 2
108.259059845 4.9990195527 m 1
 172.30671341 44.0655889513 l 1
 110.327299384 44.2920296911 l 2
 107.575495685 44.3020833593 105.351435502 46.5301579145 105.346691057 49.2823318012 c 2
 104.672211119 440.536983825 l 1
 31.6660117402 496.830920695 l 1
 31.6660117402 4.9990195527 l 1
 108.259059845 4.9990195527 l 1
108.259059845 4.9990195527 m 1
 107.064829196 4.27058545819 l 1
 108.259059845 4.9990195527 l 1
31.6660117402 4.9990195527 m 1
 31.6660117402 1.7763568394e-15 l 1
 26.6669921875 4.9990195527 l 1
 31.6660117402 4.9990195527 l 1
31.6660117402 496.830920695 m 1
 23.6176152616 503.03691316 l 1
 31.6660117402 507 l 1
 31.6660117402 496.830920695 l 1
104.672211119 440.536983825 m 2
 104.672211119 441.355094608 104.66798012 442.173205392 104.66798012 442.991316176 c 1
 106.617615262 439.03691316 l 1
 104.672211119 440.536983825 l 2
EndSplineSet
EndChar

StartChar: v
Encoding: 118 118 87
Width: 291
GlyphClass: 1
Flags: W
HStem: -4.69921 21G<265.119 266.934> 485.852 20G<16.6599 18.4733 181.723 183.537>
VStem: 13 92.5303<359.115 456.695> 178.067 92.4852<191.495 456.777>
LayerCount: 2
Fore
SplineSet
270.551753928 0.2998046875 m 2
 270.551753928 -2.46278904408 268.31530157 -4.6992148652 265.552734375 -4.6992148652 c 0
 264.684434297 -4.6992148652 263.816134219 -4.47470845135 263.042832823 -4.02569562365 c 0
 203.452359196 30.5751562765 180.210536338 43.9781614748 179.526966094 44.6617317191 c 0
 178.997556876 45.1911409376 178.997556876 45.1911409376 13.5852342148 355.723968419 c 0
 13.1950806615 356.456413766 13.0000038848 357.265804539 13.0000041027 358.076676845 c 2
 13.0419962902 500.854020595 l 2
 13.0428085747 503.615863485 15.2788556252 505.851558615 18.041015625 505.851558615 c 0
 18.9056722644 505.851558615 19.7703289038 505.628932332 20.5411777103 505.183679768 c 0
 82.9925958971 469.110906657 103.384022685 457.423373252 104.066783906 456.740612031 c 0
 105.042441004 455.764954933 105.530269553 454.485016529 105.530269553 453.205078125 c 2
 105.530269553 359.115025182 l 1
 178.066518845 191.495110032 l 1
 178.105472675 500.936180999 l 2
 178.105820424 503.698623489 180.342269391 505.934566428 183.104492188 505.934566428 c 0
 183.969517214 505.934566428 184.83454224 505.711750406 185.605639481 505.266118361 c 0
 247.886403685 469.272857354 268.405768479 457.505143083 269.088268281 456.822643281 c 0
 270.063925379 455.846986183 270.551753928 454.567047779 270.551753928 453.287109375 c 2
 270.551753928 0.2998046875 l 2
EndSplineSet
EndChar

StartChar: w
Encoding: 119 119 88
Width: 471
GlyphClass: 1
Flags: W
HStem: -4 21G<25.6187 27.6721 110.939 111.611 277.79 362.09> 492.954 20G<360.277 445.322>
VStem: 22.001 93.6523<52.1921 512.795> 189.809 93.6523<51.6958 512.796> 356.659 93.6523<34.4136 512.796>
LayerCount: 2
Fore
SplineSet
356.659183572 507.955078125 m 2
 356.659183572 510.710133203 358.884826945 512.954087758 361.668199947 512.954087758 c 2
 445.322496822 512.788072133 l 2
 448.081112014 512.78259754 450.311519553 510.547790752 450.311519553 507.7890625 c 2
 450.311519553 49.3134765625 l 2
 450.311519553 47.4705514067 449.312847719 45.8487490041 447.812417178 44.982194404 c 2
 364.158120303 -3.33128215851 l 2
 363.387333265 -3.7764404213 362.522768195 -3.9990195527 361.658203125 -3.9990195527 c 0
 278.461914062 -3.9990195527 278.461914062 -3.9990195527 278.461914062 -3.9990195527 c 2
 277.11820081 -3.9990195527 277.11820081 -3.9990195527 236.634765625 19.3812016132 c 1
 196.150483023 -3.99950895728 196.150483023 -3.99950895728 194.807617188 -3.99950783395 c 1
 194.807617188 -3.9999961152 111.611328125 -3.9999961152 111.611328125 -3.9999961152 c 2
 110.266572744 -3.9999961152 110.266572744 -3.9999961152 73.1876193706 17.4333548684 c 0
 73.1631481279 17.447338886 71.0602362896 18.6352343745 69.2711577673 19.6458220861 c 1
 28.3441748155 -3.9999961152 28.3441748155 -3.9999961152 27 -3.9999961152 c 0
 24.2374062684 -3.9999961152 22.0009804473 -1.76354375751 22.0009804473 0.9990234375 c 2
 22.0009804473 507.954101562 l 2
 22.0009804473 510.703308016 24.2200228129 512.95313265 27.0099968221 512.953111195 c 2
 110.664293697 512.787095571 l 2
 113.422908889 512.781620978 115.653316428 510.54681419 115.653316428 507.788085938 c 2
 115.653316428 52.1920615477 l 1
 189.808597635 9.63400147257 l 1
 189.808597635 507.955078125 l 2
 189.808597635 510.704284579 192.027640001 512.954109213 194.81761401 512.954087758 c 2
 278.471910884 512.788072133 l 2
 281.230526076 512.78259754 283.460933615 510.547790752 283.460933615 507.7890625 c 2
 283.460933615 51.6957689864 l 1
 356.659183572 9.63980171779 l 1
 356.659183572 507.955078125 l 2
EndSplineSet
EndChar

StartChar: x
Encoding: 120 120 89
Width: 305
GlyphClass: 1
Flags: W
HStem: 490.655 20G<22.6197 24.4333 278.064 279.869>
VStem: 20.084 94.1924<40.1159 221.58 281.534 460.542> 189.43 94.1513<40.7807 264.495 312.6 473.104>
LayerCount: 2
Fore
SplineSet
277.748046875 278.776363303 m 2
 280.521735117 278.776363303 282.747043779 276.523943147 282.747043779 273.792449396 c 2
 283.581050803 -4.333984375 l 2
 283.581050803 -7.09657810658 281.344598445 -9.3330039277 278.58203125 -9.3330039277 c 0
 277.717425963 -9.3330039277 276.852820675 -9.11040408835 276.082006508 -8.66520440965 c 0
 218.315648599 24.6989514108 191.589507208 40.0386437304 190.893177032 40.7349739066 c 0
 189.922402936 41.7057480031 189.434586606 42.9777652729 189.429728043 44.2512902148 c 2
 188.589488307 264.494666545 l 1
 114.276363303 221.579694069 l 1
 114.276363303 -4.9990234375 l 2
 114.276363303 -7.76161716908 112.039910945 -9.9980429902 109.27734375 -9.9980429902 c 0
 108.413077265 -9.9980429902 107.548810781 -9.77561757185 106.778225201 -9.33076673516 c 0
 48.8421108607 24.1151341735 22.2440623892 39.3733463614 21.5474739066 40.0699348441 c 0
 20.5721223392 41.0452864114 20.0842938381 42.3247287412 20.0839884033 43.6042662981 c 2
 20.0408151284 224.467773156 l 2
 20.0408151284 227.347407729 20.5760160943 227.658145078 27.6965092593 231.792298995 c 2
 27.6965092593 231.792298995 66.9361674102 254.452984806 89.8718914215 267.698246072 c 1
 24.7080078125 267.698246072 l 2
 21.9513506027 267.698246072 19.7173775824 269.925432347 19.7090114598 272.681977327 c 2
 19.0019570098 505.65625 l 2
 19.0019570098 508.418843732 21.2384093675 510.655269553 24.0009765625 510.655269553 c 0
 24.8655818498 510.655269553 25.7301871371 510.432669713 26.5010013042 509.987470035 c 0
 84.2673592091 476.623314217 110.993500605 461.283621894 111.689830781 460.587291718 c 0
 112.660288527 459.616833972 113.148103222 458.345329356 113.153274866 457.072220437 c 2
 113.866348281 281.534211877 l 1
 131.752445456 291.854319678 178.055232075 318.571450906 188.775625591 324.757220667 c 1
 189.344776296 458.154304598 l 2
 189.347255681 458.73542076 189.505204394 461.112232007 191.842156298 462.463125967 c 2
 275.99547661 511.108633779 l 2
 276.766686395 511.554437836 277.631878354 511.777339865 278.497070312 511.777339865 c 0
 281.24149344 511.777339865 283.496111162 509.564509879 283.496071576 506.764746181 c 2
 282.997048139 321.578222744 l 2
 282.990628038 319.195737291 281.314253637 317.176466075 279.02537947 316.698748636 c 2
 213.304449713 278.776363303 l 1
 277.748046875 278.776363303 l 2
EndSplineSet
EndChar

StartChar: y
Encoding: 121 121 90
Width: 306
GlyphClass: 1
Flags: W
HStem: 494.624 20G<23.6187 25.4324 277.651 279.458>
VStem: 20.375 94.0234<51.7103 464.593> 104.403 93.4023<-200.181 -4.65722> 188.241 94.0091<9.07493 474.477>
LayerCount: 2
Fore
SplineSet
20.0009804473 509.625 m 2xc0
 20.0009804473 512.387593732 22.237432805 514.624019553 25 514.624019553 c 0
 25.8647979683 514.624019553 26.7295959366 514.401320488 27.5005400655 513.955922357 c 0
 85.6151818542 480.381306745 111.82685199 465.334059572 112.521862031 464.639049531 c 0
 113.496227604 463.664683958 113.984055298 462.38684213 113.985345113 461.108598576 c 2
 114.39844968 51.7103359331 l 1
 188.240867762 9.07492541808 l 1
 189.138685763 459.575468775 l 2
 189.139835613 460.152432001 189.291368999 462.545085082 191.642597788 463.899491772 c 2
 275.586933726 512.254960522 l 2
 276.356504222 512.698265501 277.219267736 512.919917991 278.08203125 512.919917991 c 0
 280.83366467 512.919917991 283.081058649 510.697748084 283.081044051 507.912650841 c 2
 282.249989363 0.333549278181 l 2xd0
 282.245471696 -2.42568350564 280.010455705 -4.6572226777 277.250976562 -4.6572226777 c 2
 198.21048096 -4.6572226777 l 1
 197.805647518 -185.230043407 l 2
 197.801541533 -187.061486078 196.811579252 -188.672281678 195.324884598 -189.539395473 c 2
 111.920587723 -238.184903285 l 2
 111.145191519 -238.637152671 110.273767634 -238.863277365 109.40234375 -238.863277365 c 0
 106.650445861 -238.863277365 104.403316734 -236.640761541 104.403330621 -233.856213252 c 2xa0
 104.772387283 -2.76025532612 l 1
 25.2766150197 43.1161801604 l 1
 22.5552952344 43.168813689 20.3772132714 45.3860353921 20.3750055391 48.1101753798 c 2
 20.0009804473 509.625 l 2xc0
EndSplineSet
EndChar

StartChar: z
Encoding: 122 122 91
Width: 318
GlyphClass: 1
Flags: W
HStem: -5.15625 102.55<200.102 276.467> 409.748 102.508<41.8856 118.251>
VStem: 193.201 91.2384<301.626 458.557>
LayerCount: 2
Fore
SplineSet
324.352535178 46.0771484375 m 0
 324.352535178 45.5023455122 324.206291909 43.1008027642 321.84805791 41.7427665604 c 2
 241.561925097 -4.49160843963 l 2
 240.792494867 -4.93470022335 239.92993884 -5.1562461152 239.067382812 -5.1562461152 c 2
 119.19921875 -5.1562461152 l 2
 118.334860117 -5.1562461152 117.470501485 -4.93377326436 116.699853725 -4.48882756269 c 0
 48.6327316702 34.8108044686 36.2485602647 41.8786141109 35.5855598441 42.5416145316 c 0
 34.6099027462 43.5172716294 34.1220741973 44.7972100335 34.1221624082 46.1489432821 c 0
 34.1223387015 46.1489432821 35.0782170713 207.719259905 35.0782170713 207.719259905 c 2
 35.0916919916 209.996480142 36.6299444414 211.937031766 38.766082444 212.514599246 c 2
 109.807075906 253.508734823 l 1
 77.3670459164 272.595089397 77.3670459164 272.595089397 76.9136848441 273.048450469 c 0
 75.9380277462 274.024107567 75.4501991973 275.304045971 75.4501991973 276.583984375 c 0
 75.4501991973 277.169601467 75.5992060694 279.53415097 77.9166108003 280.896219731 c 0
 119.124158322 305.116207053 119.124158322 305.116207053 120.48828125 305.116207053 c 0
 121.849656833 305.116207053 121.849656833 305.116207053 160.21713825 282.618482214 c 1
 193.201033661 301.626220305 l 1
 193.402549377 458.556820995 l 1
 179.234564432 466.762947905 l 1
 81.6608788921 410.415689342 l 2
 80.8901350107 409.970596954 80.0256339116 409.748050759 79.1611328125 409.748050759 c 0
 78.2962472763 409.748050759 77.4313617401 409.970794927 76.6603585566 410.416283262 c 0
 9.0800171336 449.464440823 -3.87174277088 456.865128084 -4.53553390593 457.528919219 c 0
 -5.51119100378 458.504576317 -5.9990195527 459.784514721 -5.9990195527 461.064453125 c 0
 -5.9990195527 461.638959197 -5.85287357146 464.04128281 -3.4938032995 465.399260477 c 2
 76.751313888 511.59164329 l 2
 77.5205573955 512.034451424 78.3828372915 512.255855491 79.2451171875 512.255855491 c 2
 199.11328125 512.255855491 l 2
 199.97700825 512.255855491 200.84073525 512.033707666 201.610956665 511.589412018 c 0
 270.061860354 472.104092562 282.064074829 465.262852358 282.726940156 464.599987031 c 0
 283.702597254 463.624329933 284.190425803 462.344391529 284.190345062 461.03593245 c 2
 283.293511853 302.639107726 l 2
 284.057470111 301.717341781 284.439449241 300.58474511 284.439449241 299.452148438 c 0
 284.439449241 297.609480647 283.441063643 295.987913561 281.941049404 295.121272098 c 2
 209.847191044 253.469000469 l 1
 243.063950186 233.966102002 243.063950186 233.966102002 243.518932344 233.511119844 c 0
 244.494589442 232.535462746 244.982417991 231.255524342 244.982417991 229.975585938 c 0
 244.982417991 228.131837891 243.98283064 226.509282904 242.481068411 225.643006718 c 0
 200.745660222 201.568363259 200.745660222 201.568363259 199.403320312 201.568363259 c 0
 198.037161564 201.568363259 198.037161564 201.568363259 159.340006673 224.352492992 c 1
 125.150535983 204.606459014 l 1
 124.910686281 48.587520195 l 1
 139.117188637 40.3770718589 l 1
 236.693613295 96.7259122196 l 2
 237.464357177 97.1710046083 238.328858276 97.3935508027 239.193359375 97.3935508027 c 0
 240.058253384 97.3935508027 240.923147394 97.1708022708 241.694156291 96.7253052069 c 0
 309.271163531 57.6785984625 322.225264554 50.2764673207 322.889049531 49.6126823434 c 0
 323.864706629 48.6370252456 324.352535178 47.3570868415 324.352535178 46.0771484375 c 0
203.018104065 249.523491208 m 1
 203.018104065 249.523491208 203.020590014 249.524927466 203.018104065 249.523491208 c 1
EndSplineSet
EndChar

StartChar: braceleft
Encoding: 123 123 92
Width: 493
GlyphClass: 1
Flags: W
LayerCount: 2
Fore
SplineSet
462.698242188 829.805664062 m 1
 354.596679688 829.805664062 l 1
 246.495117188 892.213867188 l 1
 354.596679688 892.213867188 l 1
 462.698242188 829.805664062 l 1
354.762695312 62.7412109375 m 1
 462.864257812 62.7412109375 l 1
 354.762695312 0.3330078125 l 1
 246.661132812 0.3330078125 l 1
 354.762695312 62.7412109375 l 1
244.790039062 384.759765625 m 1
 245.124023438 384.759765625 l 1
 245.540039062 0.0009765625 l 1
 137.479492188 62.3671875 l 1
 137.022460938 384.759765625 l 1
 136.689453125 384.759765625 l 1
 30.16796875 446.252929688 l 1
 30.001953125 446.252929688 l 1
 136.5234375 507.788085938 l 1
 136.897460938 507.788085938 l 1
 137.354492188 830.180664062 l 1
 245.373046875 892.546875 l 1
 244.95703125 507.788085938 l 1
 244.624023438 507.788085938 l 1
 138.060546875 446.252929688 l 1
 138.185546875 446.252929688 l 1
 244.790039062 384.759765625 l 1
EndSplineSet
Validated: 1
EndChar

StartChar: verticalbar
Encoding: 124 124 93
Width: 134
GlyphClass: 1
Flags: W
LayerCount: 2
Fore
SplineSet
103.883789062 0 m 1
 30 0 l 1
 30 916.578125 l 1
 103.883789062 916.578125 l 1
 103.883789062 0 l 1
EndSplineSet
Validated: 1
EndChar

StartChar: braceright
Encoding: 125 125 94
Width: 493
GlyphClass: 1
Flags: W
LayerCount: 2
Fore
SplineSet
462.698242188 446.251953125 m 1
 462.864257812 446.251953125 l 1
 356.342773438 384.758789062 l 1
 355.96875 384.758789062 l 1
 355.51171875 62.3662109375 l 1
 247.493164062 -0 l 1
 247.8671875 384.758789062 l 1
 248.241210938 384.758789062 l 1
 354.8046875 446.251953125 l 1
 354.6796875 446.251953125 l 1
 248.075195312 507.787109375 l 1
 247.7421875 507.787109375 l 1
 247.326171875 892.545898438 l 1
 355.38671875 830.1796875 l 1
 355.84375 507.787109375 l 1
 356.176757812 507.787109375 l 1
 462.698242188 446.251953125 l 1
30.166015625 62.740234375 m 1
 138.267578125 62.740234375 l 1
 246.369140625 0.33203125 l 1
 138.267578125 0.33203125 l 1
 30.166015625 62.740234375 l 1
246.203125 892.212890625 m 1
 138.1015625 829.8046875 l 1
 30 829.8046875 l 1
 138.1015625 892.212890625 l 1
 246.203125 892.212890625 l 1
EndSplineSet
Validated: 1
EndChar

StartChar: asciitilde
Encoding: 126 126 95
Width: 534
GlyphClass: 1
Flags: W
LayerCount: 2
Fore
SplineSet
528.631835938 354.360351562 m 1
 416.74609375 311.9921875 l 1
 367.684570312 319.974609375 l 1
 367.892578125 319.80859375 l 1
 289.310546875 332.573242188 l 1
 289.14453125 332.698242188 l 1
 237.005859375 341.138671875 l 1
 99.6337890625 289 l 1
 6.9990234375 364.546875 l 1
 118.884765625 406.873046875 l 1
 169.651367188 398.640625 l 1
 169.693359375 398.598632812 l 1
 218.130859375 390.782226562 l 1
 218.296875 390.616210938 l 1
 296.670898438 377.893554688 l 1
 297.418945312 377.26953125 l 1
 435.997070312 429.907226562 l 1
 528.631835938 354.360351562 l 1
EndSplineSet
Validated: 1
EndChar

StartChar: cent
Encoding: 162 162 97
Width: 389
GlyphClass: 1
Flags: W
LayerCount: 2
Fore
SplineSet
191.8203125 165.645507812 m 1
 275.349609375 213.833984375 l 1
 358.836914062 213.833984375 l 1
 275.349609375 165.645507812 l 1
 191.8203125 165.645507812 l 1
275.806640625 623.997070312 m 1
 191.819335938 367.087890625 l 1
 191.819335938 165.64453125 l 1
 136.521484375 197.909179688 l 1
 77.4814453125 17.212890625 l 1
 30 0 l 1
 108.33203125 239.5703125 l 1
 108.33203125 624.329101562 l 1
 191.819335938 672.80859375 l 1
 191.819335938 495.022460938 l 1
 240.547851562 644.078125 l 1
 191.819335938 672.184570312 l 1
 249.737304688 672.184570312 l 1
 306.19921875 844.856445312 l 1
 353.639648438 862.111328125 l 1
 288.986328125 664.327148438 l 1
 358.836914062 623.997070312 l 1
 275.806640625 623.997070312 l 1
EndSplineSet
Validated: 5
EndChar

StartChar: yen
Encoding: 165 165 98
Width: 461
GlyphClass: 1
Flags: W
LayerCount: 2
Fore
SplineSet
431.348632812 226.971679688 m 1
 274.103515625 226.971679688 l 1
 273.978515625 176.081054688 l 1
 431.349609375 176.081054688 l 1
 431.349609375 101.241210938 l 1
 273.728515625 101.241210938 l 1
 273.603515625 49.9755859375 l 1
 187.0390625 -0.0009765625 l 1
 187.288085938 101.240234375 l 1
 30 101.240234375 l 1
 30 176.080078125 l 1
 187.454101562 176.080078125 l 1
 187.579101562 226.970703125 l 1
 30 226.970703125 l 1
 30 301.810546875 l 1
 187.787109375 301.810546875 l 1
 187.912109375 350.9140625 l 1
 187.205078125 350.9140625 l 1
 100.598632812 400.890625 l 1
 100.224609375 702.661132812 l 1
 186.7890625 652.643554688 l 1
 187.205078125 400.891601562 l 1
 273.64453125 350.998046875 l 1
 274.559570312 650.897460938 l 1
 361.124023438 700.915039062 l 1
 360.250976562 350 l 1
 274.4765625 350 l 1
 274.3515625 301.811523438 l 1
 431.348632812 301.811523438 l 1
 431.348632812 226.971679688 l 1
EndSplineSet
Validated: 1
EndChar

StartChar: copyright
Encoding: 169 169 99
Width: 651
GlyphClass: 1
Flags: W
LayerCount: 2
Fore
SplineSet
536.623046875 615.140625 m 1
 621.068359375 566.412109375 l 1
 621.068359375 48.7294921875 l 1
 620.528320312 48.7294921875 l 1
 536.083984375 0.0009765625 l 1
 114.4453125 0.0009765625 l 1
 30.0009765625 48.7294921875 l 1
 30.0009765625 566.412109375 l 1
 30.541015625 566.412109375 l 1
 114.943359375 615.140625 l 1
 536.623046875 615.140625 l 1
536.083984375 48.7294921875 m 1
 536.666015625 48.7294921875 l 1
 536.666015625 566.412109375 l 1
 457.709960938 611.981445312 l 1
 193.94140625 611.981445312 l 1
 114.985351562 566.412109375 l 1
 114.4453125 566.412109375 l 1
 114.4453125 48.7294921875 l 1
 193.401367188 3.16015625 l 1
 457.127929688 3.16015625 l 1
 536.083984375 48.7294921875 l 1
302.29296875 272.291992188 m 1
 302.375976562 87.3544921875 l 1
 250.279296875 117.124023438 l 1
 250.362304688 289.421875 l 1
 250.404296875 491.655273438 l 1
 302.500976562 521.466796875 l 1
 302.29296875 272.291992188 l 1
302.375976562 87.3125 m 1
 354.098632812 117.165039062 l 1
 405.821289062 117.165039062 l 1
 354.098632812 87.3125 l 1
 302.375976562 87.3125 l 1
302.500976562 521.465820312 m 1
 354.223632812 521.465820312 l 1
 405.946289062 491.61328125 l 1
 354.223632812 491.61328125 l 1
 302.500976562 521.465820312 l 1
EndSplineSet
Validated: 1
EndChar

StartChar: guillemotleft
Encoding: 171 171 100
Width: 418
GlyphClass: 1
Flags: W
LayerCount: 2
Fore
SplineSet
30 136.915039062 m 1
 30 273.830078125 l 1
 178.930664062 410.745117188 l 1
 178.930664062 273.830078125 l 1
 104.46484375 205.393554688 l 1
 178.930664062 136.915039062 l 1
 178.930664062 0 l 1
 30 136.915039062 l 1
387.692382812 410.745117188 m 1
 387.692382812 273.830078125 l 1
 313.2265625 205.393554688 l 1
 387.692382812 136.915039062 l 1
 387.692382812 0 l 1
 238.76171875 136.915039062 l 1
 238.76171875 273.830078125 l 1
 387.692382812 410.745117188 l 1
EndSplineSet
Validated: 1
EndChar

StartChar: registered
Encoding: 174 174 102
Width: 651
GlyphClass: 1
Flags: W
LayerCount: 2
Fore
SplineSet
536.623046875 615.140625 m 1
 621.068359375 566.412109375 l 1
 621.068359375 48.7294921875 l 1
 620.528320312 48.7294921875 l 1
 536.083984375 0.0009765625 l 1
 114.4453125 0.0009765625 l 1
 30.0009765625 48.7294921875 l 1
 30.0009765625 566.412109375 l 1
 30.541015625 566.412109375 l 1
 114.943359375 615.140625 l 1
 536.623046875 615.140625 l 1
536.083984375 48.7294921875 m 1
 536.666015625 48.7294921875 l 1
 536.666015625 566.412109375 l 1
 457.709960938 611.981445312 l 1
 193.94140625 611.981445312 l 1
 114.985351562 566.412109375 l 1
 114.4453125 566.412109375 l 1
 114.4453125 48.7294921875 l 1
 193.401367188 3.16015625 l 1
 457.127929688 3.16015625 l 1
 536.083984375 48.7294921875 l 1
396.965820312 340.146484375 m 1
 345.701171875 310.418945312 l 1
 397.381835938 280.56640625 l 1
 397.381835938 101.408203125 l 1
 371.520507812 116.334960938 l 1
 344.869140625 131.71875 l 1
 345.659179688 280.56640625 l 1
 293.936523438 310.418945312 l 1
 345.451171875 310.418945312 l 1
 345.451171875 489.784179688 l 1
 345.243164062 489.784179688 l 1
 293.936523438 519.428710938 l 1
 345.243164062 519.63671875 l 1
 396.965820312 489.784179688 l 1
 396.965820312 340.146484375 l 1
266.205078125 535.64453125 m 1
 293.9375 519.430664062 l 1
 293.9375 131.303710938 l 1
 293.8125 131.303710938 l 1
 242.08984375 101.409179688 l 1
 242.08984375 131.344726562 l 1
 242.21484375 131.344726562 l 1
 242.21484375 519.4296875 l 1
 214.44140625 535.64453125 l 1
 266.205078125 535.64453125 l 1
EndSplineSet
Validated: 5
EndChar

StartChar: degree
Encoding: 176 176 103
Width: 223
GlyphClass: 1
Flags: W
LayerCount: 2
Fore
SplineSet
123.7578125 711.600585938 m 1
 170.44921875 711.68359375 l 1
 170.44921875 455.025390625 l 1
 123.6328125 428 l 1
 76.81640625 428 l 1
 123.6328125 455.025390625 l 1
 123.6328125 711.517578125 l 1
 77.06640625 684.658203125 l 1
 76.8173828125 684.658203125 l 1
 76.8173828125 428 l 1
 30.0009765625 428.083007812 l 1
 30.0009765625 684.658203125 l 1
 30.25 684.658203125 l 1
 77.06640625 711.68359375 l 1
 123.8828125 711.68359375 l 1
 123.7578125 711.600585938 l 1
EndSplineSet
Validated: 5
EndChar

StartChar: acute
Encoding: 180 180 104
Width: 264
GlyphClass: 1
Flags: W
LayerCount: 2
Fore
SplineSet
130.60546875 433.51171875 m 1
 256.2109375 433.51171875 l 1
 130.60546875 361 l 1
 5 361 l 1
 130.60546875 433.51171875 l 1
EndSplineSet
Validated: 1
EndChar

StartChar: cedilla
Encoding: 184 184 105
Width: 129
GlyphClass: 1
Flags: W
LayerCount: 2
Fore
SplineSet
51.24609375 96.66796875 m 1
 98.8935546875 96.66796875 l 1
 98.8935546875 49.0205078125 l 1
 62.0146484375 0.0009765625 l 1
 30 0.0009765625 l 1
 51.24609375 49.0205078125 l 1
 51.24609375 96.66796875 l 1
EndSplineSet
Validated: 1
EndChar

StartChar: guillemotright
Encoding: 187 187 106
Width: 418
GlyphClass: 1
Flags: W
LayerCount: 2
Fore
SplineSet
238.760742188 410.745117188 m 1
 387.69140625 273.830078125 l 1
 387.69140625 136.915039062 l 1
 238.760742188 0 l 1
 238.760742188 136.915039062 l 1
 313.2265625 205.393554688 l 1
 238.760742188 273.830078125 l 1
 238.760742188 410.745117188 l 1
29.9990234375 273.830078125 m 1
 29.9990234375 410.745117188 l 1
 178.9296875 273.830078125 l 1
 178.9296875 136.915039062 l 1
 29.9990234375 0 l 1
 29.9990234375 136.915039062 l 1
 104.46484375 205.393554688 l 1
 29.9990234375 273.830078125 l 1
EndSplineSet
Validated: 1
EndChar

StartChar: Agrave
Encoding: 192 192 107
Width: 318
GlyphClass: 1
Flags: W
LayerCount: 2
Fore
SplineSet
116.002929688 696.923828125 m 1
 116.002929688 348.461914062 l 1
 202.234375 298.693359375 l 1
 116.002929688 298.693359375 l 1
 116.002929688 0 l 1
 29.771484375 0 l 1
 29.771484375 696.923828125 l 1
 116.002929688 696.923828125 l 1
288.383789062 647.197265625 m 1
 288.508789062 647.197265625 l 1
 288.508789062 0.0009765625 l 1
 202.235351562 0.0009765625 l 1
 202.235351562 647.114257812 l 1
 116.00390625 696.923828125 l 1
 202.235351562 696.923828125 l 1
 288.383789062 647.197265625 l 1
271.212890625 744.447265625 m 1
 145.607421875 744.447265625 l 1
 20.001953125 816.958984375 l 1
 145.607421875 816.958984375 l 1
 271.212890625 744.447265625 l 1
EndSplineSet
Validated: 1
EndChar

StartChar: Aacute
Encoding: 193 193 108
Width: 318
GlyphClass: 1
Flags: W
LayerCount: 2
Fore
SplineSet
116.231445312 696.923828125 m 1
 116.231445312 348.461914062 l 1
 202.462890625 298.693359375 l 1
 116.231445312 298.693359375 l 1
 116.231445312 0 l 1
 30 0 l 1
 30 696.923828125 l 1
 116.231445312 696.923828125 l 1
202.462890625 696.923828125 m 1
 288.611328125 647.197265625 l 1
 288.736328125 647.197265625 l 1
 288.736328125 0.0009765625 l 1
 202.462890625 0.0009765625 l 1
 202.462890625 647.114257812 l 1
 116.231445312 696.923828125 l 1
 202.462890625 696.923828125 l 1
315.470703125 816.958984375 m 1
 189.823242188 744.447265625 l 1
 64.2177734375 744.447265625 l 1
 189.823242188 816.958984375 l 1
 315.470703125 816.958984375 l 1
EndSplineSet
Validated: 5
EndChar

StartChar: Acircumflex
Encoding: 194 194 109
Width: 318
GlyphClass: 1
Flags: W
LayerCount: 2
Fore
SplineSet
115.87890625 696.923828125 m 1
 115.87890625 348.50390625 l 1
 202.110351562 298.735351562 l 1
 115.87890625 298.735351562 l 1
 115.87890625 0.0419921875 l 1
 29.6474609375 0.0419921875 l 1
 29.6474609375 696.923828125 l 1
 115.87890625 696.923828125 l 1
202.110351562 696.923828125 m 1
 288.258789062 647.197265625 l 1
 288.383789062 647.197265625 l 1
 288.383789062 0.0419921875 l 1
 202.110351562 0.0419921875 l 1
 202.110351562 647.155273438 l 1
 115.87890625 696.923828125 l 1
 202.110351562 696.923828125 l 1
147.14453125 797.458984375 m 1
 98.4150390625 744.447265625 l 1
 0.9990234375 744.447265625 l 1
 98.4150390625 850.428710938 l 1
 195.873046875 850.428710938 l 1
 293.2890625 744.447265625 l 1
 195.873046875 744.447265625 l 1
 147.14453125 797.458984375 l 1
EndSplineSet
Validated: 5
EndChar

StartChar: Atilde
Encoding: 195 195 110
Width: 318
GlyphClass: 1
Flags: W
LayerCount: 2
Fore
SplineSet
116.323242188 696.923828125 m 1
 116.323242188 348.461914062 l 1
 202.5546875 298.693359375 l 1
 116.323242188 298.693359375 l 1
 116.323242188 0 l 1
 30.091796875 0 l 1
 30.091796875 696.923828125 l 1
 116.323242188 696.923828125 l 1
202.5546875 696.923828125 m 1
 288.703125 647.197265625 l 1
 288.828125 647.197265625 l 1
 288.828125 0.0009765625 l 1
 202.5546875 0.0009765625 l 1
 202.5546875 647.114257812 l 1
 116.323242188 696.923828125 l 1
 202.5546875 696.923828125 l 1
146.96484375 786.7734375 m 1
 52.9990234375 758.668945312 l 1
 -5.001953125 813.467773438 l 1
 71.5009765625 836.251953125 l 1
 104.887695312 828.310546875 l 1
 104.9296875 828.268554688 l 1
 136.819335938 820.701171875 l 1
 136.944335938 820.576171875 l 1
 188.458984375 808.352539062 l 1
 188.958007812 807.895507812 l 1
 283.754882812 836.209960938 l 1
 341.755859375 781.411132812 l 1
 265.252929688 758.626953125 l 1
 232.947265625 766.318359375 l 1
 233.072265625 766.193359375 l 1
 181.391601562 778.5 l 1
 181.266601562 778.583007812 l 1
 146.96484375 786.7734375 l 1
EndSplineSet
Validated: 5
EndChar

StartChar: Adieresis
Encoding: 196 196 111
Width: 340
GlyphClass: 1
Flags: W
LayerCount: 2
Fore
SplineSet
137.9765625 696.923828125 m 1
 137.9765625 348.502929688 l 1
 224.208007812 298.693359375 l 1
 137.9765625 298.693359375 l 1
 137.9765625 0 l 1
 51.7451171875 0 l 1
 51.7451171875 696.923828125 l 1
 137.9765625 696.923828125 l 1
224.208007812 696.922851562 m 1
 310.356445312 647.196289062 l 1
 310.439453125 647.196289062 l 1
 310.439453125 0 l 1
 224.208007812 -0 l 1
 224.208007812 647.11328125 l 1
 137.9765625 696.922851562 l 1
 224.208007812 696.922851562 l 1
132.404296875 741.078125 m 1
 29.9990234375 741.078125 l 1
 29.9990234375 843.483398438 l 1
 132.404296875 843.483398438 l 1
 132.404296875 741.078125 l 1
310.439453125 741.078125 m 1
 208.034179688 741.078125 l 1
 208.034179688 843.483398438 l 1
 310.439453125 843.483398438 l 1
 310.439453125 741.078125 l 1
EndSplineSet
Validated: 5
EndChar

StartChar: Aring
Encoding: 197 197 112
Width: 319
GlyphClass: 1
Flags: W
LayerCount: 2
Fore
SplineSet
288.612304688 650.065429688 m 1
 288.6953125 650.06640625 l 1
 288.6953125 0.0009765625 l 1
 202.463867188 0.0009765625 l 1
 202.463867188 650.024414062 l 1
 116.232421875 699.833984375 l 1
 116.232421875 351.372070312 l 1
 202.463867188 301.603515625 l 1
 116.232421875 301.603515625 l 1
 116.232421875 0 l 1
 30.0009765625 0 l 1
 30.0009765625 699.833984375 l 1
 116.06640625 699.833984375 l 1
 145.918945312 717.046875 l 1
 145.918945312 828.599609375 l 1
 116.232421875 811.469726562 l 1
 116.06640625 811.469726562 l 1
 116.06640625 699.833984375 l 1
 86.2548828125 699.875976562 l 1
 86.2548828125 811.469726562 l 1
 86.4208984375 811.469726562 l 1
 116.232421875 828.682617188 l 1
 146.084960938 828.682617188 l 1
 145.959960938 828.640625 l 1
 175.729492188 828.682617188 l 1
 175.729492188 717.046875 l 1
 145.91796875 699.833984375 l 1
 202.463867188 699.833984375 l 1
 288.612304688 650.065429688 l 1
EndSplineSet
Validated: 5
EndChar

StartChar: AE
Encoding: 198 198 113
Width: 448
GlyphClass: 1
Flags: W
LayerCount: 2
Fore
SplineSet
375.176757812 26.3603515625 m 1
 418.293945312 1.330078125 l 1
 288.696289062 1.330078125 l 1
 288.696289062 0 l 1
 202.46484375 0 l 1
 202.46484375 51.265625 l 1
 202.256835938 51.390625 l 1
 202.256835938 301.604492188 l 1
 116.232421875 301.604492188 l 1
 116.232421875 0.0009765625 l 1
 30.0009765625 0.0009765625 l 1
 30.0009765625 699.834960938 l 1
 116.232421875 699.834960938 l 1
 116.232421875 351.415039062 l 1
 202.256835938 301.729492188 l 1
 202.256835938 650.149414062 l 1
 116.232421875 699.834960938 l 1
 202.463867188 699.834960938 l 1
 204.750976562 698.504882812 l 1
 331.604492188 698.504882812 l 1
 417.8359375 648.736328125 l 1
 331.604492188 648.736328125 l 1
 288.48828125 673.641601562 l 1
 287.948242188 673.641601562 l 1
 288.530273438 673.30859375 l 1
 288.48828125 673.30859375 l 1
 288.48828125 650.149414062 l 1
 288.61328125 650.107421875 l 1
 288.696289062 650.107421875 l 1
 288.696289062 398.604492188 l 1
 315.264648438 398.604492188 l 1
 401.49609375 348.8359375 l 1
 288.696289062 348.8359375 l 1
 288.696289062 51.265625 l 1
 331.645507812 26.3603515625 l 1
 375.176757812 26.3603515625 l 1
EndSplineSet
Validated: 5
EndChar

StartChar: Ccedilla
Encoding: 199 199 114
Width: 262
GlyphClass: 1
Flags: W
LayerCount: 2
Fore
SplineSet
107.654296875 457.434570312 m 1
 107.98828125 -1.248046875 l 1
 24.04296875 46.732421875 l 1
 24.0009765625 457.26953125 l 1
 24.25 650.35546875 l 1
 107.737304688 698.293945312 l 1
 107.48828125 457.434570312 l 1
 107.654296875 457.434570312 l 1
274.381835938 650.189453125 m 1
 191.060546875 650.189453125 l 1
 107.739257812 698.294921875 l 1
 191.060546875 698.294921875 l 1
 274.381835938 650.189453125 l 1
191.309570312 46.8154296875 m 1
 274.630859375 46.8154296875 l 1
 191.309570312 -1.3310546875 l 1
 176.881835938 -1.3310546875 l 1
 176.881835938 -48.9375 l 1
 140.002929688 -97.9990234375 l 1
 107.98828125 -97.9990234375 l 1
 129.234375 -48.9375 l 1
 129.234375 -1.3310546875 l 1
 107.98828125 -1.3310546875 l 1
 191.309570312 46.8154296875 l 1
EndSplineSet
Validated: 1
EndChar

StartChar: Egrave
Encoding: 200 200 115
Width: 360
GlyphClass: 1
Flags: W
LayerCount: 2
Fore
SplineSet
281.211914062 752.1796875 m 1
 155.606445312 752.1796875 l 1
 30.0009765625 824.69140625 l 1
 155.606445312 824.69140625 l 1
 281.211914062 752.1796875 l 1
286.659179688 24.98828125 m 1
 329.775390625 0.0009765625 l 1
 200.01171875 0.0009765625 l 1
 156.771484375 24.9892578125 l 1
 156.896484375 24.9892578125 l 1
 113.780273438 50.060546875 l 1
 113.780273438 671.936523438 l 1
 113.655273438 671.936523438 l 1
 70.6220703125 697.173828125 l 1
 243.0859375 697.173828125 l 1
 329.317382812 647.405273438 l 1
 243.0859375 647.405273438 l 1
 200.01171875 672.268554688 l 1
 199.4296875 672.268554688 l 1
 200.01171875 671.935546875 l 1
 200.01171875 397.232421875 l 1
 226.74609375 397.232421875 l 1
 312.977539062 347.463867188 l 1
 200.177734375 347.463867188 l 1
 200.01171875 347.588867188 l 1
 200.01171875 50.0595703125 l 1
 243.127929688 24.98828125 l 1
 286.659179688 24.98828125 l 1
EndSplineSet
Validated: 1
EndChar

StartChar: Eacute
Encoding: 201 201 116
Width: 335
GlyphClass: 1
Flags: W
LayerCount: 2
Fore
SplineSet
305.243164062 824.899414062 m 1
 179.637695312 752.387695312 l 1
 54.0322265625 752.387695312 l 1
 179.637695312 824.899414062 l 1
 305.243164062 824.899414062 l 1
202.505859375 24.98828125 m 1
 246.038085938 24.9892578125 l 1
 289.154296875 0.0009765625 l 1
 159.390625 0.0009765625 l 1
 116.150390625 24.9892578125 l 1
 116.275390625 24.9892578125 l 1
 73.1591796875 50.060546875 l 1
 73.1591796875 671.936523438 l 1
 73.0341796875 671.936523438 l 1
 30.0009765625 697.173828125 l 1
 202.46484375 697.173828125 l 1
 288.696289062 647.405273438 l 1
 202.46484375 647.405273438 l 1
 159.348632812 672.268554688 l 1
 158.80859375 672.268554688 l 1
 159.390625 671.935546875 l 1
 159.348632812 671.935546875 l 1
 159.348632812 397.232421875 l 1
 186.125 397.232421875 l 1
 272.356445312 347.463867188 l 1
 159.556640625 347.463867188 l 1
 159.348632812 347.588867188 l 1
 159.348632812 50.0595703125 l 1
 202.505859375 24.98828125 l 1
EndSplineSet
Validated: 1
EndChar

StartChar: Ecircumflex
Encoding: 202 202 117
Width: 352
GlyphClass: 1
Flags: W
LayerCount: 2
Fore
SplineSet
176.145507812 805.399414062 m 1
 127.416992188 752.387695312 l 1
 30.0009765625 752.387695312 l 1
 127.416992188 858.369140625 l 1
 224.833007812 858.369140625 l 1
 322.249023438 752.387695312 l 1
 224.833007812 752.387695312 l 1
 176.145507812 805.399414062 l 1
219.053710938 25.029296875 m 1
 262.584960938 25.0302734375 l 1
 305.701171875 0.0009765625 l 1
 175.9375 0.0009765625 l 1
 132.697265625 25.0302734375 l 1
 132.822265625 25.0302734375 l 1
 89.7060546875 50.0595703125 l 1
 89.7060546875 671.9765625 l 1
 89.5810546875 671.9765625 l 1
 46.5478515625 697.172851562 l 1
 219.01171875 697.172851562 l 1
 305.243164062 647.404296875 l 1
 219.01171875 647.404296875 l 1
 175.9375 672.309570312 l 1
 175.35546875 672.309570312 l 1
 175.9375 671.9765625 l 1
 175.9375 397.2734375 l 1
 202.671875 397.2734375 l 1
 288.903320312 347.504882812 l 1
 176.103515625 347.504882812 l 1
 175.9375 347.587890625 l 1
 175.9375 50.05859375 l 1
 219.053710938 25.029296875 l 1
EndSplineSet
Validated: 1
EndChar

StartChar: Edieresis
Encoding: 203 203 118
Width: 340
GlyphClass: 1
Flags: W
LayerCount: 2
Fore
SplineSet
132.405273438 738.084960938 m 1
 30 738.084960938 l 1
 30 840.490234375 l 1
 132.405273438 840.490234375 l 1
 132.405273438 738.084960938 l 1
310.440429688 738.084960938 m 1
 208.03515625 738.084960938 l 1
 208.03515625 840.490234375 l 1
 310.440429688 840.490234375 l 1
 310.440429688 738.084960938 l 1
223.4609375 25.1123046875 m 1
 267.200195312 25.1123046875 l 1
 310.440429688 -0.0009765625 l 1
 180.219726562 -0.0009765625 l 1
 136.854492188 25.1123046875 l 1
 136.979492188 25.1123046875 l 1
 93.697265625 50.2255859375 l 1
 93.697265625 674.263671875 l 1
 93.572265625 674.263671875 l 1
 50.373046875 699.583984375 l 1
 223.4609375 699.583984375 l 1
 309.983398438 649.649414062 l 1
 223.4609375 649.649414062 l 1
 180.178710938 674.637695312 l 1
 179.638671875 674.637695312 l 1
 180.220703125 674.263671875 l 1
 180.178710938 674.263671875 l 1
 180.178710938 398.645507812 l 1
 207.079101562 398.645507812 l 1
 293.560546875 348.668945312 l 1
 180.38671875 348.668945312 l 1
 180.178710938 348.793945312 l 1
 180.178710938 50.2255859375 l 1
 223.4609375 25.1123046875 l 1
EndSplineSet
Validated: 1
EndChar

StartChar: Igrave
Encoding: 204 204 119
Width: 311
GlyphClass: 1
Flags: W
LayerCount: 2
Fore
SplineSet
155.60546875 812.467773438 m 1
 281.2109375 739.956054688 l 1
 155.60546875 739.956054688 l 1
 30 812.467773438 l 1
 155.60546875 812.467773438 l 1
242.91796875 699.791992188 m 1
 242.709960938 649.692382812 l 1
 243.166992188 0.0009765625 l 1
 155.604492188 0.0009765625 l 1
 155.8125 50.1015625 l 1
 155.9375 50.1015625 l 1
 155.9375 649.69140625 l 1
 242.91796875 699.791992188 l 1
EndSplineSet
Validated: 1
EndChar

StartChar: Iacute
Encoding: 205 205 120
Width: 311
GlyphClass: 1
Flags: W
LayerCount: 2
Fore
SplineSet
155.60546875 820.284179688 m 1
 281.2109375 820.284179688 l 1
 155.60546875 747.772460938 l 1
 30 747.772460938 l 1
 155.60546875 820.284179688 l 1
136.6875 699.791992188 m 1
 136.479492188 649.692382812 l 1
 136.936523438 0.0009765625 l 1
 49.3740234375 0.0009765625 l 1
 49.58203125 50.1015625 l 1
 49.70703125 50.1015625 l 1
 49.70703125 649.69140625 l 1
 136.6875 699.791992188 l 1
EndSplineSet
Validated: 1
EndChar

StartChar: Icircumflex
Encoding: 206 206 121
Width: 352
GlyphClass: 1
Flags: W
LayerCount: 2
Fore
SplineSet
224.833007812 853.75390625 m 1
 322.249023438 747.772460938 l 1
 224.833007812 747.772460938 l 1
 176.145507812 800.784179688 l 1
 127.416992188 747.772460938 l 1
 30.0009765625 747.772460938 l 1
 127.416992188 853.75390625 l 1
 224.833007812 853.75390625 l 1
219.510742188 699.791992188 m 1
 219.302734375 649.732421875 l 1
 219.759765625 0 l 1
 132.197265625 -0 l 1
 132.405273438 50.1005859375 l 1
 132.530273438 50.1005859375 l 1
 132.530273438 649.732421875 l 1
 219.510742188 699.791992188 l 1
EndSplineSet
Validated: 1
EndChar

StartChar: Idieresis
Encoding: 207 207 122
Width: 340
GlyphClass: 1
Flags: W
LayerCount: 2
Fore
SplineSet
126.708984375 50.142578125 m 1
 126.709960938 649.732421875 l 1
 213.731445312 699.833007812 l 1
 213.482421875 649.732421875 l 1
 213.482421875 49.9345703125 l 1
 213.06640625 49.9345703125 l 1
 126.376953125 0 l 1
 126.625976562 50.142578125 l 1
 126.708984375 50.142578125 l 1
132.40625 741.868164062 m 1
 30.0009765625 741.868164062 l 1
 30.0009765625 844.2734375 l 1
 132.40625 844.2734375 l 1
 132.40625 741.868164062 l 1
310.44140625 741.868164062 m 1
 208.036132812 741.868164062 l 1
 208.036132812 844.2734375 l 1
 310.44140625 844.2734375 l 1
 310.44140625 741.868164062 l 1
EndSplineSet
Validated: 1
EndChar

StartChar: Ntilde
Encoding: 209 209 123
Width: 407
GlyphClass: 1
Flags: W
LayerCount: 2
Fore
SplineSet
182.0078125 785.69140625 m 1
 88 757.625976562 l 1
 29.9990234375 812.383789062 l 1
 106.54296875 835.16796875 l 1
 139.9296875 827.2265625 l 1
 139.971679688 827.184570312 l 1
 171.8203125 819.6171875 l 1
 171.9453125 819.534179688 l 1
 223.501953125 807.268554688 l 1
 223.958984375 806.811523438 l 1
 318.797851562 835.125976562 l 1
 376.798828125 780.327148438 l 1
 300.254882812 757.583984375 l 1
 267.990234375 765.234375 l 1
 268.115234375 765.151367188 l 1
 216.392578125 777.416992188 l 1
 216.309570312 777.541992188 l 1
 182.0078125 785.69140625 l 1
116.938476562 675.260742188 m 1
 160.51171875 700.415039062 l 1
 247.159179688 700.415039062 l 1
 159.513671875 650.106445312 l 1
 159.638671875 0.20703125 l 1
 72.4501953125 0.041015625 l 1
 72.3671875 700.415039062 l 1
 158.557617188 650.646484375 l 1
 116.938476562 675.260742188 l 1
247.159179688 700.415039062 m 1
 334.34765625 650.106445312 l 1
 334.430664062 0.20703125 l 1
 247.284179688 -0.0009765625 l 1
 247.159179688 700.415039062 l 1
EndSplineSet
Validated: 5
EndChar

StartChar: Ograve
Encoding: 210 210 124
Width: 356
GlyphClass: 1
Flags: W
LayerCount: 2
Fore
SplineSet
239.55078125 699.168945312 m 1
 153.028320312 649.192382812 l 1
 153.028320312 0 l 1
 66.546875 0.2080078125 l 1
 66.546875 649.192382812 l 1
 153.028320312 699.168945312 l 1
 239.55078125 699.168945312 l 1
239.55078125 698.9609375 m 1
 326.032226562 699.168945312 l 1
 326.032226562 49.9345703125 l 1
 239.55078125 0 l 1
 153.028320312 -0 l 1
 239.55078125 49.9345703125 l 1
 239.55078125 698.9609375 l 1
281.211914062 746.401367188 m 1
 155.606445312 746.401367188 l 1
 30.0009765625 818.913085938 l 1
 155.606445312 818.913085938 l 1
 281.211914062 746.401367188 l 1
EndSplineSet
Validated: 5
EndChar

StartChar: Oacute
Encoding: 211 211 125
Width: 358
GlyphClass: 1
Flags: W
LayerCount: 2
Fore
SplineSet
203.00390625 699.126953125 m 1
 116.522460938 649.192382812 l 1
 116.522460938 0 l 1
 30 0.2080078125 l 1
 30 649.192382812 l 1
 116.522460938 699.126953125 l 1
 203.00390625 699.126953125 l 1
203.00390625 49.9345703125 m 1
 203.00390625 698.919921875 l 1
 289.526367188 699.168945312 l 1
 289.526367188 49.9345703125 l 1
 203.00390625 0 l 1
 116.522460938 -0 l 1
 203.00390625 49.9345703125 l 1
327.819335938 827.810546875 m 1
 202.213867188 755.298828125 l 1
 76.6083984375 755.298828125 l 1
 202.213867188 827.810546875 l 1
 327.819335938 827.810546875 l 1
EndSplineSet
Validated: 5
EndChar

StartChar: Ocircumflex
Encoding: 212 212 126
Width: 352
GlyphClass: 1
Flags: W
LayerCount: 2
Fore
SplineSet
219.385742188 699.168945312 m 1
 132.86328125 649.235351562 l 1
 132.86328125 0.0009765625 l 1
 46.3818359375 0.25 l 1
 46.3818359375 649.234375 l 1
 132.86328125 699.168945312 l 1
 219.385742188 699.168945312 l 1
219.385742188 49.9775390625 m 1
 219.385742188 698.961914062 l 1
 305.908203125 699.169921875 l 1
 305.908203125 49.9775390625 l 1
 219.385742188 0.0009765625 l 1
 132.86328125 0.0009765625 l 1
 219.385742188 49.9775390625 l 1
176.145507812 804.111328125 m 1
 127.416992188 751.099609375 l 1
 30.0009765625 751.099609375 l 1
 127.416992188 857.081054688 l 1
 224.833007812 857.081054688 l 1
 322.249023438 751.099609375 l 1
 224.833007812 751.099609375 l 1
 176.145507812 804.111328125 l 1
EndSplineSet
Validated: 5
EndChar

StartChar: Otilde
Encoding: 213 213 127
Width: 407
GlyphClass: 1
Flags: W
LayerCount: 2
Fore
SplineSet
246.744140625 699.126953125 m 1
 160.262695312 649.192382812 l 1
 160.262695312 0 l 1
 73.740234375 0.2080078125 l 1
 73.740234375 649.192382812 l 1
 160.262695312 699.126953125 l 1
 246.744140625 699.126953125 l 1
246.744140625 49.9345703125 m 1
 246.744140625 698.918945312 l 1
 333.266601562 699.126953125 l 1
 333.266601562 49.9345703125 l 1
 246.744140625 0 l 1
 160.262695312 -0 l 1
 246.744140625 49.9345703125 l 1
182.0078125 780.868164062 m 1
 88 752.802734375 l 1
 29.9990234375 807.560546875 l 1
 106.54296875 830.344726562 l 1
 139.9296875 822.403320312 l 1
 139.971679688 822.361328125 l 1
 171.8203125 814.793945312 l 1
 171.9453125 814.7109375 l 1
 223.501953125 802.4453125 l 1
 223.958984375 801.98828125 l 1
 318.797851562 830.302734375 l 1
 376.798828125 775.50390625 l 1
 300.254882812 752.760742188 l 1
 267.990234375 760.411132812 l 1
 268.115234375 760.328125 l 1
 216.392578125 772.59375 l 1
 216.309570312 772.71875 l 1
 182.0078125 780.868164062 l 1
EndSplineSet
Validated: 5
EndChar

StartChar: Odieresis
Encoding: 214 214 128
Width: 340
GlyphClass: 1
Flags: W
LayerCount: 2
Fore
SplineSet
213.565429688 699.168945312 m 1
 127.04296875 649.235351562 l 1
 127.04296875 0.0009765625 l 1
 40.5205078125 0.25 l 1
 40.5205078125 649.234375 l 1
 127.04296875 699.168945312 l 1
 213.565429688 699.168945312 l 1
213.565429688 49.9775390625 m 1
 213.565429688 698.961914062 l 1
 300.046875 699.169921875 l 1
 300.046875 49.9775390625 l 1
 213.565429688 0.0009765625 l 1
 127.04296875 0.0009765625 l 1
 213.565429688 49.9775390625 l 1
132.40625 752.887695312 m 1
 30.0009765625 752.887695312 l 1
 30.0009765625 855.29296875 l 1
 132.40625 855.29296875 l 1
 132.40625 752.887695312 l 1
310.44140625 752.887695312 m 1
 208.036132812 752.887695312 l 1
 208.036132812 855.29296875 l 1
 310.44140625 855.29296875 l 1
 310.44140625 752.887695312 l 1
EndSplineSet
Validated: 5
EndChar

StartChar: Oslash
Encoding: 216 216 129
Width: 659
GlyphClass: 1
Flags: W
LayerCount: 2
Fore
SplineSet
628.55078125 700.291015625 m 1
 480.451171875 511.155273438 l 1
 480.451171875 49.935546875 l 1
 393.928710938 0.0009765625 l 1
 307.447265625 0.0009765625 l 1
 393.928710938 49.935546875 l 1
 393.928710938 400.68359375 l 1
 307.447265625 290.25390625 l 1
 307.447265625 0.0009765625 l 1
 220.924804688 0.208984375 l 1
 220.924804688 179.782226562 l 1
 80.517578125 0.5 l 1
 30.0009765625 0.5 l 1
 220.924804688 244.26953125 l 1
 220.924804688 649.193359375 l 1
 307.447265625 699.127929688 l 1
 393.928710938 699.127929688 l 1
 307.447265625 649.193359375 l 1
 307.447265625 354.69921875 l 1
 393.928710938 465.170898438 l 1
 393.928710938 698.919921875 l 1
 480.451171875 699.168945312 l 1
 480.451171875 575.641601562 l 1
 578.075195312 700.291015625 l 1
 628.55078125 700.291015625 l 1
EndSplineSet
Validated: 5
EndChar

StartChar: Ugrave
Encoding: 217 217 130
Width: 343
GlyphClass: 1
Flags: W
LayerCount: 2
Fore
SplineSet
145.377929688 651.645507812 m 1
 145.377929688 48.521484375 l 1
 229.40625 48.521484375 l 1
 145.377929688 0 l 1
 61.349609375 0 l 1
 61.6826171875 0.2080078125 l 1
 61.349609375 0.2080078125 l 1
 61.349609375 651.645507812 l 1
 145.377929688 651.645507812 l 1
313.434570312 48.521484375 m 1
 229.40625 48.521484375 l 1
 229.40625 700.041992188 l 1
 313.434570312 700.041992188 l 1
 313.434570312 48.521484375 l 1
281.211914062 746.193359375 m 1
 155.606445312 746.193359375 l 1
 30.0009765625 818.705078125 l 1
 155.606445312 818.705078125 l 1
 281.211914062 746.193359375 l 1
EndSplineSet
Validated: 5
EndChar

StartChar: Uacute
Encoding: 218 218 131
Width: 354
GlyphClass: 1
Flags: W
LayerCount: 2
Fore
SplineSet
114.028320312 651.645507812 m 1
 114.028320312 48.5224609375 l 1
 198.056640625 48.5224609375 l 1
 114.028320312 0.0009765625 l 1
 30 0.0009765625 l 1
 30.3740234375 0.25 l 1
 30 0.25 l 1
 30 651.645507812 l 1
 114.028320312 651.645507812 l 1
282.084960938 48.564453125 m 1
 198.056640625 48.564453125 l 1
 198.056640625 700.084960938 l 1
 282.084960938 700.084960938 l 1
 282.084960938 48.564453125 l 1
323.662109375 818.7890625 m 1
 198.056640625 746.27734375 l 1
 72.451171875 746.27734375 l 1
 198.056640625 818.7890625 l 1
 323.662109375 818.7890625 l 1
EndSplineSet
Validated: 1
EndChar

StartChar: Ucircumflex
Encoding: 219 219 132
Width: 352
GlyphClass: 1
Flags: W
LayerCount: 2
Fore
SplineSet
134.193359375 651.603515625 m 1
 134.193359375 48.521484375 l 1
 218.221679688 48.521484375 l 1
 134.193359375 0 l 1
 50.1650390625 0 l 1
 50.498046875 0.2080078125 l 1
 50.1650390625 0.2080078125 l 1
 50.1650390625 651.603515625 l 1
 134.193359375 651.603515625 l 1
302.25 48.521484375 m 1
 218.221679688 48.521484375 l 1
 218.221679688 700.041992188 l 1
 302.25 700.041992188 l 1
 302.25 48.521484375 l 1
176.145507812 796.376953125 m 1
 127.416992188 743.365234375 l 1
 30.0009765625 743.365234375 l 1
 127.416992188 849.346679688 l 1
 224.833007812 849.346679688 l 1
 322.291015625 743.365234375 l 1
 224.833007812 743.365234375 l 1
 176.145507812 796.376953125 l 1
EndSplineSet
Validated: 5
EndChar

StartChar: Udieresis
Encoding: 220 220 133
Width: 340
GlyphClass: 1
Flags: W
LayerCount: 2
Fore
SplineSet
128.206054688 651.603515625 m 1
 128.206054688 48.4794921875 l 1
 212.234375 48.4794921875 l 1
 128.206054688 0 l 1
 44.177734375 0 l 1
 44.5517578125 0.2080078125 l 1
 44.177734375 0.2080078125 l 1
 44.177734375 651.603515625 l 1
 128.206054688 651.603515625 l 1
296.262695312 48.521484375 m 1
 212.234375 48.521484375 l 1
 212.234375 700.041992188 l 1
 296.262695312 700.041992188 l 1
 296.262695312 48.521484375 l 1
132.405273438 745.154296875 m 1
 30 745.154296875 l 1
 30 847.559570312 l 1
 132.405273438 847.559570312 l 1
 132.405273438 745.154296875 l 1
310.440429688 745.154296875 m 1
 208.03515625 745.154296875 l 1
 208.03515625 847.559570312 l 1
 310.440429688 847.559570312 l 1
 310.440429688 745.154296875 l 1
EndSplineSet
Validated: 1
EndChar

StartChar: Yacute
Encoding: 221 221 134
Width: 376
GlyphClass: 1
Flags: W
LayerCount: 2
Fore
SplineSet
203.419921875 351.0390625 m 1
 204.293945312 650.9375 l 1
 290.858398438 700.9140625 l 1
 289.985351562 350.041015625 l 1
 204.251953125 350.041015625 l 1
 203.336914062 50.017578125 l 1
 116.814453125 0 l 1
 117.645507812 350.915039062 l 1
 116.98046875 350.915039062 l 1
 30.3740234375 400.932617188 l 1
 30 702.661132812 l 1
 116.564453125 652.684570312 l 1
 116.98046875 400.932617188 l 1
 203.419921875 351.0390625 l 1
346.032226562 822.029296875 m 1
 220.426757812 749.517578125 l 1
 94.8212890625 749.517578125 l 1
 220.426757812 822.029296875 l 1
 346.032226562 822.029296875 l 1
EndSplineSet
Validated: 1
EndChar

StartChar: agrave
Encoding: 224 224 135
Width: 427
GlyphClass: 1
Flags: W
LayerCount: 2
Fore
SplineSet
313.850585938 48.6044921875 m 1
 397.462890625 48.603515625 l 1
 313.850585938 0.33203125 l 1
 313.850585938 0.0830078125 l 1
 230.196289062 0.0830078125 l 1
 230.196289062 48.8115234375 l 1
 147 0.748046875 l 1
 146.126953125 0.748046875 l 1
 146.126953125 0 l 1
 62.47265625 -0 l 1
 62.47265625 241.856445312 l 1
 62.5146484375 241.856445312 l 1
 62.5146484375 242.022460938 l 1
 146.168945312 290.293945312 l 1
 229.78125 290.293945312 l 1
 146.168945312 242.022460938 l 1
 146.54296875 222.314453125 l 1
 146.126953125 222.314453125 l 1
 146.126953125 48.5205078125 l 1
 147 49.01953125 l 1
 230.196289062 49.01953125 l 1
 230.196289062 507.080078125 l 1
 313.850585938 459.099609375 l 1
 313.850585938 48.6044921875 l 1
62.9296875 458.807617188 m 1
 146.541992188 507.079101562 l 1
 230.196289062 507.079101562 l 1
 146.541992188 458.807617188 l 1
 146.541992188 362.22265625 l 1
 62.9296875 362.22265625 l 1
 62.9296875 458.807617188 l 1
281.211914062 568.364257812 m 1
 155.606445312 568.364257812 l 1
 30.0009765625 640.875976562 l 1
 155.606445312 640.875976562 l 1
 281.211914062 568.364257812 l 1
EndSplineSet
Validated: 5
EndChar

StartChar: aacute
Encoding: 225 225 136
Width: 395
GlyphClass: 1
Flags: W
LayerCount: 2
Fore
SplineSet
281.377929688 48.6044921875 m 1
 364.98828125 48.6025390625 l 1
 281.375976562 0.3310546875 l 1
 281.375976562 0.08203125 l 1
 197.721679688 0.08203125 l 1
 197.721679688 48.76953125 l 1
 114.525390625 0.7470703125 l 1
 113.610351562 0.7470703125 l 1
 113.610351562 -0.0009765625 l 1
 29.998046875 -0.0009765625 l 1
 29.998046875 241.85546875 l 1
 30.0400390625 241.85546875 l 1
 30.0400390625 241.98046875 l 1
 41.931640625 248.8828125 l 1
 113.653320312 290.293945312 l 1
 197.307617188 290.293945312 l 1
 125.544921875 248.8828125 l 1
 113.653320312 241.98046875 l 1
 114.069335938 224.892578125 l 1
 113.612304688 224.892578125 l 1
 113.612304688 48.5205078125 l 1
 114.52734375 49.01953125 l 1
 197.723632812 49.01953125 l 1
 197.723632812 507.080078125 l 1
 281.377929688 459.099609375 l 1
 281.377929688 48.6044921875 l 1
114.067382812 458.806640625 m 1
 114.067382812 362.221679688 l 1
 30.455078125 362.221679688 l 1
 30.455078125 458.806640625 l 1
 114.067382812 507.078125 l 1
 197.721679688 507.078125 l 1
 114.067382812 458.806640625 l 1
314.512695312 640.833007812 m 1
 188.907226562 568.321289062 l 1
 63.3017578125 568.321289062 l 1
 188.907226562 640.833007812 l 1
 314.512695312 640.833007812 l 1
EndSplineSet
Validated: 1
EndChar

StartChar: acircumflex
Encoding: 226 226 137
Width: 399
GlyphClass: 1
Flags: W
LayerCount: 2
Fore
SplineSet
285.494140625 48.6044921875 m 1
 369.10546875 48.603515625 l 1
 285.493164062 0.33203125 l 1
 285.493164062 0.0830078125 l 1
 201.838867188 0.0830078125 l 1
 201.838867188 48.7705078125 l 1
 118.642578125 0.748046875 l 1
 117.727539062 0.748046875 l 1
 117.727539062 0 l 1
 34.115234375 -0 l 1
 34.115234375 241.856445312 l 1
 34.1572265625 241.856445312 l 1
 34.1572265625 242.022460938 l 1
 117.76953125 290.293945312 l 1
 201.423828125 290.293945312 l 1
 117.76953125 242.022460938 l 1
 118.185546875 222.896484375 l 1
 117.728515625 222.896484375 l 1
 117.728515625 48.5205078125 l 1
 118.643554688 49.01953125 l 1
 201.83984375 49.01953125 l 1
 201.83984375 507.080078125 l 1
 285.494140625 459.099609375 l 1
 285.494140625 48.6044921875 l 1
34.572265625 458.807617188 m 1
 118.184570312 507.079101562 l 1
 201.838867188 507.079101562 l 1
 118.184570312 458.807617188 l 1
 118.184570312 362.22265625 l 1
 34.572265625 362.22265625 l 1
 34.572265625 458.807617188 l 1
176.143554688 621.29296875 m 1
 127.415039062 568.28125 l 1
 29.9990234375 568.28125 l 1
 127.415039062 674.262695312 l 1
 224.831054688 674.262695312 l 1
 322.247070312 568.28125 l 1
 224.831054688 568.28125 l 1
 176.143554688 621.29296875 l 1
EndSplineSet
Validated: 1
EndChar

StartChar: atilde
Encoding: 227 227 138
Width: 431
GlyphClass: 1
Flags: W
LayerCount: 2
Fore
SplineSet
317.134765625 48.6044921875 m 1
 400.747070312 48.6025390625 l 1
 317.134765625 0.3310546875 l 1
 317.134765625 0.08203125 l 1
 233.48046875 0.08203125 l 1
 233.48046875 48.810546875 l 1
 150.284179688 0.7470703125 l 1
 149.369140625 0.7470703125 l 1
 149.369140625 -0.0009765625 l 1
 65.7568359375 -0.0009765625 l 1
 65.7568359375 241.897460938 l 1
 65.798828125 241.897460938 l 1
 65.798828125 242.022460938 l 1
 78.4384765625 249.33984375 l 1
 149.411132812 290.293945312 l 1
 233.065429688 290.293945312 l 1
 149.411132812 242.022460938 l 1
 149.369140625 228.176757812 l 1
 149.369140625 48.5205078125 l 1
 150.284179688 49.01953125 l 1
 233.48046875 49.01953125 l 1
 233.48046875 507.080078125 l 1
 317.134765625 459.099609375 l 1
 317.134765625 48.6044921875 l 1
66.2138671875 458.806640625 m 1
 149.826171875 507.078125 l 1
 233.48046875 507.078125 l 1
 149.826171875 458.806640625 l 1
 149.826171875 362.221679688 l 1
 66.2138671875 362.221679688 l 1
 66.2138671875 458.806640625 l 1
182.006835938 610.647460938 m 1
 87.9990234375 582.581054688 l 1
 29.998046875 637.379882812 l 1
 106.541992188 660.123046875 l 1
 139.928710938 652.181640625 l 1
 139.970703125 652.181640625 l 1
 171.819335938 644.573242188 l 1
 171.944335938 644.490234375 l 1
 223.500976562 632.224609375 l 1
 223.958007812 631.767578125 l 1
 318.796875 660.08203125 l 1
 376.797851562 605.283203125 l 1
 300.25390625 582.540039062 l 1
 267.989257812 590.190429688 l 1
 268.114257812 590.107421875 l 1
 216.391601562 602.373046875 l 1
 216.30859375 602.498046875 l 1
 182.006835938 610.647460938 l 1
EndSplineSet
Validated: 5
EndChar

StartChar: adieresis
Encoding: 228 228 139
Width: 397
GlyphClass: 1
Flags: W
LayerCount: 2
Fore
SplineSet
283.7890625 48.6044921875 m 1
 367.401367188 48.603515625 l 1
 283.7890625 0.33203125 l 1
 283.7890625 0.0830078125 l 1
 200.134765625 0.0830078125 l 1
 200.134765625 48.7705078125 l 1
 116.938476562 0.748046875 l 1
 116.065429688 0.748046875 l 1
 116.065429688 0 l 1
 32.4111328125 -0 l 1
 32.4111328125 241.856445312 l 1
 32.453125 241.856445312 l 1
 32.453125 242.022460938 l 1
 116.065429688 290.293945312 l 1
 199.719726562 290.293945312 l 1
 124.172851562 246.678710938 l 1
 116.065429688 242.022460938 l 1
 116.065429688 48.5205078125 l 1
 116.938476562 49.01953125 l 1
 200.134765625 49.01953125 l 1
 200.134765625 507.080078125 l 1
 283.7890625 459.099609375 l 1
 283.7890625 48.6044921875 l 1
32.8681640625 458.807617188 m 1
 116.48046875 507.079101562 l 1
 200.134765625 507.079101562 l 1
 116.48046875 458.807617188 l 1
 116.48046875 362.22265625 l 1
 32.8681640625 362.22265625 l 1
 32.8681640625 458.807617188 l 1
132.404296875 564.997070312 m 1
 29.9990234375 564.997070312 l 1
 29.9990234375 667.40234375 l 1
 132.404296875 667.40234375 l 1
 132.404296875 564.997070312 l 1
310.439453125 564.997070312 m 1
 208.034179688 564.997070312 l 1
 208.034179688 667.40234375 l 1
 310.439453125 667.40234375 l 1
 310.439453125 564.997070312 l 1
EndSplineSet
Validated: 5
EndChar

StartChar: aring
Encoding: 229 229 140
Width: 395
GlyphClass: 1
Flags: W
LayerCount: 2
Fore
SplineSet
281.377929688 48.6044921875 m 1
 364.990234375 48.6044921875 l 1
 281.377929688 0.3330078125 l 1
 281.377929688 0.0419921875 l 1
 197.723632812 0.0419921875 l 1
 197.723632812 48.7705078125 l 1
 114.52734375 0.748046875 l 1
 113.654296875 0.748046875 l 1
 113.654296875 0 l 1
 30 -0 l 1
 30 241.856445312 l 1
 30.0419921875 241.856445312 l 1
 30.0419921875 241.981445312 l 1
 113.654296875 290.294921875 l 1
 197.30859375 290.294921875 l 1
 121.76171875 246.6796875 l 1
 113.654296875 241.981445312 l 1
 113.654296875 48.5205078125 l 1
 114.52734375 49.01953125 l 1
 197.723632812 49.01953125 l 1
 197.723632812 507.080078125 l 1
 281.377929688 459.099609375 l 1
 281.377929688 48.6044921875 l 1
114.069335938 458.767578125 m 1
 114.069335938 362.224609375 l 1
 30.45703125 362.224609375 l 1
 30.45703125 458.767578125 l 1
 114.069335938 507.081054688 l 1
 197.723632812 507.081054688 l 1
 114.069335938 458.767578125 l 1
154.7734375 638.756835938 m 1
 154.774414062 527.12109375 l 1
 124.962890625 527.163085938 l 1
 124.962890625 638.756835938 l 1
 125.12890625 638.756835938 l 1
 154.940429688 655.969726562 l 1
 184.79296875 655.969726562 l 1
 184.66796875 655.927734375 l 1
 214.4375 655.969726562 l 1
 214.4375 544.333984375 l 1
 184.625976562 527.12109375 l 1
 154.7734375 527.12109375 l 1
 184.625976562 544.333984375 l 1
 184.625976562 655.88671875 l 1
 154.939453125 638.756835938 l 1
 154.7734375 638.756835938 l 1
EndSplineSet
Validated: 5
EndChar

StartChar: ae
Encoding: 230 230 141
Width: 480
GlyphClass: 1
Flags: W
LayerCount: 2
Fore
SplineSet
450.266601562 458.600585938 m 1
 450.30859375 216.577148438 l 1
 366.61328125 216.577148438 l 1
 366.61328125 217.325195312 l 1
 365.740234375 217.325195312 l 1
 282.044921875 265.638671875 l 1
 365.740234375 265.638671875 l 1
 366.61328125 265.139648438 l 1
 366.61328125 446.084960938 l 1
 366.571289062 458.724609375 l 1
 282.916992188 507.038085938 l 1
 366.571289062 507.038085938 l 1
 438.541992188 465.4609375 l 1
 450.266601562 458.725585938 l 1
 450.266601562 458.600585938 l 1
281.37890625 265.763671875 m 1
 281.543945312 265.763671875 l 1
 281.876953125 -0 l 1
 281.377929688 0.291015625 l 1
 281.377929688 0.166015625 l 1
 197.723632812 0.166015625 l 1
 197.723632812 48.853515625 l 1
 114.52734375 0.8310546875 l 1
 113.654296875 0.8310546875 l 1
 113.654296875 0.0830078125 l 1
 30 0.0830078125 l 1
 30 241.939453125 l 1
 30.0419921875 241.939453125 l 1
 30.0419921875 242.10546875 l 1
 113.654296875 290.376953125 l 1
 197.30859375 290.376953125 l 1
 121.76171875 246.76171875 l 1
 113.654296875 242.10546875 l 1
 113.654296875 48.603515625 l 1
 114.52734375 49.1025390625 l 1
 197.723632812 49.1025390625 l 1
 197.723632812 507.163085938 l 1
 239.67578125 483.08984375 l 1
 281.627929688 507.163085938 l 1
 281.37890625 265.763671875 l 1
281.876953125 -0 m 1
 365.032226562 48.3134765625 l 1
 448.727539062 48.3134765625 l 1
 365.032226562 0 l 1
 281.876953125 -0 l 1
114.0703125 458.891601562 m 1
 114.0703125 362.306640625 l 1
 30.4580078125 362.306640625 l 1
 30.4580078125 458.891601562 l 1
 114.0703125 507.163085938 l 1
 197.724609375 507.163085938 l 1
 114.0703125 458.891601562 l 1
EndSplineSet
Validated: 5
EndChar

StartChar: ccedilla
Encoding: 231 231 142
Width: 311
GlyphClass: 1
Flags: W
LayerCount: 2
Fore
SplineSet
113.487304688 505.831054688 m 1
 113.487304688 -1.33203125 l 1
 30 47.396484375 l 1
 30 457.309570312 l 1
 113.487304688 505.831054688 l 1
113.487304688 -1.33203125 m 1
 197.017578125 46.8564453125 l 1
 280.504882812 46.8564453125 l 1
 197.017578125 -1.33203125 l 1
 171.073242188 -1.33203125 l 1
 171.073242188 -48.9794921875 l 1
 134.15234375 -97.9990234375 l 1
 102.178710938 -97.9990234375 l 1
 123.424804688 -48.9794921875 l 1
 123.424804688 -1.33203125 l 1
 113.487304688 -1.33203125 l 1
280.504882812 457.01953125 m 1
 197.017578125 457.01953125 l 1
 113.48828125 505.208007812 l 1
 197.017578125 505.208007812 l 1
 280.504882812 457.01953125 l 1
EndSplineSet
Validated: 5
EndChar

StartChar: egrave
Encoding: 232 232 143
Width: 342
GlyphClass: 1
Flags: W
LayerCount: 2
Fore
SplineSet
312.270507812 458.600585938 m 1
 312.311523438 216.578125 l 1
 228.616210938 216.578125 l 1
 228.616210938 217.326171875 l 1
 227.743164062 217.326171875 l 1
 144.047851562 265.639648438 l 1
 227.743164062 265.639648438 l 1
 228.616210938 265.140625 l 1
 228.616210938 458.725585938 l 1
 144.920898438 507.0390625 l 1
 228.616210938 507.0390625 l 1
 300.586914062 465.502929688 l 1
 312.270507812 458.725585938 l 1
 312.270507812 458.600585938 l 1
143.381835938 265.764648438 m 1
 143.547851562 265.763671875 l 1
 143.880859375 0 l 1
 59.76953125 48.10546875 l 1
 59.7275390625 265.639648438 l 1
 59.935546875 459.141601562 l 1
 143.630859375 507.1640625 l 1
 143.381835938 265.764648438 l 1
143.880859375 -0 m 1
 227.036132812 48.3134765625 l 1
 310.731445312 48.3134765625 l 1
 227.036132812 0 l 1
 143.880859375 -0 l 1
281.211914062 579.092773438 m 1
 155.606445312 579.092773438 l 1
 30.0009765625 651.604492188 l 1
 155.606445312 651.604492188 l 1
 281.211914062 579.092773438 l 1
EndSplineSet
Validated: 5
EndChar

StartChar: eacute
Encoding: 233 233 144
Width: 326
GlyphClass: 1
Flags: W
LayerCount: 2
Fore
SplineSet
113.6953125 265.763671875 m 1
 113.862304688 265.762695312 l 1
 114.153320312 -0.0009765625 l 1
 30.0419921875 48.1044921875 l 1
 30 265.638671875 l 1
 30.2490234375 459.140625 l 1
 113.903320312 507.163085938 l 1
 113.6953125 265.763671875 l 1
114.153320312 -0.0009765625 m 1
 197.30859375 48.3125 l 1
 281.00390625 48.3125 l 1
 197.30859375 -0.0009765625 l 1
 114.153320312 -0.0009765625 l 1
295.514648438 651.603515625 m 1
 169.909179688 579.091796875 l 1
 44.3037109375 579.091796875 l 1
 169.909179688 651.603515625 l 1
 295.514648438 651.603515625 l 1
282.54296875 458.724609375 m 1
 282.54296875 458.599609375 l 1
 282.584960938 458.599609375 l 1
 282.584960938 216.576171875 l 1
 198.930664062 216.576171875 l 1
 198.930664062 217.32421875 l 1
 198.015625 217.32421875 l 1
 114.361328125 265.637695312 l 1
 198.015625 265.637695312 l 1
 198.930664062 265.138671875 l 1
 198.930664062 449.369140625 l 1
 198.888671875 458.723632812 l 1
 115.193359375 507.037109375 l 1
 198.888671875 507.037109375 l 1
 274.268554688 463.505859375 l 1
 282.54296875 458.724609375 l 1
EndSplineSet
Validated: 5
EndChar

StartChar: ecircumflex
Encoding: 234 234 145
Width: 352
GlyphClass: 1
Flags: W
LayerCount: 2
Fore
SplineSet
131.657226562 265.763671875 m 1
 131.82421875 265.763671875 l 1
 132.157226562 -0 l 1
 48.00390625 48.0634765625 l 1
 47.9619140625 265.638671875 l 1
 48.2109375 459.140625 l 1
 131.90625 507.163085938 l 1
 131.657226562 265.763671875 l 1
132.157226562 -0 m 1
 215.3125 48.3134765625 l 1
 298.966796875 48.3134765625 l 1
 215.3125 0 l 1
 132.157226562 -0 l 1
176.146484375 632.0625 m 1
 127.41796875 579.05078125 l 1
 30.001953125 579.05078125 l 1
 127.41796875 685.032226562 l 1
 224.833984375 685.032226562 l 1
 322.25 579.05078125 l 1
 224.833984375 579.05078125 l 1
 176.146484375 632.0625 l 1
300.546875 458.68359375 m 1
 300.545898438 458.55859375 l 1
 300.587890625 458.55859375 l 1
 300.587890625 216.577148438 l 1
 216.892578125 216.577148438 l 1
 216.892578125 217.325195312 l 1
 215.977539062 217.325195312 l 1
 132.323242188 265.638671875 l 1
 215.977539062 265.638671875 l 1
 216.892578125 265.098632812 l 1
 216.892578125 453.819335938 l 1
 216.850585938 458.68359375 l 1
 133.155273438 506.997070312 l 1
 216.850585938 506.997070312 l 1
 293.1875 462.924804688 l 1
 300.546875 458.68359375 l 1
EndSplineSet
Validated: 5
EndChar

StartChar: igrave
Encoding: 236 236 146
Width: 311
GlyphClass: 1
Flags: W
LayerCount: 2
Fore
SplineSet
231.02734375 508.161132812 m 1
 230.860351562 421.971679688 l 1
 230.818359375 412.159179688 l 1
 231.026367188 412.2421875 l 1
 230.860351562 372.619140625 l 1
 230.860351562 0.0009765625 l 1
 133.319335938 0.1669921875 l 1
 133.319335938 324.09765625 l 1
 133.236328125 324.055664062 l 1
 133.236328125 351.538085938 l 1
 133.278320312 351.538085938 l 1
 133.444335938 451.823242188 l 1
 231.02734375 508.161132812 l 1
281.2109375 568.865234375 m 1
 155.60546875 568.865234375 l 1
 30 641.376953125 l 1
 155.60546875 641.376953125 l 1
 281.2109375 568.865234375 l 1
EndSplineSet
Validated: 1
EndChar

StartChar: iacute
Encoding: 237 237 147
Width: 311
GlyphClass: 1
Flags: W
LayerCount: 2
Fore
SplineSet
89.373046875 451.823242188 m 1
 186.915039062 508.161132812 l 1
 186.749023438 404.923828125 l 1
 186.915039062 405.006835938 l 1
 186.915039062 383.178710938 l 1
 186.790039062 383.095703125 l 1
 186.790039062 -0 l 1
 89.20703125 0.166015625 l 1
 89.20703125 323.84765625 l 1
 89.1650390625 323.805664062 l 1
 89.1650390625 347.795898438 l 1
 89.373046875 451.823242188 l 1
281.212890625 641.375976562 m 1
 155.607421875 568.864257812 l 1
 30.001953125 568.864257812 l 1
 155.607421875 641.375976562 l 1
 281.212890625 641.375976562 l 1
EndSplineSet
Validated: 1
EndChar

StartChar: icircumflex
Encoding: 238 238 148
Width: 352
GlyphClass: 1
Flags: W
LayerCount: 2
Fore
SplineSet
121.63671875 451.782226562 m 1
 219.177734375 508.119140625 l 1
 219.01171875 412.407226562 l 1
 219.053710938 412.44921875 l 1
 219.053710938 0 l 1
 121.470703125 0.125 l 1
 121.470703125 317.819335938 l 1
 121.428710938 317.77734375 l 1
 121.428710938 359.6875 l 1
 121.470703125 359.6875 l 1
 121.63671875 451.782226562 l 1
224.83203125 674.803710938 m 1
 322.248046875 568.822265625 l 1
 224.83203125 568.822265625 l 1
 176.14453125 621.833984375 l 1
 127.416015625 568.822265625 l 1
 30 568.822265625 l 1
 127.416015625 674.803710938 l 1
 224.83203125 674.803710938 l 1
EndSplineSet
Validated: 1
EndChar

StartChar: ntilde
Encoding: 241 241 149
Width: 407
GlyphClass: 1
Flags: W
LayerCount: 2
Fore
SplineSet
127.083984375 488.620117188 m 1
 162.549804688 509.075195312 l 1
 246.12109375 509.075195312 l 1
 168.662109375 464.62890625 l 1
 161.59375 460.595703125 l 1
 161.59375 0.166015625 l 1
 77.607421875 -0 l 1
 77.607421875 509.1171875 l 1
 120.141601562 484.544921875 l 1
 120.598632812 484.793945312 l 1
 120.556640625 484.8359375 l 1
 127.000976562 488.578125 l 1
 127.083984375 488.620117188 l 1
246.12109375 -0.0009765625 m 1
 246.12109375 509.07421875 l 1
 330.107421875 460.594726562 l 1
 330.107421875 0.1650390625 l 1
 246.12109375 -0.0009765625 l 1
182.008789062 623.24609375 m 1
 88.0009765625 595.180664062 l 1
 30 649.938476562 l 1
 106.543945312 672.72265625 l 1
 139.930664062 664.78125 l 1
 139.97265625 664.739257812 l 1
 171.821289062 657.171875 l 1
 171.946289062 657.088867188 l 1
 223.502929688 644.823242188 l 1
 223.959960938 644.366210938 l 1
 318.798828125 672.680664062 l 1
 376.799804688 617.881835938 l 1
 300.255859375 595.138671875 l 1
 267.991210938 602.7890625 l 1
 268.116210938 602.706054688 l 1
 216.393554688 614.971679688 l 1
 216.310546875 615.096679688 l 1
 182.008789062 623.24609375 l 1
EndSplineSet
Validated: 1
EndChar

StartChar: ograve
Encoding: 242 242 150
Width: 348
GlyphClass: 1
Flags: W
LayerCount: 2
Fore
SplineSet
234.852539062 507.080078125 m 1
 318.381835938 507.204101562 l 1
 318.381835938 48.353515625 l 1
 234.64453125 -0.0009765625 l 1
 150.94921875 -0.0009765625 l 1
 214.479492188 36.6708984375 l 1
 234.64453125 48.3544921875 l 1
 234.64453125 506.955078125 l 1
 151.40625 458.891601562 l 1
 150.94921875 458.891601562 l 1
 150.94921875 -0 l 1
 67.2119140625 0.166015625 l 1
 67.2119140625 458.891601562 l 1
 67.7109375 458.891601562 l 1
 151.40625 507.24609375 l 1
 235.1015625 507.24609375 l 1
 234.852539062 507.080078125 l 1
281.211914062 576.638671875 m 1
 155.606445312 576.638671875 l 1
 30.0009765625 649.150390625 l 1
 155.606445312 649.150390625 l 1
 281.211914062 576.638671875 l 1
EndSplineSet
Validated: 1
EndChar

StartChar: oacute
Encoding: 243 243 151
Width: 318
GlyphClass: 1
Flags: W
LayerCount: 2
Fore
SplineSet
197.890625 507.24609375 m 1
 197.599609375 507.080078125 l 1
 281.12890625 507.205078125 l 1
 281.12890625 48.3544921875 l 1
 197.43359375 0 l 1
 113.696289062 -0 l 1
 197.43359375 48.3544921875 l 1
 197.43359375 506.955078125 l 1
 114.153320312 458.891601562 l 1
 113.696289062 458.891601562 l 1
 113.696289062 -0 l 1
 30.0009765625 0.166015625 l 1
 30.0009765625 458.891601562 l 1
 30.4580078125 458.891601562 l 1
 114.153320312 507.24609375 l 1
 197.890625 507.24609375 l 1
288.072265625 649.150390625 m 1
 162.466796875 576.638671875 l 1
 36.861328125 576.638671875 l 1
 162.466796875 649.150390625 l 1
 288.072265625 649.150390625 l 1
EndSplineSet
Validated: 5
EndChar

StartChar: ocircumflex
Encoding: 244 244 152
Width: 352
GlyphClass: 1
Flags: W
LayerCount: 2
Fore
SplineSet
223.418945312 507.205078125 m 1
 223.127929688 507.038085938 l 1
 306.657226562 507.204101562 l 1
 306.657226562 48.3125 l 1
 222.961914062 -0.0009765625 l 1
 139.224609375 -0.0009765625 l 1
 222.961914062 48.3125 l 1
 222.961914062 506.955078125 l 1
 139.681640625 458.891601562 l 1
 139.224609375 458.891601562 l 1
 139.224609375 0 l 1
 55.529296875 0.125 l 1
 55.529296875 458.891601562 l 1
 55.986328125 458.891601562 l 1
 139.681640625 507.205078125 l 1
 223.418945312 507.205078125 l 1
176.145507812 629.608398438 m 1
 127.416992188 576.596679688 l 1
 30.0009765625 576.596679688 l 1
 127.416992188 682.578125 l 1
 224.833007812 682.578125 l 1
 322.249023438 576.596679688 l 1
 224.833007812 576.596679688 l 1
 176.145507812 629.608398438 l 1
EndSplineSet
Validated: 1
EndChar

StartChar: otilde
Encoding: 245 245 153
Width: 407
GlyphClass: 1
Flags: W
LayerCount: 2
Fore
SplineSet
245.62109375 507.205078125 m 1
 245.330078125 507.080078125 l 1
 328.859375 507.205078125 l 1
 328.859375 48.3544921875 l 1
 245.1640625 0 l 1
 161.426757812 -0 l 1
 245.1640625 48.3544921875 l 1
 245.1640625 506.955078125 l 1
 161.883789062 458.891601562 l 1
 161.426757812 458.891601562 l 1
 161.426757812 -0 l 1
 77.7314453125 0.166015625 l 1
 77.7314453125 458.891601562 l 1
 78.1884765625 458.891601562 l 1
 161.883789062 507.205078125 l 1
 245.62109375 507.205078125 l 1
182.0078125 618.923828125 m 1
 88 590.858398438 l 1
 29.9990234375 645.657226562 l 1
 106.54296875 668.400390625 l 1
 139.9296875 660.458984375 l 1
 139.971679688 660.416992188 l 1
 171.8203125 652.849609375 l 1
 171.9453125 652.766601562 l 1
 223.501953125 640.500976562 l 1
 224.000976562 640.043945312 l 1
 318.797851562 668.358398438 l 1
 376.798828125 613.559570312 l 1
 300.254882812 590.81640625 l 1
 267.990234375 598.466796875 l 1
 268.115234375 598.383789062 l 1
 216.392578125 610.649414062 l 1
 216.309570312 610.774414062 l 1
 182.0078125 618.923828125 l 1
EndSplineSet
Validated: 5
EndChar

StartChar: oslash
Encoding: 248 248 154
Width: 593
GlyphClass: 1
Flags: W
LayerCount: 2
Fore
SplineSet
562.775390625 509.200195312 m 1
 431.72265625 371.370117188 l 1
 431.72265625 48.3125 l 1
 348.02734375 -0.0009765625 l 1
 264.33203125 -0.0009765625 l 1
 348.02734375 48.3125 l 1
 348.02734375 283.350585938 l 1
 264.33203125 195.331054688 l 1
 264.33203125 -0 l 1
 180.63671875 0.166015625 l 1
 180.63671875 107.311523438 l 1
 80.517578125 2.037109375 l 1
 30.0009765625 2.037109375 l 1
 180.594726562 160.40625 l 1
 180.594726562 458.891601562 l 1
 181.051757812 458.891601562 l 1
 264.7890625 507.205078125 l 1
 348.484375 507.205078125 l 1
 348.193359375 507.080078125 l 1
 431.72265625 507.24609375 l 1
 431.72265625 424.506835938 l 1
 512.299804688 509.200195312 l 1
 562.775390625 509.200195312 l 1
264.331054688 248.466796875 m 1
 348.026367188 336.486328125 l 1
 348.026367188 506.954101562 l 1
 264.788085938 458.890625 l 1
 264.331054688 458.890625 l 1
 264.331054688 248.466796875 l 1
EndSplineSet
Validated: 1
EndChar

StartChar: ugrave
Encoding: 249 249 155
Width: 353
GlyphClass: 1
Flags: W
LayerCount: 2
Fore
SplineSet
239.301757812 410.662109375 m 1
 322.872070312 362.348632812 l 1
 322.872070312 -0 l 1
 322.456054688 0.2490234375 l 1
 239.217773438 0.2490234375 l 1
 71.9931640625 96.54296875 l 1
 72.03515625 507.205078125 l 1
 155.606445312 458.891601562 l 1
 155.606445312 96.54296875 l 1
 271.067382812 30.060546875 l 1
 239.21875 48.521484375 l 1
 239.301757812 410.662109375 l 1
281.2109375 569.23828125 m 1
 155.60546875 569.23828125 l 1
 30 641.75 l 1
 155.60546875 641.75 l 1
 281.2109375 569.23828125 l 1
EndSplineSet
Validated: 1
EndChar

StartChar: uacute
Encoding: 250 250 156
Width: 353
GlyphClass: 1
Flags: W
LayerCount: 2
Fore
SplineSet
197.30859375 410.620117188 m 1
 280.877929688 362.348632812 l 1
 280.877929688 0 l 1
 280.50390625 0.2080078125 l 1
 197.265625 0.2080078125 l 1
 29.9990234375 96.54296875 l 1
 30.041015625 507.163085938 l 1
 113.612304688 458.891601562 l 1
 113.612304688 96.54296875 l 1
 229.489257812 29.810546875 l 1
 197.266601562 48.5205078125 l 1
 197.30859375 410.620117188 l 1
322.87109375 639.75390625 m 1
 197.265625 567.2421875 l 1
 71.66015625 567.2421875 l 1
 197.265625 639.75390625 l 1
 322.87109375 639.75390625 l 1
EndSplineSet
Validated: 1
EndChar

StartChar: ucircumflex
Encoding: 251 251 157
Width: 364
GlyphClass: 1
Flags: W
LayerCount: 2
Fore
SplineSet
187.745117188 623.040039062 m 1
 139.016601562 570.028320312 l 1
 41.6005859375 570.028320312 l 1
 139.016601562 676.009765625 l 1
 236.432617188 676.009765625 l 1
 333.848632812 570.028320312 l 1
 236.432617188 570.028320312 l 1
 187.745117188 623.040039062 l 1
280.87890625 362.348632812 m 1
 280.876953125 0 l 1
 280.502929688 0.2080078125 l 1
 197.264648438 0.2080078125 l 1
 29.998046875 96.54296875 l 1
 30.0400390625 507.163085938 l 1
 113.611328125 458.891601562 l 1
 113.611328125 96.54296875 l 1
 229.114257812 30.0185546875 l 1
 197.265625 48.5205078125 l 1
 197.307617188 410.620117188 l 1
 280.87890625 362.348632812 l 1
EndSplineSet
Validated: 1
EndChar

StartChar: yacute
Encoding: 253 253 158
Width: 337
GlyphClass: 1
Flags: W
LayerCount: 2
Fore
SplineSet
307.447265625 913.251953125 m 1
 181.841796875 840.740234375 l 1
 56.1943359375 840.740234375 l 1
 181.841796875 913.251953125 l 1
 307.447265625 913.251953125 l 1
198.223632812 233.583007812 m 1
 199.09765625 693.265625 l 1
 283.083984375 741.787109375 l 1
 282.251953125 232.627929688 l 1
 199.055664062 232.627929688 l 1
 198.598632812 48.5224609375 l 1
 114.653320312 0.0009765625 l 1
 115.02734375 233.500976562 l 1
 114.403320312 233.500976562 l 1
 30.375 281.98046875 l 1
 30.0009765625 743.491210938 l 1
 113.946289062 694.969726562 l 1
 114.403320312 281.979492188 l 1
 198.223632812 233.583007812 l 1
EndSplineSet
Validated: 1
EndChar

StartChar: ydieresis
Encoding: 255 255 159
Width: 340
GlyphClass: 1
Flags: W
LayerCount: 2
Fore
SplineSet
132.405273438 825.772460938 m 1
 30 825.772460938 l 1
 30 928.177734375 l 1
 132.405273438 928.177734375 l 1
 132.405273438 825.772460938 l 1
310.440429688 825.772460938 m 1
 208.03515625 825.772460938 l 1
 208.03515625 928.177734375 l 1
 310.440429688 928.177734375 l 1
 310.440429688 825.772460938 l 1
218.1796875 233.583007812 m 1
 219.05078125 693.263671875 l 1
 302.99609375 741.78515625 l 1
 302.165039062 232.584960938 l 1
 218.96875 232.584960938 l 1
 218.552734375 48.4794921875 l 1
 134.56640625 -0 l 1
 134.982421875 233.458007812 l 1
 134.317382812 233.458007812 l 1
 50.2890625 281.979492188 l 1
 49.9150390625 743.44921875 l 1
 133.901367188 694.969726562 l 1
 134.317382812 281.979492188 l 1
 218.1796875 233.583007812 l 1
EndSplineSet
Validated: 1
EndChar

StartChar: Lslash
Encoding: 321 321 160
Width: 399
GlyphClass: 1
Flags: W
LayerCount: 2
Fore
SplineSet
231.942382812 76.0869140625 m 1
 273.39453125 100.036132812 l 1
 360.083984375 49.9765625 l 1
 273.26953125 0 l 1
 230.1953125 -0 l 1
 229.946289062 0.166015625 l 1
 145.501953125 0.166015625 l 1
 75.9423828125 50.142578125 l 1
 145.376953125 50.142578125 l 1
 145.376953125 302.892578125 l 1
 56.6923828125 227.720703125 l 1
 30 284.266601562 l 1
 145.377929688 382.056640625 l 1
 145.377929688 674.6796875 l 1
 102.095703125 699.916992188 l 1
 188.66015625 699.916992188 l 1
 231.942382812 674.6796875 l 1
 231.942382812 455.44140625 l 1
 342.497070312 549.115234375 l 1
 369.231445312 492.569335938 l 1
 231.942382812 376.235351562 l 1
 231.942382812 76.0869140625 l 1
EndSplineSet
Validated: 1
EndChar

StartChar: lslash
Encoding: 322 322 161
Width: 356
GlyphClass: 1
Flags: W
LayerCount: 2
Fore
SplineSet
285.411132812 48.146484375 m 1
 326.19921875 24.07421875 l 1
 284.497070312 0.0009765625 l 1
 201.591796875 0.0009765625 l 1
 121.637695312 0.208984375 l 1
 121.637695312 277.947265625 l 1
 56.693359375 222.7734375 l 1
 30.0009765625 279.27734375 l 1
 121.637695312 357.193359375 l 1
 121.637695312 699.833984375 l 1
 205.041992188 699.833984375 l 1
 205.041992188 428.125 l 1
 269.529296875 482.923828125 l 1
 296.221679688 426.377929688 l 1
 205.041992188 348.876953125 l 1
 205.041992188 1.9951171875 l 1
 285.411132812 48.146484375 l 1
EndSplineSet
Validated: 1
EndChar

StartChar: OE
Encoding: 338 338 162
Width: 449
GlyphClass: 1
Flags: W
LayerCount: 2
Fore
SplineSet
203.00390625 699.168945312 m 1
 116.522460938 649.234375 l 1
 116.522460938 0 l 1
 30 0.2080078125 l 1
 30 649.234375 l 1
 116.522460938 699.168945312 l 1
 203.00390625 699.168945312 l 1
376.0078125 26.984375 m 1
 419.083007812 1.9970703125 l 1
 289.319335938 1.9970703125 l 1
 247.94921875 25.9453125 l 1
 203.00390625 0.0009765625 l 1
 116.522460938 0.0009765625 l 1
 203.00390625 49.935546875 l 1
 203.00390625 699.169921875 l 1
 332.434570312 699.169921875 l 1
 418.625 649.401367188 l 1
 332.434570312 649.401367188 l 1
 289.526367188 674.139648438 l 1
 289.526367188 399.228515625 l 1
 316.094726562 399.228515625 l 1
 402.28515625 349.459960938 l 1
 289.526367188 349.459960938 l 1
 289.526367188 51.9306640625 l 1
 332.434570312 26.984375 l 1
 376.0078125 26.984375 l 1
EndSplineSet
Validated: 5
EndChar

StartChar: oe
Encoding: 339 339 163
Width: 480
GlyphClass: 1
Flags: W
LayerCount: 2
Fore
SplineSet
281.12890625 507.205078125 m 1
 281.129882812 215.163085938 l 1
 281.37890625 -0.0009765625 l 1
 239.21875 24.1142578125 l 1
 197.43359375 -0.0009765625 l 1
 113.696289062 -0.0009765625 l 1
 197.267578125 48.2294921875 l 1
 197.225585938 265.638671875 l 1
 197.43359375 427.250976562 l 1
 197.43359375 506.955078125 l 1
 114.153320312 458.891601562 l 1
 113.696289062 458.891601562 l 1
 113.696289062 0 l 1
 30.0009765625 0.125 l 1
 30.0009765625 458.891601562 l 1
 30.4580078125 458.891601562 l 1
 114.153320312 507.205078125 l 1
 197.890625 507.205078125 l 1
 197.599609375 507.0390625 l 1
 281.12890625 507.205078125 l 1
281.37890625 -0.0009765625 m 1
 364.534179688 48.3125 l 1
 448.229492188 48.3125 l 1
 364.534179688 -0.0009765625 l 1
 281.37890625 -0.0009765625 l 1
449.768554688 458.599609375 m 1
 449.810546875 216.6171875 l 1
 366.15625 216.6171875 l 1
 366.15625 217.32421875 l 1
 365.241210938 217.32421875 l 1
 281.586914062 265.637695312 l 1
 365.241210938 265.637695312 l 1
 366.15625 265.138671875 l 1
 366.15625 449.369140625 l 1
 366.114257812 458.723632812 l 1
 282.418945312 507.037109375 l 1
 366.114257812 507.037109375 l 1
 441.494140625 463.505859375 l 1
 449.768554688 458.724609375 l 1
 449.768554688 458.599609375 l 1
EndSplineSet
Validated: 5
EndChar

StartChar: Scaron
Encoding: 352 352 164
Width: 362
GlyphClass: 1
Flags: W
LayerCount: 2
Fore
SplineSet
331.4375 649.857421875 m 1
 244.873046875 649.857421875 l 1
 158.890625 699.791992188 l 1
 244.873046875 699.791992188 l 1
 331.4375 649.857421875 l 1
331.4375 249.672851562 m 1
 331.645507812 49.7255859375 l 1
 244.665039062 -0.0009765625 l 1
 244.665039062 261.563476562 l 1
 71.91015625 361.973632812 l 1
 71.91015625 650.064453125 l 1
 158.890625 699.791015625 l 1
 158.890625 411.326171875 l 1
 331.4375 311.083007812 l 1
 331.4375 249.672851562 l 1
72.1181640625 49.93359375 m 1
 158.640625 49.93359375 l 1
 244.665039062 -0.0009765625 l 1
 158.640625 -0.0009765625 l 1
 72.1181640625 49.93359375 l 1
224.83203125 746.690429688 m 1
 127.416015625 746.690429688 l 1
 30 852.671875 l 1
 127.416015625 852.671875 l 1
 176.14453125 799.702148438 l 1
 224.83203125 852.671875 l 1
 322.248046875 852.671875 l 1
 224.83203125 746.690429688 l 1
EndSplineSet
Validated: 5
EndChar

StartChar: scaron
Encoding: 353 353 165
Width: 352
GlyphClass: 1
Flags: W
LayerCount: 2
Fore
SplineSet
224.833007812 593.977539062 m 1
 127.416992188 593.977539062 l 1
 30.0009765625 699.958984375 l 1
 127.416992188 699.958984375 l 1
 176.145507812 646.989257812 l 1
 224.833007812 699.958984375 l 1
 322.249023438 699.958984375 l 1
 224.833007812 593.977539062 l 1
30.125 48.3134765625 m 1
 113.779296875 48.3134765625 l 1
 196.934570312 0 l 1
 113.779296875 0 l 1
 30.125 48.3134765625 l 1
322.125 458.891601562 m 1
 238.470703125 458.891601562 l 1
 155.357421875 507.205078125 l 1
 238.470703125 507.205078125 l 1
 322.125 458.891601562 l 1
71.703125 458.891601562 m 1
 155.358398438 507.205078125 l 1
 155.067382812 314.202148438 l 1
 270.3203125 247.469726562 l 1
 280.58984375 241.524414062 l 1
 280.58984375 48.3134765625 l 1
 196.935546875 -0 l 1
 197.184570312 176.372070312 l 1
 196.893554688 193.2109375 l 1
 186.790039062 199.073242188 l 1
 71.703125 265.680664062 l 1
 71.703125 458.891601562 l 1
EndSplineSet
Validated: 5
EndChar

StartChar: Ydieresis
Encoding: 376 376 166
Width: 340
GlyphClass: 1
Flags: W
LayerCount: 2
Fore
SplineSet
132.405273438 734.966796875 m 1
 30 734.966796875 l 1
 30 837.372070312 l 1
 132.405273438 837.372070312 l 1
 132.405273438 734.966796875 l 1
310.440429688 734.966796875 m 1
 208.03515625 734.966796875 l 1
 208.03515625 837.372070312 l 1
 310.440429688 837.372070312 l 1
 310.440429688 734.966796875 l 1
213.107421875 350.998046875 m 1
 214.022460938 650.896484375 l 1
 300.544921875 700.9140625 l 1
 299.713867188 349.999023438 l 1
 213.939453125 349.999023438 l 1
 213.024414062 49.9755859375 l 1
 126.501953125 -0.0009765625 l 1
 127.333007812 350.9140625 l 1
 126.66796875 350.9140625 l 1
 40.0615234375 400.890625 l 1
 39.6875 702.661132812 l 1
 126.251953125 652.643554688 l 1
 126.66796875 400.891601562 l 1
 213.107421875 350.998046875 l 1
EndSplineSet
Validated: 1
EndChar

StartChar: Zcaron
Encoding: 381 381 167
Width: 394
GlyphClass: 1
Flags: W
LayerCount: 2
Fore
SplineSet
364.284179688 48.396484375 m 1
 280.46484375 0.125 l 1
 242.337890625 0.125 l 1
 242.50390625 0 l 1
 155.274414062 -0 l 1
 71.703125 48.271484375 l 1
 72.41015625 48.271484375 l 1
 72.3271484375 290.3359375 l 1
 72.3271484375 290.418945312 l 1
 72.53515625 290.418945312 l 1
 155.149414062 338.108398438 l 1
 114.154296875 362.223632812 l 1
 155.939453125 386.837890625 l 1
 197.392578125 362.514648438 l 1
 239.510742188 386.837890625 l 1
 238.346679688 386.837890625 l 1
 238.346679688 651.89453125 l 1
 218.47265625 663.370117188 l 1
 215.395507812 661.790039062 l 1
 113.696289062 603.08203125 l 1
 30.0009765625 651.395507812 l 1
 113.821289062 699.666992188 l 1
 239.01171875 699.791992188 l 1
 321.875976562 651.520507812 l 1
 321.958984375 386.837890625 l 1
 323.123046875 386.837890625 l 1
 239.510742188 338.56640625 l 1
 238.845703125 338.192382812 l 1
 280.672851562 313.620117188 l 1
 238.346679688 289.172851562 l 1
 196.51953125 313.745117188 l 1
 155.939453125 290.336914062 l 1
 155.939453125 47.8984375 l 1
 175.979492188 36.2978515625 l 1
 176.104492188 36.380859375 l 1
 176.0625 36.380859375 l 1
 177.2265625 37.0458984375 l 1
 177.268554688 37.0458984375 l 1
 280.588867188 96.7099609375 l 1
 364.284179688 48.396484375 l 1
245.9140625 746.692382812 m 1
 148.498046875 746.692382812 l 1
 51.08203125 852.673828125 l 1
 148.498046875 852.673828125 l 1
 197.2265625 799.704101562 l 1
 245.9140625 852.673828125 l 1
 343.372070312 852.673828125 l 1
 245.9140625 746.692382812 l 1
EndSplineSet
Validated: 1
EndChar

